<svg width="1440" height="1407" viewBox="0 0 1440 1407" fill="none" xmlns="http://www.w3.org/2000/svg">
<g clip-path="url(#clip0_239_64)">
<rect width="1440" height="1407" fill="url(#paint0_linear_239_64)"/>
<path opacity="0.06" fill-rule="evenodd" clip-rule="evenodd" d="M53.8969 474.277V401.745H-5V399.975H53.8969V327.443H-5V325.673H53.8969V253.14H-5V251.371H53.8969V178.838H-5V177.068H53.8969V106H55.6668V177.068H128.2V106H129.97V177.068H202.502V106H204.272V177.068H276.803V106H278.573V177.068H351.106V106H352.876V177.068H425.409V106H427.178V177.068H499.71V106H501.48V177.068H574.013V106H575.783V177.068H634.575V178.838H575.783V251.371H634.575V253.14H575.783V325.673H634.575V327.443H575.783V399.975H634.575V401.745H575.783V474.277H634.575V476.047H575.783V545.621H574.013V476.047H501.48V545.621H499.71V476.047H427.178V545.621H425.409V476.047H352.876V545.621H351.106V476.047H278.573V545.621H276.803V476.047H204.272V545.621H202.502V476.047H129.97V545.621H128.2V476.047H55.6668V545.621H53.8969V476.047H-5V474.277H53.8969ZM574.013 178.838H501.48V251.371H574.013V178.838ZM499.71 178.838H427.178V251.371H499.71V178.838ZM425.409 178.838H352.876V251.371H425.409V178.838ZM351.106 178.838H278.573V251.371H351.106V178.838ZM276.803 178.838H204.272V251.371H276.803V178.838ZM202.502 178.838H129.97V251.371H202.502V178.838ZM128.2 178.838H55.6668V251.371H128.2V178.838ZM55.6668 325.673V253.14H128.2V325.673H55.6668ZM129.97 325.673V253.14H202.502V325.673H129.97ZM204.272 325.673V253.14H276.803V325.673H204.272ZM278.573 325.673V253.14H351.106V325.673H278.573ZM352.876 325.673V253.14H425.409V325.673H352.876ZM427.178 325.673V253.14H499.71V325.673H427.178ZM501.48 325.673V253.14H574.013V325.673H501.48ZM574.013 327.443H501.48V399.975H574.013V327.443ZM499.71 327.443H427.178V399.975H499.71V327.443ZM425.409 327.443H352.876V399.975H425.409V327.443ZM351.106 327.443H278.573V399.975H351.106V327.443ZM276.803 327.443H204.272V399.975H276.803V327.443ZM202.502 327.443H129.97V399.975H202.502V327.443ZM128.2 327.443H55.6668V399.975H128.2V327.443ZM55.6668 474.277V401.745H128.2V474.277H55.6668ZM129.97 474.277V401.745H202.502V474.277H129.97ZM204.272 474.277V401.745H276.803V474.277H204.272ZM278.573 474.277V401.745H351.106V474.277H278.573ZM352.876 474.277V401.745H425.409V474.277H352.876ZM427.178 474.277V401.745H499.71V474.277H427.178ZM501.48 474.277V401.745H574.013V474.277H501.48Z" fill="url(#paint1_radial_239_64)"/>
<path opacity="0.06" fill-rule="evenodd" clip-rule="evenodd" d="M854.323 474.277V401.745H795.425V399.975H854.323V327.443H795.425V325.673H854.323V253.14H795.425V251.371H854.323V178.838H795.425V177.068H854.323V106H856.093V177.068H928.625V106H930.395V177.068H1002.93V106H1004.7V177.068H1077.23V106H1079V177.068H1151.53V106H1153.3V177.068H1225.83V106H1227.6V177.068H1300.14V106H1301.91V177.068H1374.44V106H1376.21V177.068H1435V178.838H1376.21V251.371H1435V253.14H1376.21V325.673H1435V327.443H1376.21V399.975H1435V401.745H1376.21V474.277H1435V476.047H1376.21V545.621H1374.44V476.047H1301.91V545.621H1300.14V476.047H1227.6V545.621H1225.83V476.047H1153.3V545.621H1151.53V476.047H1079V545.621H1077.23V476.047H1004.7V545.621H1002.93V476.047H930.395V545.621H928.625V476.047H856.093V545.621H854.323V476.047H795.425V474.277H854.323ZM1374.44 178.838H1301.91V251.371H1374.44V178.838ZM1300.14 178.838H1227.6V251.371H1300.14V178.838ZM1225.83 178.838H1153.3V251.371H1225.83V178.838ZM1151.53 178.838H1079V251.371H1151.53V178.838ZM1077.23 178.838H1004.7V251.371H1077.23V178.838ZM1002.93 178.838H930.395V251.371H1002.93V178.838ZM928.625 178.838H856.093V251.371H928.625V178.838ZM856.093 325.673V253.14H928.625V325.673H856.093ZM930.395 325.673V253.14H1002.93V325.673H930.395ZM1004.7 325.673V253.14H1077.23V325.673H1004.7ZM1079 325.673V253.14H1151.53V325.673H1079ZM1153.3 325.673V253.14H1225.83V325.673H1153.3ZM1227.6 325.673V253.14H1300.14V325.673H1227.6ZM1301.91 325.673V253.14H1374.44V325.673H1301.91ZM1374.44 327.443H1301.91V399.975H1374.44V327.443ZM1300.14 327.443H1227.6V399.975H1300.14V327.443ZM1225.83 327.443H1153.3V399.975H1225.83V327.443ZM1151.53 327.443H1079V399.975H1151.53V327.443ZM1077.23 327.443H1004.7V399.975H1077.23V327.443ZM1002.93 327.443H930.395V399.975H1002.93V327.443ZM928.625 327.443H856.093V399.975H928.625V327.443ZM856.093 474.277V401.745H928.625V474.277H856.093ZM930.395 474.277V401.745H1002.93V474.277H930.395ZM1004.7 474.277V401.745H1077.23V474.277H1004.7ZM1079 474.277V401.745H1151.53V474.277H1079ZM1153.3 474.277V401.745H1225.83V474.277H1153.3ZM1227.6 474.277V401.745H1300.14V474.277H1227.6ZM1301.91 474.277V401.745H1374.44V474.277H1301.91Z" fill="url(#paint2_radial_239_64)"/>
<path d="M99.0701 83.47H0.0244141C0.0244141 108.169 20.0427 128.212 44.7668 128.212H54.3527C79.0519 128.212 99.095 108.194 99.095 83.47H99.0701Z" fill="#01A8B8"/>
<path d="M198.115 83.47H99.0693C99.0693 108.169 119.088 128.212 143.812 128.212H153.398C178.097 128.212 198.14 108.194 198.14 83.47H198.115Z" fill="#B1E0DF"/>
<path d="M297.186 83.47H198.14C198.14 108.169 218.158 128.212 242.883 128.212H252.468C277.168 128.212 297.211 108.194 297.211 83.47H297.186Z" fill="#01A8B8"/>
<path d="M396.233 83.47H297.187C297.187 108.169 317.205 128.212 341.929 128.212H351.515C376.214 128.212 396.258 108.194 396.258 83.47H396.233Z" fill="#B1E0DF"/>
<path d="M495.282 83.47H396.236C396.236 108.169 416.255 128.212 440.979 128.212H450.565C475.264 128.212 495.307 108.194 495.307 83.47H495.282Z" fill="#01A8B8"/>
<path d="M594.348 83.47H495.303C495.303 108.169 515.321 128.212 540.045 128.212H549.631C574.33 128.212 594.373 108.194 594.373 83.47H594.348Z" fill="#B1E0DF"/>
<path d="M693.389 83.47H594.344C594.344 108.169 614.362 128.212 639.086 128.212H648.672C673.371 128.212 693.414 108.194 693.414 83.47H693.389Z" fill="#01A8B8"/>
<path d="M792.467 83.47H693.421C693.421 108.169 713.439 128.212 738.163 128.212H747.749C772.448 128.212 792.491 108.194 792.491 83.47H792.467Z" fill="#B1E0DF"/>
<path d="M891.508 83.47H792.462C792.462 108.169 812.48 128.212 837.204 128.212H846.79C871.489 128.212 891.532 108.194 891.532 83.47H891.508Z" fill="#01A8B8"/>
<path d="M990.58 83.47H891.535C891.535 108.169 911.553 128.212 936.277 128.212H945.863C970.562 128.212 990.605 108.194 990.605 83.47H990.58Z" fill="#B1E0DF"/>
<path d="M1089.63 83.47H990.58C990.58 108.169 1010.6 128.212 1035.32 128.212H1044.91C1069.61 128.212 1089.65 108.194 1089.65 83.47H1089.63Z" fill="#01A8B8"/>
<path d="M160.993 -66.1195L99.0706 83.4699H0L75.716 -66.1195H160.993Z" fill="#0098B4"/>
<path d="M246.291 -66.1195L198.113 83.4699H99.0669L160.989 -66.1195H246.291Z" fill="#BFE9E9"/>
<path d="M331.598 -66.1195L297.188 83.4699H198.118L246.296 -66.1195H331.598Z" fill="#0098B4"/>
<path d="M416.873 -66.1195L396.232 83.4699H297.187L331.596 -66.1195H416.873Z" fill="#BFE9E9"/>
<path d="M502.177 -66.1195L495.28 83.4699H396.234L416.875 -66.1195H502.177Z" fill="#0098B4"/>
<path d="M928.633 -66.1191L990.58 83.4703H1089.63L1013.93 -66.1191H928.633Z" fill="#0098B4"/>
<path d="M843.332 -66.1191L891.51 83.4703H990.58L928.633 -66.1191H843.332Z" fill="#BFE9E9"/>
<path d="M758.055 -66.1191L792.464 83.4703H891.51L843.332 -66.1191H758.055Z" fill="#0098B4"/>
<path d="M672.751 -66.1191L693.392 83.4703H792.463L758.053 -66.1191H672.751Z" fill="#BFE9E9"/>
<path d="M587.45 -66.1191L594.347 83.4703H693.393L672.752 -66.1191H587.45Z" fill="#0098B4"/>
<path d="M1181.67 83.4698H1082.62C1082.62 108.169 1102.64 128.212 1127.36 128.212H1136.95C1161.65 128.212 1181.69 108.194 1181.69 83.4698H1181.67Z" fill="#B1E0DF"/>
<path d="M1280.71 83.4698H1181.67C1181.67 108.169 1201.69 128.212 1226.41 128.212H1236C1260.69 128.212 1280.74 108.194 1280.74 83.4698H1280.71Z" fill="#01A8B8"/>
<path d="M1119.72 -66.1191L1181.67 83.4703H1280.71L1205.02 -66.1191H1119.72Z" fill="#0098B4"/>
<path d="M1034.42 -66.1191L1082.6 83.4703H1181.67L1119.72 -66.1191H1034.42Z" fill="#BFE9E9"/>
<path d="M1372.93 83.4698H1273.88C1273.88 108.169 1293.9 128.212 1318.63 128.212H1328.21C1352.91 128.212 1372.95 108.194 1372.95 83.4698H1372.93Z" fill="#B1E0DF"/>
<path d="M1471.98 83.4698H1372.93C1372.93 108.169 1392.95 128.212 1417.67 128.212H1427.26C1451.96 128.212 1472 108.194 1472 83.4698H1471.98Z" fill="#01A8B8"/>
<path d="M1310.98 -66.1191L1372.93 83.4703H1471.98L1396.28 -66.1191H1310.98Z" fill="#0098B4"/>
<path d="M1225.68 -66.1191L1273.86 83.4703H1372.93L1310.98 -66.1191H1225.68Z" fill="#BFE9E9"/>
<path d="M587.451 -66.1195L593.925 83.4699H494.879L502.174 -66.1195H587.451Z" fill="#BFE9E9"/>
</g>
<defs>
<linearGradient id="paint0_linear_239_64" x1="720" y1="0" x2="720" y2="1407" gradientUnits="userSpaceOnUse">
<stop offset="0.561414" stop-color="#4494A7"/>
<stop offset="0.932703" stop-color="#4C9FB2"/>
</linearGradient>
<radialGradient id="paint1_radial_239_64" cx="0" cy="0" r="1" gradientUnits="userSpaceOnUse" gradientTransform="translate(314.787 325.81) rotate(90) scale(322.222 468.779)">
<stop stop-color="#061623"/>
<stop offset="1" stop-color="#061623" stop-opacity="0"/>
</radialGradient>
<radialGradient id="paint2_radial_239_64" cx="0" cy="0" r="1" gradientUnits="userSpaceOnUse" gradientTransform="translate(1115.21 325.81) rotate(90) scale(322.222 468.779)">
<stop stop-color="#061623"/>
<stop offset="1" stop-color="#061623" stop-opacity="0"/>
</radialGradient>
<clipPath id="clip0_239_64">
<rect width="1440" height="1407" fill="white"/>
</clipPath>
</defs>
</svg>
