<svg width="450" height="432" viewBox="0 0 450 432" fill="none" xmlns="http://www.w3.org/2000/svg">
<g clip-path="url(#clip0_2635_13090)">
<path d="M295.859 64.45C284.089 85.11 257.759 92.28 237.049 80.48C216.349 68.68 209.109 42.37 220.879 21.71C232.649 1.05003 258.979 -6.11997 279.689 5.68003C300.389 17.48 307.629 43.79 295.859 64.45Z" fill="#F5F5F5"/>
<path d="M286.94 59.37C277.97 75.11 257.9 80.58 242.13 71.59C226.35 62.6 220.84 42.55 229.81 26.81C238.78 11.07 258.85 5.60002 274.62 14.59C290.4 23.58 295.91 43.63 286.94 59.38V59.37Z" fill="#EBEBEB"/>
<path d="M287.44 58.47C287.26 58.38 287.86 57.05 288.64 54.6C289.41 52.16 290.34 48.52 290.34 43.97C290.34 41.7 290.1 39.22 289.52 36.62C288.91 34.03 287.98 31.33 286.59 28.7C285.9 27.38 285.11 26.07 284.19 24.82C283.28 23.56 282.27 22.32 281.13 21.18C279.99 20.03 278.77 18.92 277.43 17.93C276.09 16.93 274.66 16.02 273.15 15.21C271.63 14.42 270.07 13.75 268.49 13.2C266.91 12.65 265.31 12.26 263.72 11.97C262.13 11.67 260.54 11.54 258.98 11.49C257.42 11.43 255.9 11.52 254.42 11.69C251.46 12.02 248.7 12.77 246.22 13.72C243.75 14.7 241.56 15.9 239.68 17.17C235.92 19.73 233.43 22.54 231.85 24.55C230.27 26.58 229.51 27.81 229.33 27.72C229.2 27.65 229.66 26.26 231.04 23.99C232.42 21.75 234.8 18.62 238.64 15.72C240.55 14.28 242.82 12.91 245.42 11.78C248.02 10.68 250.95 9.79 254.12 9.38C255.7 9.17 257.34 9.05 259.02 9.08C260.7 9.11 262.41 9.23 264.13 9.54C265.85 9.84 267.58 10.25 269.29 10.83C271 11.41 272.68 12.13 274.32 12.99C275.95 13.87 277.49 14.85 278.93 15.94C280.37 17.02 281.69 18.23 282.9 19.48C284.12 20.73 285.19 22.08 286.15 23.45C287.12 24.82 287.94 26.24 288.66 27.67C290.1 30.53 291.02 33.44 291.57 36.22C292.1 39 292.24 41.65 292.13 44.04C291.9 48.84 290.65 52.57 289.57 54.98C288.47 57.4 287.58 58.57 287.45 58.5L287.44 58.47Z" fill="#E0E0E0"/>
<path d="M251.888 61.96L249.128 66.98L244.648 64.51L247.338 59.63C243.048 56.92 239.558 53.19 238.158 49.9L243.628 45.79C244.958 48.68 247.508 51.67 250.568 53.76L254.688 46.28C250.378 42.33 245.738 37.62 249.268 31.21C251.888 26.46 257.578 24.29 265.098 27.38L267.838 22.41L272.318 24.88L269.628 29.76C272.838 31.88 275.618 34.58 277.218 37.5L271.948 41.78C270.378 39.22 268.468 37.18 266.378 35.67L262.178 43.29C266.508 47.19 271.058 51.86 267.578 58.18C265.008 62.84 259.388 64.99 251.888 61.97V61.96ZM258.318 39.69L261.818 33.33C259.148 32.56 257.488 33.34 256.678 34.82C255.818 36.39 256.688 37.98 258.318 39.69ZM260.078 54.73C260.938 53.16 260.108 51.6 258.558 49.86L255.148 56.04C257.658 56.78 259.288 56.16 260.078 54.73Z" fill="#E0E0E0"/>
<path d="M43.6296 141.65C37.8596 151.78 24.9396 155.3 14.7896 149.51C4.6396 143.72 1.0896 130.82 6.8596 120.69C12.6296 110.56 25.5496 107.04 35.6996 112.83C45.8496 118.62 49.3996 131.52 43.6296 141.65Z" fill="#F5F5F5"/>
<path d="M39.25 139.16C34.85 146.88 25.01 149.56 17.27 145.15C9.53005 140.74 6.83004 130.91 11.23 123.19C15.63 115.47 25.47 112.79 33.21 117.2C40.95 121.61 43.65 131.44 39.25 139.16Z" fill="#EBEBEB"/>
<path d="M39.4999 138.71C39.4099 138.66 39.6999 138.02 40.0899 136.81C40.4699 135.61 40.9199 133.83 40.9199 131.59C40.9199 130.48 40.7999 129.26 40.5199 127.99C40.2199 126.72 39.7699 125.4 39.0799 124.11C38.7399 123.46 38.3499 122.82 37.8999 122.21C37.4499 121.59 36.9599 120.99 36.3999 120.42C35.8399 119.86 35.2399 119.31 34.5799 118.83C33.9199 118.34 33.2199 117.89 32.4799 117.5C31.7299 117.11 30.9699 116.78 30.1899 116.51C29.4199 116.24 28.6299 116.05 27.8499 115.91C27.0699 115.76 26.2899 115.7 25.5299 115.67C24.7699 115.64 24.0199 115.68 23.2899 115.77C21.8399 115.93 20.4799 116.3 19.2699 116.77C18.0599 117.25 16.9899 117.84 16.0599 118.46C14.2099 119.72 12.9999 121.1 12.2199 122.08C11.4399 123.08 11.0699 123.68 10.9899 123.63C10.9299 123.6 11.1499 122.91 11.8299 121.8C12.5099 120.7 13.6699 119.16 15.5599 117.74C16.4999 117.03 17.6099 116.36 18.8899 115.81C20.1699 115.27 21.5999 114.84 23.1599 114.63C23.9399 114.53 24.7399 114.47 25.5599 114.48C26.3799 114.49 27.2199 114.55 28.0599 114.7C28.8999 114.85 29.7499 115.05 30.5899 115.33C31.4299 115.62 32.2499 115.97 33.0599 116.39C33.8599 116.82 34.6199 117.3 35.3199 117.83C36.0299 118.36 36.6699 118.95 37.2699 119.57C37.8699 120.18 38.3899 120.84 38.8599 121.52C39.3399 122.19 39.7399 122.89 40.0899 123.59C40.7999 124.99 41.2499 126.42 41.5199 127.78C41.7799 129.14 41.8499 130.44 41.7899 131.62C41.6799 133.97 41.0599 135.8 40.5299 136.98C39.9899 138.16 39.5499 138.74 39.4899 138.7L39.4999 138.71Z" fill="#E0E0E0"/>
<path d="M22.0603 140.43L20.7003 142.89L18.5003 141.68L19.8203 139.29C17.7203 137.96 16.0103 136.13 15.3203 134.52L18.0003 132.51C18.6503 133.93 19.9103 135.39 21.4003 136.42L23.4203 132.75C21.3103 130.81 19.0303 128.5 20.7603 125.36C22.0403 123.03 24.8403 121.96 28.5203 123.48L29.8603 121.04L32.0603 122.25L30.7403 124.64C32.3103 125.68 33.6803 127 34.4603 128.44L31.8703 130.54C31.1003 129.29 30.1603 128.28 29.1403 127.55L27.0803 131.29C29.2003 133.2 31.4403 135.49 29.7303 138.59C28.4703 140.87 25.7103 141.93 22.0303 140.45L22.0603 140.43ZM25.2103 129.51L26.9303 126.39C25.6203 126.01 24.8103 126.39 24.4103 127.12C23.9903 127.89 24.4103 128.67 25.2103 129.51ZM26.0703 136.89C26.4903 136.12 26.0903 135.35 25.3203 134.5L23.6503 137.53C24.8803 137.89 25.6803 137.59 26.0703 136.89Z" fill="#E0E0E0"/>
<path d="M338.989 218.04C333.219 228.17 320.299 231.69 310.149 225.9C299.999 220.11 296.449 207.21 302.219 197.08C307.989 186.95 320.909 183.43 331.059 189.22C341.209 195.01 344.759 207.91 338.989 218.04Z" fill="#F5F5F5"/>
<path d="M334.619 215.55C330.219 223.27 320.379 225.95 312.639 221.54C304.899 217.13 302.199 207.3 306.599 199.58C310.999 191.86 320.839 189.18 328.579 193.59C336.319 198 339.019 207.83 334.619 215.55Z" fill="#EBEBEB"/>
<path d="M334.859 215.11C334.769 215.06 335.059 214.42 335.449 213.21C335.829 212.01 336.279 210.23 336.279 207.99C336.279 206.88 336.159 205.66 335.879 204.39C335.579 203.12 335.129 201.8 334.439 200.51C334.099 199.86 333.709 199.22 333.259 198.61C332.809 197.99 332.319 197.39 331.759 196.82C331.199 196.26 330.599 195.71 329.939 195.23C329.279 194.74 328.579 194.29 327.839 193.9C327.089 193.51 326.329 193.18 325.549 192.91C324.779 192.64 323.989 192.45 323.209 192.31C322.429 192.16 321.649 192.1 320.889 192.07C320.129 192.04 319.379 192.08 318.649 192.17C317.199 192.33 315.839 192.7 314.629 193.17C313.419 193.65 312.349 194.24 311.419 194.86C309.569 196.12 308.359 197.5 307.579 198.48C306.799 199.48 306.429 200.08 306.349 200.03C306.289 200 306.509 199.31 307.189 198.2C307.869 197.1 309.029 195.56 310.919 194.14C311.859 193.43 312.969 192.76 314.249 192.21C315.529 191.67 316.959 191.24 318.519 191.03C319.299 190.93 320.099 190.87 320.919 190.88C321.739 190.89 322.579 190.95 323.419 191.1C324.259 191.25 325.109 191.45 325.949 191.73C326.789 192.02 327.609 192.37 328.419 192.79C329.219 193.22 329.979 193.7 330.679 194.23C331.389 194.76 332.029 195.35 332.629 195.97C333.229 196.58 333.749 197.24 334.219 197.92C334.699 198.59 335.099 199.29 335.449 199.99C336.159 201.39 336.609 202.82 336.879 204.18C337.139 205.54 337.209 206.84 337.149 208.02C337.039 210.37 336.419 212.2 335.889 213.38C335.349 214.57 334.909 215.14 334.849 215.1L334.859 215.11Z" fill="#E0E0E0"/>
<path d="M317.429 216.82L316.069 219.28L313.869 218.07L315.189 215.68C313.089 214.35 311.379 212.52 310.689 210.91L313.369 208.9C314.019 210.32 315.279 211.78 316.769 212.81L318.789 209.14C316.679 207.2 314.399 204.89 316.129 201.75C317.409 199.42 320.209 198.35 323.889 199.87L325.229 197.43L327.429 198.64L326.109 201.03C327.679 202.07 329.049 203.39 329.829 204.83L327.239 206.93C326.469 205.68 325.529 204.67 324.509 203.94L322.449 207.68C324.569 209.59 326.809 211.88 325.099 214.98C323.839 217.26 321.079 218.32 317.399 216.84L317.429 216.82ZM320.579 205.9L322.299 202.78C320.989 202.4 320.179 202.78 319.779 203.51C319.359 204.28 319.779 205.06 320.579 205.9ZM321.439 213.28C321.859 212.51 321.459 211.74 320.689 210.89L319.019 213.92C320.249 214.28 321.049 213.98 321.439 213.28Z" fill="#E0E0E0"/>
<path d="M12.3691 367.02C12.3691 366.88 104.249 366.76 217.559 366.76C330.869 366.76 422.769 366.88 422.769 367.02C422.769 367.16 330.909 367.28 217.559 367.28C104.209 367.28 12.3691 367.16 12.3691 367.02Z" fill="#263238"/>
<path d="M182.34 416.68L184.55 431.17L330.58 431.55C330.58 431.55 332.31 418.78 330.58 417.06C328.85 415.34 182.34 416.68 182.34 416.68Z" fill="#E0E0E0"/>
<path d="M331.87 423.92C331.87 424.06 298.66 424.09 257.69 423.99C216.71 423.88 183.51 423.68 183.51 423.54C183.51 423.4 216.72 423.37 257.69 423.47C298.65 423.58 331.86 423.78 331.86 423.92H331.87Z" fill="#263238"/>
<path d="M331.52 427.74C331.52 427.88 298.5 428 257.77 428C217.04 428 184.02 427.88 184.02 427.74C184.02 427.6 217.03 427.48 257.77 427.48C298.51 427.48 331.52 427.6 331.52 427.74Z" fill="#263238"/>
<path d="M307.16 373.17L209.48 373.52L182.34 416.86L330.58 417.24L307.16 373.17Z" fill="white"/>
<path d="M307.159 373.17C307.159 373.17 307.309 373.42 307.589 373.92C307.869 374.44 308.279 375.19 308.809 376.17C309.889 378.17 311.459 381.11 313.499 384.89C317.569 392.51 323.459 403.52 330.739 417.15L330.879 417.42H330.569C299.189 417.36 255.409 417.27 206.999 417.18C198.609 417.16 190.359 417.14 182.329 417.11H181.869L182.119 416.72C191.799 401.29 200.949 386.7 209.289 373.4L209.359 373.29H209.489C238.499 373.23 262.929 373.17 280.129 373.14C288.699 373.14 295.459 373.14 300.099 373.14C302.399 373.14 304.159 373.15 305.369 373.15C305.959 373.15 306.399 373.15 306.719 373.16C307.019 373.16 307.169 373.17 307.169 373.17C307.169 373.17 307.009 373.18 306.699 373.19C306.379 373.19 305.929 373.2 305.329 373.21C304.109 373.22 302.339 373.24 300.019 373.26C295.379 373.29 288.599 373.34 280.019 373.4C262.849 373.49 238.449 373.61 209.489 373.76L209.689 373.65C201.369 386.95 192.229 401.56 182.559 416.99L182.339 416.6C190.379 416.62 198.629 416.64 207.009 416.66C255.419 416.82 299.189 416.96 330.579 417.06L330.419 417.33C323.219 403.69 317.399 392.67 313.369 385.05C311.369 381.24 309.819 378.28 308.749 376.26C308.229 375.26 307.829 374.49 307.559 373.96C307.289 373.44 307.159 373.16 307.159 373.16V373.17Z" fill="#263238"/>
<path d="M197.079 423.92L194.369 429.07H205.329L204.159 423.92H197.079Z" fill="#0E97AB"/>
<path d="M229.179 420.12L226.469 425.27H237.429L236.259 420.12H229.179Z" fill="#455A64"/>
<path d="M275.339 423.92L274.389 429.07H283.589L282.419 423.92H275.339Z" fill="#0E97AB"/>
<path d="M331.018 420.12C331.018 420.26 297.808 420.29 256.838 420.19C215.858 420.08 182.658 419.88 182.658 419.74C182.658 419.6 215.868 419.57 256.838 419.67C297.798 419.78 331.008 419.98 331.008 420.12H331.018Z" fill="#263238"/>
<path d="M311.2 410.04H314.82V411.35H304.26V410.04H307.87V405.52H311.2V410.04Z" fill="#0E97AB"/>
<path d="M295.699 406.65H300.689L301.619 405.52H305.019L299.809 411.34H296.529L291.309 405.52H294.779L295.709 406.65H295.699ZM296.679 407.86L298.199 409.72L299.719 407.86H296.689H296.679Z" fill="#0E97AB"/>
<path d="M283.549 405.52L285.989 407.32L288.399 405.52H292.209L287.909 408.46L292.019 411.34H288.259L285.899 409.66L283.579 411.34H279.969L284.079 408.53L279.699 405.52H283.539H283.549Z" fill="#0E97AB"/>
<path d="M273.72 406.25H199.62L198.26 408.24H273.72V406.25Z" fill="#E0E0E0"/>
<path d="M301.11 377.62H213.87L212.51 379.61H301.97L301.11 377.62Z" fill="#E0E0E0"/>
<path d="M302.729 380.91H237.809L236.449 382.9H303.589L302.729 380.91Z" fill="#E0E0E0"/>
<path d="M273.718 409.72H198.038L196.648 411.71H273.718V409.72Z" fill="#E0E0E0"/>
<path d="M201.309 401.96H310.959L304.029 386.05H209.639L201.309 401.96Z" fill="#F5F5F5"/>
<path d="M201.309 401.96L202.739 399.22H309.769L310.959 401.96H201.309Z" fill="#E0E0E0"/>
<path d="M305.259 396.02H284.789L285.229 394H304.109L305.259 396.02Z" fill="#E0E0E0"/>
<path d="M303.589 392.03H257.109L257.549 390H302.439L303.589 392.03Z" fill="#E0E0E0"/>
<path d="M224.019 396.02H212.029L212.979 394H224.969L224.019 396.02Z" fill="#E0E0E0"/>
<path d="M226.289 391.38H214.299L215.249 389.36H227.239L226.289 391.38Z" fill="#E0E0E0"/>
<path d="M226.51 383.78H211.67L212.76 381.87H227.6L226.51 383.78Z" fill="#0E97AB"/>
<path d="M72.66 193.46C79.15 209.31 71.5599 227.42 55.7099 233.91C39.8599 240.4 21.7499 232.81 15.2599 216.96C8.76995 201.11 16.3599 183 32.2099 176.51C48.0599 170.02 66.17 177.61 72.66 193.46Z" fill="#0E97AB"/>
<g opacity="0.1">
<path d="M32.2099 176.51C16.3599 183 8.76995 201.11 15.2599 216.96C15.2599 216.96 35.8 209.61 37.33 199.5C38.86 189.39 32.2199 176.51 32.2199 176.51H32.2099Z" fill="white"/>
</g>
<path d="M65.1402 196.01C70.0702 208.06 64.3002 221.83 52.2502 226.76C40.2002 231.69 26.4302 225.92 21.5002 213.87C16.5702 201.82 22.3402 188.05 34.3902 183.12C46.4402 178.19 60.2102 183.96 65.1402 196.01Z" fill="#0E97AB"/>
<g opacity="0.2">
<path d="M65.1402 196.01C70.0702 208.06 64.3002 221.83 52.2502 226.76C40.2002 231.69 26.4302 225.92 21.5002 213.87C16.5702 201.82 22.3402 188.05 34.3902 183.12C46.4402 178.19 60.2102 183.96 65.1402 196.01Z" fill="black"/>
</g>
<path d="M66.1203 196.66C70.9903 208.55 65.3002 222.13 53.4102 227C41.5202 231.87 27.9402 226.17 23.0702 214.28C18.2002 202.39 23.8902 188.81 35.7802 183.94C47.6702 179.07 61.2503 184.77 66.1203 196.66Z" fill="#0E97AB"/>
<g opacity="0.2">
<path d="M66.1203 196.66C70.9903 208.55 65.3002 222.13 53.4102 227C41.5202 231.87 27.9402 226.17 23.0702 214.28C18.2002 202.39 23.8902 188.81 35.7802 183.94C47.6702 179.07 61.2503 184.77 66.1203 196.66Z" fill="white"/>
</g>
<path d="M44.6891 203.26L42.4391 197.75C42.4391 197.75 42.4591 197.75 42.4691 197.74C43.4691 197.46 44.5691 197.31 45.7091 197.3C46.6991 197.39 47.4391 197.6 47.4391 197.6V197.4L47.4791 195.07V194.53L46.0891 193.9L45.6991 194.31C44.2491 194.2 42.6791 194.29 41.2391 194.79L39.9991 191.76L38.7491 191.39L39.0591 192.15L37.7691 192.68L39.0291 195.76C34.9391 197.91 33.9191 201.17 35.0491 203.95C36.5991 207.74 40.2491 207.4 43.5791 206.89L45.8091 212.35C43.6591 213.01 41.2891 213.05 39.4991 212.51L39.3991 215.77C41.3191 216.42 44.2691 216.23 47.0091 215.3L47.9491 217.59L46.8891 218.04L48.2491 218.33L50.4891 217.41L49.2391 214.35C53.3491 212.16 54.4091 208.92 53.2691 206.14C51.7191 202.35 48.0191 202.74 44.6891 203.25V203.26ZM42.2191 203.6C40.4491 203.78 39.0291 203.66 38.4891 202.35C37.9991 201.15 38.4191 199.83 40.2291 198.74L42.2191 203.6ZM48.0291 211.38L46.0491 206.55C47.8791 206.34 49.3291 206.48 49.8791 207.82C50.3591 208.99 49.8891 210.27 48.0291 211.38Z" fill="#0E97AB"/>
<g opacity="0.3">
<path d="M44.6891 203.26L42.4391 197.75C42.4391 197.75 42.4591 197.75 42.4691 197.74C43.4691 197.46 44.5691 197.31 45.7091 197.3C46.6991 197.39 47.4391 197.6 47.4391 197.6V197.4L47.4791 195.07V194.53L46.0891 193.9L45.6991 194.31C44.2491 194.2 42.6791 194.29 41.2391 194.79L39.9991 191.76L38.7491 191.39L39.0591 192.15L37.7691 192.68L39.0291 195.76C34.9391 197.91 33.9191 201.17 35.0491 203.95C36.5991 207.74 40.2491 207.4 43.5791 206.89L45.8091 212.35C43.6591 213.01 41.2891 213.05 39.4991 212.51L39.3991 215.77C41.3191 216.42 44.2691 216.23 47.0091 215.3L47.9491 217.59L46.8891 218.04L48.2491 218.33L50.4891 217.41L49.2391 214.35C53.3491 212.16 54.4091 208.92 53.2691 206.14C51.7191 202.35 48.0191 202.74 44.6891 203.25V203.26ZM42.2191 203.6C40.4491 203.78 39.0291 203.66 38.4891 202.35C37.9991 201.15 38.4191 199.83 40.2291 198.74L42.2191 203.6ZM48.0291 211.38L46.0491 206.55C47.8791 206.34 49.3291 206.48 49.8791 207.82C50.3591 208.99 49.8891 210.27 48.0291 211.38Z" fill="black"/>
</g>
<path d="M48.009 214L49.259 217.06L47.019 217.98L45.779 214.95C43.039 215.88 40.089 216.07 38.169 215.42L38.269 212.16C40.049 212.7 42.419 212.66 44.579 212L42.349 206.54C39.019 207.04 35.369 207.39 33.819 203.6C32.679 200.82 33.709 197.56 37.799 195.41L36.539 192.33L38.779 191.41L40.019 194.44C42.079 193.72 44.379 193.49 46.239 193.84V197.05C44.459 196.8 42.739 196.96 41.219 197.39L43.479 202.9C46.809 202.4 50.499 202 52.059 205.79C53.199 208.57 52.139 211.81 48.029 214H48.009ZM40.989 203.24L38.999 198.38C37.189 199.47 36.769 200.79 37.259 201.99C37.799 203.3 39.219 203.42 40.989 203.24ZM48.649 207.47C48.099 206.13 46.639 206 44.819 206.2L46.799 211.03C48.669 209.91 49.139 208.64 48.659 207.47H48.649Z" fill="#0E97AB"/>
<path d="M36.5998 205.11C36.5998 205.11 36.2198 205.06 35.7098 204.74C35.1998 204.42 34.5798 203.81 34.2498 202.93C33.9298 202.05 33.9998 201.17 34.1798 200.6C34.3598 200.02 34.5998 199.73 34.6198 199.74C34.6598 199.76 34.4698 200.08 34.3398 200.64C34.2098 201.2 34.1598 202.02 34.4598 202.85C34.7598 203.67 35.3298 204.27 35.7998 204.61C36.2698 204.95 36.6098 205.08 36.5998 205.11Z" fill="white"/>
<path d="M38.06 194.76C38 194.78 37.79 194.4 37.59 193.91C37.39 193.41 37.27 192.99 37.33 192.97C37.39 192.95 37.5999 193.33 37.7999 193.82C37.9999 194.32 38.12 194.74 38.06 194.76Z" fill="white"/>
<path d="M36.1306 181.75C36.1306 181.75 35.8806 181.86 35.4206 182.01C35.1906 182.08 34.9106 182.18 34.5806 182.3C34.2606 182.42 33.8806 182.55 33.4906 182.73C33.0906 182.9 32.6506 183.09 32.2006 183.32C31.7406 183.53 31.2606 183.81 30.7606 184.08C29.7706 184.66 28.7206 185.36 27.6806 186.19C26.6506 187.02 25.7406 187.9 24.9606 188.74C24.5806 189.17 24.2106 189.57 23.9006 189.98C23.5706 190.37 23.3006 190.76 23.0406 191.11C22.7806 191.46 22.5806 191.79 22.3806 192.08C22.1906 192.37 22.0306 192.62 21.9106 192.83C21.6606 193.25 21.5206 193.48 21.5006 193.47C21.4906 193.47 21.6006 193.22 21.8306 192.79C21.9406 192.57 22.0806 192.31 22.2706 192.01C22.4506 191.71 22.6506 191.37 22.9006 191.01C23.1406 190.65 23.4206 190.25 23.7406 189.85C24.0506 189.43 24.4106 189.02 24.7906 188.58C25.5706 187.72 26.4806 186.83 27.5206 185.99C28.5706 185.16 29.6306 184.46 30.6406 183.88C31.1506 183.61 31.6306 183.34 32.1006 183.13C32.5606 182.9 33.0106 182.72 33.4106 182.56C33.8106 182.39 34.1906 182.27 34.5206 182.16C34.8506 182.04 35.1406 181.96 35.3706 181.9C35.8406 181.77 36.1006 181.71 36.1106 181.73L36.1306 181.75Z" fill="white"/>
<path d="M425.56 115.71C430.64 128.13 424.7 142.32 412.28 147.4C399.86 152.48 385.67 146.54 380.58 134.12C375.5 121.7 381.44 107.51 393.86 102.43C406.28 97.35 420.47 103.29 425.55 115.71H425.56Z" fill="#0E97AB"/>
<g opacity="0.1">
<path d="M393.87 102.43C381.45 107.51 375.5 121.7 380.59 134.12C380.59 134.12 396.68 128.36 397.88 120.44C399.08 112.52 393.87 102.43 393.87 102.43Z" fill="white"/>
</g>
<path d="M419.67 117.71C423.54 127.15 419.02 137.94 409.57 141.8C400.13 145.67 389.34 141.14 385.48 131.7C381.61 122.26 386.13 111.47 395.58 107.61C405.02 103.74 415.81 108.27 419.67 117.71Z" fill="#0E97AB"/>
<g opacity="0.2">
<path d="M419.67 117.71C423.54 127.15 419.02 137.94 409.57 141.8C400.13 145.67 389.34 141.14 385.48 131.7C381.61 122.26 386.13 111.47 395.58 107.61C405.02 103.74 415.81 108.27 419.67 117.71Z" fill="black"/>
</g>
<path d="M420.439 118.22C424.249 127.54 419.789 138.18 410.479 141.99C401.159 145.8 390.519 141.34 386.709 132.03C382.899 122.71 387.359 112.07 396.669 108.26C405.989 104.45 416.629 108.91 420.439 118.22Z" fill="#0E97AB"/>
<g opacity="0.2">
<path d="M420.439 118.22C424.249 127.54 419.789 138.18 410.479 141.99C401.159 145.8 390.519 141.34 386.709 132.03C382.899 122.71 387.359 112.07 396.669 108.26C405.989 104.45 416.629 108.91 420.439 118.22Z" fill="white"/>
</g>
<path d="M403.65 123.39L401.88 119.07C401.88 119.07 401.89 119.07 401.9 119.07C402.68 118.85 403.54 118.73 404.44 118.73C405.22 118.8 405.79 118.97 405.79 118.97V118.81L405.82 116.98V116.56L404.73 116.07L404.43 116.39C403.29 116.3 402.07 116.37 400.93 116.77L399.96 114.4L398.98 114.11L399.22 114.71L398.21 115.13L399.2 117.55C396 119.24 395.19 121.79 396.09 123.97C397.31 126.94 400.17 126.67 402.78 126.28L404.53 130.56C402.84 131.08 400.99 131.11 399.59 130.69L399.51 133.24C401.02 133.75 403.33 133.6 405.47 132.87L406.2 134.66L405.37 135.02L406.44 135.25L408.19 134.53L407.21 132.14C410.43 130.42 411.26 127.89 410.37 125.71C409.15 122.74 406.26 123.05 403.65 123.44V123.39ZM401.71 123.66C400.32 123.8 399.21 123.71 398.79 122.68C398.41 121.74 398.73 120.71 400.15 119.85L401.71 123.66ZM406.26 129.76L404.71 125.98C406.14 125.82 407.28 125.92 407.71 126.97C408.09 127.89 407.72 128.89 406.26 129.76Z" fill="#0E97AB"/>
<g opacity="0.3">
<path d="M403.65 123.39L401.88 119.07C401.88 119.07 401.89 119.07 401.9 119.07C402.68 118.85 403.54 118.73 404.44 118.73C405.22 118.8 405.79 118.97 405.79 118.97V118.81L405.82 116.98V116.56L404.73 116.07L404.43 116.39C403.29 116.3 402.07 116.37 400.93 116.77L399.96 114.4L398.98 114.11L399.22 114.71L398.21 115.13L399.2 117.55C396 119.24 395.19 121.79 396.09 123.97C397.31 126.94 400.17 126.67 402.78 126.28L404.53 130.56C402.84 131.08 400.99 131.11 399.59 130.69L399.51 133.24C401.02 133.75 403.33 133.6 405.47 132.87L406.2 134.66L405.37 135.02L406.44 135.25L408.19 134.53L407.21 132.14C410.43 130.42 411.26 127.89 410.37 125.71C409.15 122.74 406.26 123.05 403.65 123.44V123.39ZM401.71 123.66C400.32 123.8 399.21 123.71 398.79 122.68C398.41 121.74 398.73 120.71 400.15 119.85L401.71 123.66ZM406.26 129.76L404.71 125.98C406.14 125.82 407.28 125.92 407.71 126.97C408.09 127.89 407.72 128.89 406.26 129.76Z" fill="black"/>
</g>
<path d="M406.251 131.8L407.231 134.2L405.481 134.92L404.511 132.55C402.361 133.28 400.051 133.43 398.541 132.92L398.621 130.37C400.021 130.8 401.881 130.76 403.561 130.24L401.811 125.96C399.201 126.35 396.341 126.63 395.121 123.65C394.231 121.47 395.031 118.92 398.231 117.23L397.241 114.81L398.991 114.09L399.961 116.46C401.581 115.9 403.371 115.71 404.841 115.99V118.51C403.441 118.31 402.101 118.44 400.911 118.77L402.681 123.09C405.291 122.7 408.181 122.38 409.401 125.36C410.291 127.54 409.461 130.08 406.241 131.8H406.251ZM400.751 123.37L399.191 119.56C397.771 120.42 397.441 121.45 397.831 122.39C398.251 123.42 399.361 123.51 400.751 123.37ZM406.751 126.68C406.321 125.63 405.181 125.53 403.751 125.69L405.301 129.47C406.761 128.6 407.131 127.6 406.751 126.68Z" fill="#0E97AB"/>
<path d="M397.31 124.84C397.31 124.84 397.01 124.8 396.61 124.55C396.21 124.3 395.72 123.82 395.47 123.13C395.22 122.44 395.28 121.75 395.42 121.31C395.56 120.86 395.75 120.63 395.76 120.64C395.79 120.65 395.64 120.9 395.54 121.35C395.44 121.79 395.4 122.43 395.64 123.08C395.88 123.72 396.32 124.19 396.69 124.46C397.05 124.73 397.33 124.83 397.32 124.86L397.31 124.84Z" fill="white"/>
<path d="M398.449 116.73C398.449 116.73 398.239 116.45 398.079 116.06C397.919 115.67 397.829 115.34 397.879 115.32C397.929 115.3 398.089 115.6 398.249 115.99C398.409 116.38 398.499 116.71 398.449 116.73Z" fill="white"/>
<path d="M396.941 106.54C396.941 106.54 396.741 106.62 396.381 106.74C396.201 106.8 395.981 106.87 395.731 106.97C395.481 107.07 395.191 107.17 394.881 107.31C394.571 107.44 394.221 107.59 393.871 107.77C393.511 107.94 393.141 108.15 392.741 108.37C391.961 108.83 391.141 109.37 390.331 110.02C389.521 110.67 388.811 111.36 388.201 112.02C387.901 112.36 387.611 112.67 387.371 112.99C387.111 113.3 386.901 113.6 386.701 113.88C386.491 114.15 386.341 114.42 386.191 114.64C386.041 114.86 385.921 115.06 385.821 115.23C385.631 115.56 385.511 115.74 385.501 115.73C385.491 115.73 385.581 115.53 385.761 115.19C385.851 115.02 385.961 114.81 386.101 114.58C386.241 114.35 386.391 114.08 386.591 113.8C386.781 113.52 386.991 113.21 387.251 112.89C387.491 112.56 387.781 112.24 388.071 111.9C388.681 111.23 389.401 110.53 390.211 109.87C391.031 109.22 391.871 108.67 392.651 108.22C393.051 108 393.431 107.79 393.791 107.63C394.151 107.45 394.501 107.31 394.821 107.18C395.141 107.04 395.431 106.95 395.691 106.87C395.951 106.78 396.171 106.71 396.361 106.67C396.731 106.57 396.941 106.52 396.941 106.53V106.54Z" fill="white"/>
<path d="M424.62 220.09C421.82 236.99 405.85 248.42 388.95 245.62C372.05 242.82 360.62 226.85 363.42 209.95C366.22 193.05 382.19 181.62 399.09 184.42C415.99 187.22 427.42 203.19 424.62 220.09Z" fill="#0E97AB"/>
<g opacity="0.1">
<path d="M399.09 184.42C382.19 181.62 366.22 193.05 363.42 209.95C363.42 209.95 384.76 214.47 391.37 206.67C397.98 198.87 399.09 184.42 399.09 184.42Z" fill="white"/>
</g>
<path d="M416.88 218.31C414.75 231.16 402.61 239.85 389.77 237.72C376.92 235.59 368.23 223.45 370.36 210.61C372.49 197.76 384.63 189.07 397.47 191.2C410.32 193.33 419.01 205.47 416.88 218.31Z" fill="#0E97AB"/>
<g opacity="0.2">
<path d="M416.88 218.31C414.75 231.16 402.61 239.85 389.77 237.72C376.92 235.59 368.23 223.45 370.36 210.61C372.49 197.76 384.63 189.07 397.47 191.2C410.32 193.33 419.01 205.47 416.88 218.31Z" fill="black"/>
</g>
<path d="M417.381 219.39C415.281 232.06 403.301 240.64 390.631 238.54C377.951 236.44 369.381 224.46 371.481 211.79C373.581 199.12 385.561 190.54 398.231 192.64C410.901 194.74 419.481 206.72 417.381 219.39Z" fill="#0E97AB"/>
<g opacity="0.2">
<path d="M417.381 219.39C415.281 232.06 403.301 240.64 390.631 238.54C377.951 236.44 369.381 224.46 371.481 211.79C373.581 199.12 385.561 190.54 398.231 192.64C410.901 194.74 419.481 206.72 417.381 219.39Z" fill="white"/>
</g>
<path d="M395.671 213.75L396.641 207.88C396.641 207.88 396.661 207.88 396.671 207.88C397.671 208.17 398.681 208.61 399.661 209.21C400.461 209.81 400.971 210.37 400.971 210.37L401.081 210.2L402.341 208.24L402.631 207.79L401.771 206.52L401.231 206.66C400.051 205.81 398.671 205.06 397.181 204.73L397.711 201.5L396.841 200.52L396.711 201.33L395.331 201.1L394.791 204.39C390.181 204.07 387.601 206.31 387.111 209.27C386.441 213.31 389.731 214.93 392.831 216.25L391.871 222.07C389.691 221.5 387.651 220.3 386.421 218.9L384.621 221.62C385.921 223.18 388.521 224.57 391.351 225.22L390.951 227.66L389.811 227.49L390.821 228.45L393.211 228.85L393.751 225.59C398.391 225.88 401.001 223.68 401.491 220.72C402.161 216.68 398.811 215.08 395.711 213.76L395.671 213.75ZM393.391 212.74C391.781 211.97 390.641 211.12 390.871 209.72C391.081 208.44 392.131 207.54 394.251 207.56L393.391 212.74ZM394.241 222.41L395.091 217.26C396.751 218.04 397.921 218.92 397.691 220.35C397.481 221.6 396.421 222.44 394.241 222.41Z" fill="#0E97AB"/>
<g opacity="0.3">
<path d="M395.671 213.75L396.641 207.88C396.641 207.88 396.661 207.88 396.671 207.88C397.671 208.17 398.681 208.61 399.661 209.21C400.461 209.81 400.971 210.37 400.971 210.37L401.081 210.2L402.341 208.24L402.631 207.79L401.771 206.52L401.231 206.66C400.051 205.81 398.671 205.06 397.181 204.73L397.711 201.5L396.841 200.52L396.711 201.33L395.331 201.1L394.791 204.39C390.181 204.07 387.601 206.31 387.111 209.27C386.441 213.31 389.731 214.93 392.831 216.25L391.871 222.07C389.691 221.5 387.651 220.3 386.421 218.9L384.621 221.62C385.921 223.18 388.521 224.57 391.351 225.22L390.951 227.66L389.811 227.49L390.821 228.45L393.211 228.85L393.751 225.59C398.391 225.88 401.001 223.68 401.491 220.72C402.161 216.68 398.811 215.08 395.711 213.76L395.671 213.75ZM393.391 212.74C391.781 211.97 390.641 211.12 390.871 209.72C391.081 208.44 392.131 207.54 394.251 207.56L393.391 212.74ZM394.241 222.41L395.091 217.26C396.751 218.04 397.921 218.92 397.691 220.35C397.481 221.6 396.421 222.44 394.241 222.41Z" fill="black"/>
</g>
<path d="M392.851 224.63L392.311 227.89L389.921 227.49L390.451 224.26C387.631 223.61 385.021 222.22 383.721 220.66L385.521 217.94C386.751 219.34 388.801 220.54 390.971 221.11L391.931 215.29C388.831 213.97 385.541 212.35 386.211 208.3C386.701 205.33 389.281 203.1 393.891 203.41L394.431 200.12L396.821 200.52L396.291 203.75C398.421 204.22 400.501 205.22 401.901 206.5L400.221 209.24C398.831 208.08 397.281 207.32 395.771 206.89L394.801 212.77C397.901 214.09 401.251 215.69 400.581 219.74C400.091 222.71 397.481 224.91 392.841 224.62L392.851 224.63ZM392.531 211.78L393.391 206.6C391.271 206.58 390.231 207.48 390.011 208.76C389.781 210.16 390.921 211 392.531 211.78ZM396.831 219.4C397.071 217.97 395.901 217.09 394.231 216.31L393.381 221.46C395.561 221.49 396.621 220.65 396.831 219.4Z" fill="#0E97AB"/>
<path d="M387.82 211.08C387.82 211.08 387.52 210.84 387.26 210.3C387 209.76 386.79 208.91 386.97 207.99C387.16 207.07 387.68 206.36 388.14 205.97C388.6 205.57 388.96 205.45 388.96 205.47C388.98 205.5 388.65 205.68 388.25 206.09C387.84 206.49 387.37 207.17 387.2 208.03C387.03 208.89 387.2 209.7 387.41 210.23C387.63 210.77 387.86 211.05 387.82 211.08Z" fill="white"/>
<path d="M394.49 203.03C394.43 203.02 394.45 202.58 394.53 202.05C394.62 201.52 394.74 201.1 394.8 201.11C394.86 201.12 394.84 201.56 394.76 202.09C394.67 202.62 394.55 203.04 394.49 203.03Z" fill="white"/>
<path d="M399.67 190.94C399.67 190.94 399.4 190.9 398.93 190.79C398.69 190.73 398.4 190.66 398.06 190.6C397.72 190.54 397.34 190.45 396.91 190.39C396.48 190.32 396.01 190.25 395.5 190.22C394.99 190.16 394.45 190.14 393.87 190.12C392.72 190.1 391.46 190.14 390.14 190.3C388.83 190.47 387.59 190.74 386.48 191.04C385.93 191.21 385.41 191.36 384.93 191.54C384.45 191.7 384.01 191.89 383.61 192.06C383.2 192.22 382.86 192.4 382.54 192.54C382.22 192.68 381.96 192.82 381.75 192.94C381.32 193.17 381.08 193.28 381.07 193.27C381.07 193.26 381.29 193.11 381.71 192.86C381.92 192.73 382.18 192.58 382.49 192.43C382.8 192.27 383.15 192.08 383.55 191.91C383.95 191.73 384.39 191.54 384.87 191.36C385.35 191.17 385.88 191.01 386.43 190.83C387.54 190.51 388.79 190.23 390.12 190.06C391.45 189.9 392.72 189.86 393.88 189.9C394.46 189.93 395.01 189.96 395.52 190.03C396.03 190.08 396.51 190.16 396.94 190.23C397.37 190.29 397.76 190.4 398.1 190.47C398.44 190.54 398.73 190.62 398.96 190.7C399.43 190.84 399.68 190.92 399.68 190.94H399.67Z" fill="white"/>
<path d="M236.031 20.16H89.9812C87.3413 20.16 85.2012 22.3001 85.2012 24.94V226.91C85.2012 229.55 87.3413 231.69 89.9812 231.69H236.031C238.671 231.69 240.811 229.55 240.811 226.91V24.94C240.811 22.3001 238.671 20.16 236.031 20.16Z" fill="white"/>
<path d="M236.031 231.69C236.031 231.69 236.691 231.76 237.851 231.3C238.421 231.07 239.081 230.64 239.671 229.94C240.241 229.24 240.731 228.24 240.751 227.03C240.751 222.19 240.731 215.06 240.711 205.88C240.691 187.5 240.661 160.92 240.631 128.08C240.631 111.66 240.611 93.67 240.601 74.35C240.601 64.69 240.601 54.71 240.591 44.42C240.591 39.28 240.591 34.06 240.591 28.77C240.591 27.45 240.591 26.13 240.591 24.8C240.561 23.53 239.961 22.29 238.981 21.47C238.501 21.06 237.921 20.75 237.301 20.58C236.681 20.39 236.051 20.4 235.361 20.4C234.011 20.4 232.661 20.4 231.301 20.4C187.871 20.4 140.121 20.41 90.0107 20.42C88.5207 20.41 87.0707 21.18 86.2407 22.42C85.8307 23.04 85.5707 23.75 85.5007 24.48C85.4507 25.21 85.4907 26.02 85.4807 26.79C85.4807 29.9 85.4807 33.01 85.4807 36.1C85.4807 42.29 85.4807 48.44 85.4807 54.54C85.4807 66.75 85.4807 78.77 85.4807 90.59C85.4807 114.23 85.4707 137.02 85.4607 158.74C85.4607 180.46 85.4407 201.1 85.4407 220.41C85.4407 221.62 85.4407 222.82 85.4407 224.02V225.81C85.4407 226.41 85.4107 227.01 85.4907 227.56C85.6407 228.68 86.2407 229.73 87.1107 230.44C87.9807 231.16 89.1007 231.51 90.2407 231.47C94.9007 231.47 99.4707 231.47 103.951 231.47C112.911 231.47 121.521 231.48 129.731 231.49C162.571 231.52 189.151 231.55 207.531 231.57C216.711 231.59 223.841 231.61 228.681 231.62C231.091 231.63 232.931 231.64 234.181 231.65C235.421 231.65 236.051 231.68 236.051 231.68C236.051 231.68 235.421 231.7 234.181 231.71C232.931 231.71 231.091 231.72 228.681 231.74C223.841 231.75 216.711 231.77 207.531 231.79C189.151 231.81 162.581 231.84 129.731 231.87C121.521 231.87 112.911 231.88 103.951 231.89C99.4707 231.89 94.8907 231.89 90.2407 231.89C89.0507 231.93 87.7907 231.56 86.8507 230.77C85.9007 229.99 85.2407 228.85 85.0707 227.62C84.9807 227 85.0207 226.4 85.0107 225.81V224.02C85.0107 222.82 85.0107 221.62 85.0107 220.41C85.0107 201.1 84.9907 180.46 84.9907 158.74C84.9907 137.02 84.9907 114.22 84.9707 90.59C84.9707 78.77 84.9707 66.74 84.9707 54.54C84.9707 48.44 84.9707 42.29 84.9707 36.1C84.9707 33.01 84.9707 29.9 84.9707 26.79C84.9807 26 84.9407 25.26 85.0007 24.43C85.0907 23.61 85.3807 22.82 85.8307 22.13C86.7507 20.75 88.3707 19.89 90.0307 19.9C140.151 19.9 187.891 19.91 231.321 19.92C232.681 19.92 234.031 19.92 235.381 19.92C236.041 19.92 236.771 19.92 237.451 20.12C238.131 20.31 238.771 20.65 239.301 21.11C240.381 22.02 241.041 23.39 241.071 24.79C241.071 26.12 241.071 27.45 241.071 28.78C241.071 34.07 241.071 39.29 241.071 44.43C241.071 54.72 241.071 64.7 241.061 74.36C241.051 93.67 241.041 111.66 241.031 128.09C241.001 160.93 240.971 187.51 240.951 205.89C240.931 215.07 240.911 222.2 240.891 227.05C240.871 228.28 240.351 229.3 239.771 230.01C239.161 230.71 238.491 231.14 237.911 231.37C237.331 231.61 236.861 231.66 236.551 231.7C236.241 231.71 236.081 231.71 236.081 231.71L236.031 231.69Z" fill="#263238"/>
<path d="M225.601 41.11H101.471V44.93H225.601V41.11Z" fill="#E0E0E0"/>
<path d="M225.601 54.02H101.471V57.84H225.601V54.02Z" fill="#F5F5F5"/>
<path d="M225.721 63.67H100.971V67.49H225.721V63.67Z" fill="#E0E0E0"/>
<path d="M225.721 70.88H100.971V74.7H225.721V70.88Z" fill="#F5F5F5"/>
<path d="M225.721 90.23H100.971V94.05H225.721V90.23Z" fill="#E0E0E0"/>
<path d="M225.721 186.01H100.971V189.83H225.721V186.01Z" fill="#E0E0E0"/>
<path d="M225.721 216.42H100.971V220.24H225.721V216.42Z" fill="#E0E0E0"/>
<path d="M139.921 209.92H100.971V213.74H139.921V209.92Z" fill="#E0E0E0"/>
<path d="M167.251 209.92H146.441V213.74H167.251V209.92Z" fill="#E0E0E0"/>
<path d="M225.381 209.92H175.021V213.74H225.381V209.92Z" fill="#E0E0E0"/>
<path d="M225.381 193.14H100.631V196.96H225.381V193.14Z" fill="#F5F5F5"/>
<path d="M225.271 200.71H100.521V204.53H225.271V200.71Z" fill="#F5F5F5"/>
<path d="M224.61 101.57H123.16V105.39H224.61V101.57Z" fill="#F5F5F5"/>
<path d="M225.87 47.67H101.74V51.49H225.87V47.67Z" fill="#F5F5F5"/>
<path d="M139.581 80.88H100.971V86.17H139.581V80.88Z" fill="#0E97AB"/>
<path d="M100.64 30.31C100.64 31.62 99.5804 32.68 98.2704 32.68C96.9604 32.68 95.9004 31.62 95.9004 30.31C95.9004 29 96.9604 27.94 98.2704 27.94C99.5804 27.94 100.64 29 100.64 30.31Z" fill="#E0E0E0"/>
<path d="M106.75 30.31C106.75 31.62 105.69 32.68 104.38 32.68C103.07 32.68 102.01 31.62 102.01 30.31C102.01 29 103.07 27.94 104.38 27.94C105.69 27.94 106.75 29 106.75 30.31Z" fill="#E0E0E0"/>
<path d="M112.851 30.31C112.851 31.62 111.791 32.68 110.481 32.68C109.171 32.68 108.111 31.62 108.111 30.31C108.111 29 109.171 27.94 110.481 27.94C111.791 27.94 112.851 29 112.851 30.31Z" fill="#E0E0E0"/>
<path d="M107.49 100.54H101.25V106.42H107.49V100.54Z" fill="#E0E0E0"/>
<path d="M224.61 110.16H123.16V113.98H224.61V110.16Z" fill="#F5F5F5"/>
<path d="M107.49 109.13H101.25V115.01H107.49V109.13Z" fill="#E0E0E0"/>
<path d="M224.61 118.76H123.16V122.58H224.61V118.76Z" fill="#F5F5F5"/>
<path d="M107.49 117.73H101.25V123.61H107.49V117.73Z" fill="#E0E0E0"/>
<path d="M224.61 127.35H123.16V131.17H224.61V127.35Z" fill="#F5F5F5"/>
<path d="M107.49 126.32H101.25V132.2H107.49V126.32Z" fill="#E0E0E0"/>
<path d="M224.54 138.18H101.25V179.72H224.54V138.18Z" fill="#F5F5F5"/>
<path d="M224.54 138.18H101.25V147.75H224.54V138.18Z" fill="#EBEBEB"/>
<path d="M224.541 147.75C224.541 147.89 196.991 148.01 163.001 148.01C129.011 148.01 101.461 147.89 101.461 147.75C101.461 147.61 129.011 147.49 163.001 147.49C196.991 147.49 224.541 147.61 224.541 147.75Z" fill="#E0E0E0"/>
<path d="M224.541 158.95C224.541 159.09 196.991 159.21 163.001 159.21C129.011 159.21 101.461 159.09 101.461 158.95C101.461 158.81 129.011 158.69 163.001 158.69C196.991 158.69 224.541 158.81 224.541 158.95Z" fill="#E0E0E0"/>
<path d="M224.541 170.16C224.541 170.3 196.991 170.42 163.001 170.42C129.011 170.42 101.461 170.3 101.461 170.16C101.461 170.02 129.011 169.9 163.001 169.9C196.991 169.9 224.541 170.02 224.541 170.16Z" fill="#E0E0E0"/>
<path d="M125.34 179.44C125.2 179.44 125.08 170.33 125.08 159.1C125.08 147.87 125.2 138.76 125.34 138.76C125.48 138.76 125.6 147.86 125.6 159.1C125.6 170.34 125.48 179.44 125.34 179.44Z" fill="#E0E0E0"/>
<path d="M207.301 179.44C207.161 179.44 207.041 170.33 207.041 159.1C207.041 147.87 207.161 138.76 207.301 138.76C207.441 138.76 207.561 147.86 207.561 159.1C207.561 170.34 207.441 179.44 207.301 179.44Z" fill="#E0E0E0"/>
<path d="M179.241 151.76H131.691V155.3H179.241V151.76Z" fill="#E0E0E0"/>
<path d="M179.241 162.59H131.691V166.13H179.241V162.59Z" fill="#E0E0E0"/>
<path d="M115.14 162.49H105.91V166.03H115.14V162.49Z" fill="#E0E0E0"/>
<path d="M114.81 151.76H105.58V155.3H114.81V151.76Z" fill="#E0E0E0"/>
<path d="M220.481 151.76H211.801V155.3H220.481V151.76Z" fill="#E0E0E0"/>
<path d="M220.481 162.68H211.801V166.22H220.481V162.68Z" fill="#E0E0E0"/>
<path d="M205.471 68.28H59.4206C56.7807 68.28 54.6406 70.42 54.6406 73.06V275.03C54.6406 277.67 56.7807 279.81 59.4206 279.81H205.471C208.111 279.81 210.251 277.67 210.251 275.03V73.06C210.251 70.42 208.111 68.28 205.471 68.28Z" fill="white"/>
<path d="M205.47 279.81C205.47 279.81 206.13 279.88 207.29 279.42C207.86 279.19 208.52 278.76 209.11 278.06C209.68 277.36 210.17 276.36 210.19 275.15C210.19 270.31 210.17 263.18 210.15 254C210.13 235.62 210.1 209.04 210.07 176.2C210.07 159.78 210.05 141.79 210.04 122.47C210.04 112.81 210.04 102.83 210.03 92.54C210.03 87.4 210.03 82.18 210.03 76.89C210.03 75.57 210.03 74.25 210.03 72.92C210 71.65 209.4 70.41 208.42 69.59C207.94 69.18 207.36 68.87 206.74 68.7C206.12 68.51 205.49 68.52 204.8 68.52C203.45 68.52 202.1 68.52 200.74 68.52C157.31 68.52 109.56 68.53 59.4502 68.54C57.9602 68.53 56.5102 69.3 55.6802 70.54C55.2702 71.16 55.0102 71.87 54.9402 72.6C54.8902 73.33 54.9302 74.14 54.9202 74.91C54.9202 78.02 54.9202 81.13 54.9202 84.22C54.9202 90.41 54.9202 96.56 54.9202 102.66C54.9202 114.87 54.9202 126.89 54.9202 138.71C54.9202 162.35 54.9102 185.14 54.9002 206.86C54.9002 228.58 54.8802 249.22 54.8802 268.53C54.8802 269.74 54.8802 270.94 54.8802 272.14V273.93C54.8802 274.53 54.8502 275.13 54.9302 275.68C55.0802 276.8 55.6802 277.85 56.5502 278.56C57.4202 279.28 58.5402 279.63 59.6802 279.59C64.3402 279.59 68.9102 279.59 73.3902 279.59C82.3502 279.59 90.9602 279.6 99.1702 279.61C132.01 279.64 158.59 279.67 176.97 279.69C186.15 279.71 193.28 279.73 198.12 279.74C200.53 279.75 202.37 279.76 203.62 279.77C204.86 279.77 205.49 279.8 205.49 279.8C205.49 279.8 204.86 279.82 203.62 279.83C202.37 279.83 200.53 279.84 198.12 279.86C193.28 279.87 186.15 279.89 176.97 279.91C158.59 279.93 132.02 279.96 99.1702 279.99C90.9602 279.99 82.3502 280 73.3902 280.01C68.9102 280.01 64.3302 280.01 59.6802 280.01C58.4902 280.05 57.2302 279.68 56.2902 278.89C55.3402 278.11 54.6802 276.97 54.5102 275.74C54.4202 275.12 54.4602 274.52 54.4502 273.93V272.14C54.4502 270.94 54.4502 269.74 54.4502 268.53C54.4502 249.22 54.4302 228.58 54.4302 206.86C54.4302 185.14 54.4302 162.34 54.4102 138.71C54.4102 126.89 54.4102 114.86 54.4102 102.66C54.4102 96.56 54.4102 90.41 54.4102 84.22C54.4102 81.13 54.4102 78.02 54.4102 74.91C54.4202 74.12 54.3802 73.38 54.4402 72.55C54.5302 71.73 54.8202 70.94 55.2702 70.25C56.1902 68.87 57.8102 68.01 59.4702 68.02C109.59 68.02 157.33 68.03 200.76 68.04C202.12 68.04 203.47 68.04 204.82 68.04C205.48 68.04 206.21 68.04 206.89 68.24C207.57 68.43 208.21 68.77 208.74 69.23C209.82 70.14 210.48 71.51 210.51 72.91C210.51 74.24 210.51 75.57 210.51 76.9C210.51 82.19 210.51 87.41 210.51 92.55C210.51 102.84 210.51 112.82 210.5 122.48C210.49 141.79 210.48 159.78 210.47 176.21C210.44 209.05 210.41 235.63 210.39 254.01C210.37 263.19 210.35 270.32 210.34 275.17C210.32 276.4 209.8 277.42 209.22 278.13C208.61 278.83 207.94 279.26 207.36 279.49C206.78 279.73 206.31 279.78 206 279.82C205.69 279.83 205.53 279.83 205.53 279.83L205.47 279.81Z" fill="#263238"/>
<path d="M195.161 89.23H129.561V93.05H195.161V89.23Z" fill="#E0E0E0"/>
<path d="M195.161 102.14H129.561V105.96H195.161V102.14Z" fill="#F5F5F5"/>
<path d="M195.16 111.79H70.4102V115.61H195.16V111.79Z" fill="#E0E0E0"/>
<path d="M195.16 119H70.4102V122.82H195.16V119Z" fill="#F5F5F5"/>
<path d="M195.16 138.35H70.4102V142.17H195.16V138.35Z" fill="#E0E0E0"/>
<path d="M195.16 234.13H70.4102V237.95H195.16V234.13Z" fill="#E0E0E0"/>
<path d="M195.16 264.54H70.4102V268.36H195.16V264.54Z" fill="#E0E0E0"/>
<path d="M109.36 258.05H70.4102V261.87H109.36V258.05Z" fill="#E0E0E0"/>
<path d="M136.691 258.05H115.881V261.87H136.691V258.05Z" fill="#E0E0E0"/>
<path d="M194.809 258.05H144.449V261.87H194.809V258.05Z" fill="#E0E0E0"/>
<path d="M194.82 241.26H70.0703V245.08H194.82V241.26Z" fill="#F5F5F5"/>
<path d="M194.711 248.83H69.9609V252.65H194.711V248.83Z" fill="#F5F5F5"/>
<path d="M194.05 149.69H92.5996V153.51H194.05V149.69Z" fill="#F5F5F5"/>
<path d="M195.311 95.79H129.711V99.61H195.311V95.79Z" fill="#F5F5F5"/>
<path d="M109.02 129H70.4102V134.29H109.02V129Z" fill="#0E97AB"/>
<path d="M73.6708 93.27H68.8008V89.92H83.0008V93.27H78.1508V104.84H73.6708V93.27Z" fill="#0E97AB"/>
<path d="M94.5005 101.95H87.8005L86.5505 104.85H81.9805L88.9805 89.93H93.4005L100.42 104.85H95.7605L94.5105 101.95H94.5005ZM93.1905 98.84L91.1505 94.07L89.1105 98.84H93.1905Z" fill="#0E97AB"/>
<path d="M110.831 104.85L107.551 100.22L104.311 104.85H99.1914L104.961 97.3L99.4314 89.92H104.481L107.651 94.23L110.771 89.92H115.621L110.101 97.12L115.991 104.84H110.831V104.85Z" fill="#0E97AB"/>
<path d="M70.0701 78.43C70.0701 79.74 69.0101 80.8 67.7001 80.8C66.3901 80.8 65.3301 79.74 65.3301 78.43C65.3301 77.12 66.3901 76.06 67.7001 76.06C69.0101 76.06 70.0701 77.12 70.0701 78.43Z" fill="#E0E0E0"/>
<path d="M76.1795 78.43C76.1795 79.74 75.1194 80.8 73.8094 80.8C72.4994 80.8 71.4395 79.74 71.4395 78.43C71.4395 77.12 72.4994 76.06 73.8094 76.06C75.1194 76.06 76.1795 77.12 76.1795 78.43Z" fill="#E0E0E0"/>
<path d="M82.2908 78.43C82.2908 79.74 81.2308 80.8 79.9208 80.8C78.6108 80.8 77.5508 79.74 77.5508 78.43C77.5508 77.12 78.6108 76.06 79.9208 76.06C81.2308 76.06 82.2908 77.12 82.2908 78.43Z" fill="#E0E0E0"/>
<path d="M76.9295 148.66H70.6895V154.54H76.9295V148.66Z" fill="#E0E0E0"/>
<path d="M194.05 158.28H92.5996V162.1H194.05V158.28Z" fill="#F5F5F5"/>
<path d="M76.9295 157.25H70.6895V163.13H76.9295V157.25Z" fill="#E0E0E0"/>
<path d="M194.05 166.88H92.5996V170.7H194.05V166.88Z" fill="#F5F5F5"/>
<path d="M76.9295 165.85H70.6895V171.73H76.9295V165.85Z" fill="#E0E0E0"/>
<path d="M194.05 175.47H92.5996V179.29H194.05V175.47Z" fill="#F5F5F5"/>
<path d="M76.9295 174.44H70.6895V180.32H76.9295V174.44Z" fill="#E0E0E0"/>
<path d="M193.979 186.3H70.6895V227.84H193.979V186.3Z" fill="#F5F5F5"/>
<path d="M193.979 186.3H70.6895V195.87H193.979V186.3Z" fill="#EBEBEB"/>
<path d="M193.98 195.87C193.98 196.01 166.43 196.13 132.44 196.13C98.4504 196.13 70.9004 196.01 70.9004 195.87C70.9004 195.73 98.4504 195.61 132.44 195.61C166.43 195.61 193.98 195.73 193.98 195.87Z" fill="#E0E0E0"/>
<path d="M193.98 207.07C193.98 207.21 166.43 207.33 132.44 207.33C98.4504 207.33 70.9004 207.21 70.9004 207.07C70.9004 206.93 98.4504 206.81 132.44 206.81C166.43 206.81 193.98 206.93 193.98 207.07Z" fill="#E0E0E0"/>
<path d="M193.98 218.28C193.98 218.42 166.43 218.54 132.44 218.54C98.4504 218.54 70.9004 218.42 70.9004 218.28C70.9004 218.14 98.4504 218.02 132.44 218.02C166.43 218.02 193.98 218.14 193.98 218.28Z" fill="#E0E0E0"/>
<path d="M94.7795 227.56C94.6395 227.56 94.5195 218.45 94.5195 207.22C94.5195 195.99 94.6395 186.88 94.7795 186.88C94.9195 186.88 95.0395 195.98 95.0395 207.22C95.0395 218.46 94.9195 227.56 94.7795 227.56Z" fill="#E0E0E0"/>
<path d="M176.74 227.56C176.6 227.56 176.48 218.45 176.48 207.22C176.48 195.99 176.6 186.88 176.74 186.88C176.88 186.88 177 195.98 177 207.22C177 218.46 176.88 227.56 176.74 227.56Z" fill="#E0E0E0"/>
<path d="M148.671 199.88H101.121V203.42H148.671V199.88Z" fill="#E0E0E0"/>
<path d="M148.671 210.71H101.121V214.25H148.671V210.71Z" fill="#E0E0E0"/>
<path d="M84.5698 210.61H75.3398V214.15H84.5698V210.61Z" fill="#E0E0E0"/>
<path d="M84.2495 199.88H75.0195V203.42H84.2495V199.88Z" fill="#E0E0E0"/>
<path d="M189.91 199.88H181.23V203.42H189.91V199.88Z" fill="#E0E0E0"/>
<path d="M189.91 210.8H181.23V214.34H189.91V210.8Z" fill="#E0E0E0"/>
<path d="M390.23 41.11H280.16C278.41 41.11 276.99 42.5292 276.99 44.28V196.18C276.99 197.931 278.41 199.35 280.16 199.35H390.23C391.981 199.35 393.4 197.931 393.4 196.18V44.28C393.4 42.5292 391.981 41.11 390.23 41.11Z" fill="white"/>
<path d="M390.231 199.35C390.231 199.35 390.731 199.41 391.581 199.02C391.991 198.82 392.471 198.47 392.851 197.9C393.241 197.33 393.411 196.54 393.351 195.63C393.341 192 393.321 186.66 393.301 179.78C393.281 166.01 393.251 146.1 393.221 121.5C393.221 109.2 393.201 95.72 393.191 81.26C393.191 74.03 393.191 66.55 393.181 58.84C393.181 54.99 393.181 51.08 393.181 47.12C393.181 46.13 393.181 45.14 393.181 44.15C393.151 43.22 392.641 42.33 391.861 41.83C391.471 41.58 391.021 41.42 390.561 41.37C390.111 41.34 389.571 41.37 389.071 41.35C388.061 41.35 387.051 41.35 386.031 41.35C353.501 41.35 317.731 41.36 280.191 41.37C279.101 41.36 278.061 42.01 277.581 42.98C277.331 43.47 277.251 43.98 277.271 44.56V46.31C277.271 48.64 277.271 50.97 277.271 53.29C277.271 57.93 277.271 62.53 277.271 67.1C277.271 76.24 277.271 85.25 277.271 94.1C277.271 111.8 277.261 128.88 277.251 145.15C277.251 161.42 277.231 176.88 277.231 191.34C277.251 193.13 277.181 194.98 277.271 196.68C277.401 197.5 277.901 198.24 278.601 198.68C278.951 198.9 279.341 199.04 279.741 199.1C280.131 199.16 280.591 199.13 281.021 199.14C284.511 199.14 287.941 199.14 291.291 199.14C298.001 199.14 304.451 199.15 310.601 199.16C335.201 199.19 355.111 199.22 368.871 199.24C375.741 199.26 381.081 199.28 384.711 199.29C386.511 199.3 387.891 199.31 388.831 199.32C389.761 199.32 390.231 199.35 390.231 199.35C390.231 199.35 389.751 199.37 388.831 199.38C387.891 199.38 386.511 199.39 384.711 199.41C381.081 199.42 375.741 199.44 368.871 199.46C355.101 199.48 335.191 199.51 310.601 199.54C304.451 199.54 298.001 199.55 291.291 199.56C287.931 199.56 284.511 199.56 281.021 199.56C280.581 199.56 280.161 199.58 279.681 199.52C279.221 199.45 278.771 199.29 278.371 199.04C277.571 198.55 277.001 197.7 276.841 196.76C276.761 196.28 276.801 195.83 276.791 195.39V194.05C276.791 193.15 276.791 192.25 276.791 191.35C276.791 176.88 276.771 161.42 276.771 145.16C276.771 128.89 276.771 111.81 276.751 94.11C276.751 85.26 276.751 76.25 276.751 67.11C276.751 62.54 276.751 57.93 276.751 53.3C276.751 50.98 276.751 48.66 276.751 46.32V44.57C276.731 43.99 276.821 43.31 277.121 42.75C277.681 41.61 278.921 40.84 280.201 40.86C317.741 40.86 353.501 40.87 386.041 40.88C387.061 40.88 388.071 40.88 389.081 40.88C389.601 40.88 390.071 40.86 390.621 40.9C391.161 40.96 391.681 41.15 392.131 41.44C393.041 42.03 393.631 43.07 393.661 44.14C393.661 45.14 393.661 46.14 393.661 47.13C393.661 51.09 393.661 55 393.661 58.85C393.661 66.56 393.661 74.04 393.651 81.27C393.641 95.74 393.631 109.21 393.621 121.51C393.591 146.11 393.561 166.02 393.541 179.79C393.521 186.66 393.501 192 393.491 195.64C393.541 196.54 393.361 197.38 392.951 197.95C392.561 198.53 392.061 198.88 391.641 199.07C391.211 199.27 390.861 199.32 390.631 199.35C390.391 199.36 390.281 199.35 390.281 199.35H390.231Z" fill="#263238"/>
<path d="M382.02 56.78H289V59.64H382.02V56.78Z" fill="#E0E0E0"/>
<path d="M382.02 66.43H289V69.29H382.02V66.43Z" fill="#F5F5F5"/>
<path d="M382.111 73.65H288.791V76.51H382.111V73.65Z" fill="#E0E0E0"/>
<path d="M382.111 79.05H288.791V81.91H382.111V79.05Z" fill="#F5F5F5"/>
<path d="M382.111 93.53H288.791V96.39H382.111V93.53Z" fill="#E0E0E0"/>
<path d="M382.111 165.17H288.791V168.03H382.111V165.17Z" fill="#E0E0E0"/>
<path d="M382.111 187.92H288.791V190.78H382.111V187.92Z" fill="#E0E0E0"/>
<path d="M317.931 183.07H288.791V185.93H317.931V183.07Z" fill="#E0E0E0"/>
<path d="M338.371 183.07H322.801V185.93H338.371V183.07Z" fill="#E0E0E0"/>
<path d="M381.862 183.07H344.182V185.93H381.862V183.07Z" fill="#E0E0E0"/>
<path d="M381.851 170.51H288.531V173.37H381.851V170.51Z" fill="#F5F5F5"/>
<path d="M381.771 176.18H288.451V179.04H381.771V176.18Z" fill="#F5F5F5"/>
<path d="M381.281 102.01H305.391V104.87H381.281V102.01Z" fill="#F5F5F5"/>
<path d="M382.221 61.69H289.201V64.55H382.221V61.69Z" fill="#F5F5F5"/>
<path d="M317.671 86.53H288.791V90.48H317.671V86.53Z" fill="#0E97AB"/>
<path d="M288.54 48.7C288.54 49.68 287.75 50.47 286.77 50.47C285.79 50.47 285 49.68 285 48.7C285 47.72 285.79 46.93 286.77 46.93C287.75 46.93 288.54 47.72 288.54 48.7Z" fill="#E0E0E0"/>
<path d="M293.11 48.7C293.11 49.68 292.32 50.47 291.34 50.47C290.36 50.47 289.57 49.68 289.57 48.7C289.57 47.72 290.36 46.93 291.34 46.93C292.32 46.93 293.11 47.72 293.11 48.7Z" fill="#E0E0E0"/>
<path d="M297.671 48.7C297.671 49.68 296.881 50.47 295.901 50.47C294.921 50.47 294.131 49.68 294.131 48.7C294.131 47.72 294.921 46.93 295.901 46.93C296.881 46.93 297.671 47.72 297.671 48.7Z" fill="#E0E0E0"/>
<path d="M293.67 101.24H289V105.64H293.67V101.24Z" fill="#E0E0E0"/>
<path d="M381.281 108.43H305.391V111.29H381.281V108.43Z" fill="#F5F5F5"/>
<path d="M293.67 107.67H289V112.07H293.67V107.67Z" fill="#E0E0E0"/>
<path d="M381.281 114.86H305.391V117.72H381.281V114.86Z" fill="#F5F5F5"/>
<path d="M293.67 114.09H289V118.49H293.67V114.09Z" fill="#E0E0E0"/>
<path d="M381.281 121.29H305.391V124.15H381.281V121.29Z" fill="#F5F5F5"/>
<path d="M293.67 120.52H289V124.92H293.67V120.52Z" fill="#E0E0E0"/>
<path d="M381.23 129.39H289V160.47H381.23V129.39Z" fill="#F5F5F5"/>
<path d="M381.23 129.39H289V136.55H381.23V129.39Z" fill="#EBEBEB"/>
<path d="M381.23 136.55C381.23 136.69 360.62 136.81 335.2 136.81C309.78 136.81 289.16 136.69 289.16 136.55C289.16 136.41 309.77 136.29 335.2 136.29C360.63 136.29 381.23 136.41 381.23 136.55Z" fill="#E0E0E0"/>
<path d="M381.23 144.93C381.23 145.07 360.62 145.19 335.2 145.19C309.78 145.19 289.16 145.07 289.16 144.93C289.16 144.79 309.77 144.67 335.2 144.67C360.63 144.67 381.23 144.79 381.23 144.93Z" fill="#E0E0E0"/>
<path d="M381.23 153.31C381.23 153.45 360.62 153.57 335.2 153.57C309.78 153.57 289.16 153.45 289.16 153.31C289.16 153.17 309.77 153.05 335.2 153.05C360.63 153.05 381.23 153.17 381.23 153.31Z" fill="#E0E0E0"/>
<path d="M307.02 160.26C306.88 160.26 306.76 153.45 306.76 145.05C306.76 136.65 306.88 129.83 307.02 129.83C307.16 129.83 307.28 136.64 307.28 145.05C307.28 153.46 307.16 160.26 307.02 160.26Z" fill="#E0E0E0"/>
<path d="M368.33 160.26C368.19 160.26 368.07 153.45 368.07 145.05C368.07 136.65 368.19 129.83 368.33 129.83C368.47 129.83 368.59 136.64 368.59 145.05C368.59 153.46 368.47 160.26 368.33 160.26Z" fill="#E0E0E0"/>
<path d="M347.352 139.55H311.771V142.2H347.352V139.55Z" fill="#E0E0E0"/>
<path d="M347.352 147.65H311.771V150.3H347.352V147.65Z" fill="#E0E0E0"/>
<path d="M299.38 147.58H292.48V150.23H299.38V147.58Z" fill="#E0E0E0"/>
<path d="M299.14 139.55H292.24V142.2H299.14V139.55Z" fill="#E0E0E0"/>
<path d="M378.191 139.55H371.691V142.2H378.191V139.55Z" fill="#E0E0E0"/>
<path d="M378.191 147.72H371.691V150.37H378.191V147.72Z" fill="#E0E0E0"/>
<path d="M136.319 415.88L183.009 389.14V384.8L43.589 384.45L34.709 415.36L136.319 415.88Z" fill="#455A64"/>
<g opacity="0.3">
<path d="M138.46 403.66C138.46 403.66 162.86 391.21 161.96 390.19C161.07 389.17 135.65 390.19 135.65 390.19L138.46 403.66Z" fill="black"/>
</g>
<path d="M224.9 260.87L236.62 234.17L280.95 227.79L295.27 262.62L262.19 316.31L224.9 260.87Z" fill="#FFBF9D"/>
<path d="M301.349 132.23C300.989 129.47 298.829 127.02 296.129 126.32C293.429 125.62 290.359 126.69 288.689 128.93C288.249 124.8 282.139 123.58 278.819 126.09C275.509 128.6 274.399 133.01 273.499 137.07L269.969 138C265.399 138.11 261.029 141.1 259.259 145.32C257.489 149.54 258.429 154.75 261.549 158.09C258.629 161.88 258.479 167.57 261.199 171.51C263.919 175.45 269.289 177.33 273.869 175.95C272.689 182.24 276.609 189.11 282.639 191.28C288.659 193.45 296.069 190.68 299.179 185.08C303.259 186.06 307.839 184.45 310.419 181.13C312.989 177.81 313.409 172.97 311.449 169.26C315.529 167.53 318.479 163.4 318.799 158.98C319.119 154.56 316.789 150.05 313.009 147.75C316.469 144.5 316.979 138.58 314.129 134.78C311.279 130.98 305.459 129.82 301.369 132.23H301.349Z" fill="#263238"/>
<path d="M289.399 161.14C292.199 156.33 286.429 148.04 281.989 144.69C283.799 141.7 283.359 138.62 280.819 136.22C278.279 133.82 278.359 133.18 275.029 132.14C272.279 124.43 262.649 120 254.999 122.92C250.109 117.41 241.229 117.59 234.469 120.54C232.819 121.26 231.189 122.13 229.399 122.35C228.089 122.51 226.759 122.32 225.439 122.31C218.179 122.27 211.739 128.21 209.809 135.22C209.499 136.34 206.569 139.62 205.989 140.62C205.219 141.93 204.009 142.61 203.399 144.01C201.279 148.83 204.279 150.44 204.569 153.72C204.809 156.51 203.759 156.4 202.919 159.07C202.499 160.41 201.569 161.56 201.289 162.94C200.459 166.92 205.189 170.27 204.909 174.33C204.849 175.16 204.589 175.96 204.469 176.78C204.219 178.46 204.609 180.22 205.529 181.64C206.249 182.74 207.289 183.69 207.539 184.98C207.719 185.96 207.409 186.95 207.339 187.94C207.159 190.36 213.429 198.81 215.639 199.83L276.679 192.51C281.169 190.97 284.389 186.31 284.229 181.56C284.199 180.77 284.109 179.92 284.509 179.24C284.849 178.66 285.489 178.34 286.029 177.94C289.679 175.33 289.459 169.87 288.479 165.49C288.339 164.88 288.199 164.25 288.269 163.62C288.379 162.71 288.949 161.94 289.409 161.15L289.399 161.14Z" fill="#263238"/>
<path d="M236.17 120.32C236.17 120.32 237.89 119.24 241.42 118.53C243.18 118.22 245.42 118.04 247.93 118.6C250.43 119.13 253.13 120.58 255.3 122.97L254.91 122.87C258.19 121.6 262.34 121.55 266.24 123.11C270.1 124.62 273.84 127.77 275.5 132.27L275.21 131.99C276.26 132.33 277.38 132.69 278.36 133.45C279.32 134.21 280.03 135.08 280.86 135.86C281.71 136.63 282.56 137.61 283.06 138.77C283.56 139.93 283.74 141.26 283.48 142.53C283.3 143.52 282.9 144.45 282.43 145.23L282.31 144.61C285.44 147.11 287.83 150.22 289.42 153.62C290.18 155.33 290.71 157.17 290.58 159.05C290.55 159.99 290.21 160.9 289.79 161.71C289.34 162.46 288.87 163.14 288.74 163.85C288.6 164.54 288.85 165.32 289 166.14C289.17 166.95 289.3 167.76 289.39 168.56C289.57 170.16 289.58 171.75 289.31 173.26C289.07 174.77 288.46 176.2 287.54 177.33C287.06 177.87 286.51 178.35 285.94 178.72C285.38 179.08 284.89 179.42 284.7 179.9C284.5 180.39 284.52 180.99 284.54 181.59C284.55 182.2 284.54 182.81 284.46 183.38C284.32 184.54 283.99 185.6 283.59 186.53C282.77 188.41 281.59 189.76 280.53 190.7C279.44 191.63 278.46 192.16 277.77 192.44C277.43 192.6 277.15 192.66 276.97 192.72C276.79 192.77 276.69 192.8 276.69 192.78C276.63 192.67 278.23 192.31 280.29 190.43C281.28 189.48 282.38 188.14 283.12 186.32C283.49 185.42 283.77 184.4 283.89 183.3C283.95 182.75 283.95 182.19 283.93 181.6C283.91 181.01 283.84 180.34 284.1 179.64C284.38 178.92 285.03 178.49 285.56 178.13C286.09 177.77 286.56 177.35 286.99 176.85C287.8 175.83 288.34 174.53 288.55 173.11C288.79 171.69 288.76 170.17 288.57 168.63C288.48 167.86 288.35 167.07 288.18 166.29C288.04 165.52 287.73 164.67 287.89 163.68C288.07 162.72 288.62 161.97 289.03 161.25C289.38 160.54 289.67 159.79 289.69 158.96C289.8 157.32 289.32 155.59 288.59 153.98C287.08 150.76 284.71 147.7 281.74 145.35L281.41 145.08L281.62 144.73C282.05 144.03 282.39 143.21 282.55 142.35C283.01 140.13 281.91 137.98 280.2 136.52C279.35 135.72 278.6 134.81 277.79 134.17C276.98 133.53 275.95 133.18 274.92 132.85L274.7 132.78L274.62 132.57C273.1 128.37 269.58 125.35 265.91 123.88C262.21 122.37 258.28 122.37 255.15 123.53L254.92 123.62L254.76 123.44C252.72 121.13 250.19 119.71 247.79 119.15C245.39 118.56 243.21 118.68 241.48 118.92C238 119.49 236.21 120.44 236.17 120.32Z" fill="#455A64"/>
<path d="M272.72 163.24C271.42 152.44 262.97 140.98 251.54 137.17C244.34 134.77 239.07 135.47 235.46 135.54C227.38 135.7 221.51 140.52 221.51 140.52C218.26 141.77 207.5 154.72 208.53 167.03C209.68 180.71 211.62 197.36 214.72 207.23C220.95 227.08 236.92 227.37 236.92 227.37C236.92 227.34 237.62 237.11 237.62 237.11L258.19 251.94L277.28 229.64L272.71 163.24H272.72Z" fill="#FFBF9D"/>
<path d="M218.709 185.1C218.859 186.48 220.159 187.49 221.609 187.36C223.059 187.23 224.099 186 223.949 184.61C223.799 183.23 222.489 182.21 221.049 182.35C219.599 182.48 218.549 183.72 218.709 185.1Z" fill="#263238"/>
<path d="M214.339 174.02C214.709 174.31 216.469 172.56 219.279 172.15C222.079 171.7 224.349 172.84 224.599 172.45C224.729 172.28 224.309 171.71 223.309 171.19C222.329 170.67 220.729 170.26 218.989 170.53C217.239 170.8 215.869 171.66 215.119 172.44C214.359 173.23 214.149 173.89 214.339 174.02Z" fill="#263238"/>
<path d="M234.029 193.75C234.019 193.59 232.229 193.55 229.349 193.6C228.619 193.63 227.919 193.59 227.729 193.12C227.479 192.63 227.669 191.81 227.889 190.93C228.309 189.1 228.739 187.17 229.199 185.16C230.989 176.96 232.179 170.26 231.849 170.19C231.519 170.12 229.799 176.71 227.999 184.91C227.579 186.93 227.169 188.86 226.779 190.7C226.629 191.55 226.299 192.55 226.819 193.57C227.089 194.08 227.679 194.39 228.149 194.44C228.629 194.51 229.029 194.46 229.389 194.43C232.259 194.16 234.019 193.91 234.009 193.75H234.029Z" fill="#263238"/>
<path d="M236.92 227.37C236.92 227.37 250.81 226.1 263.15 215.95C263.15 215.95 257.91 231.34 237.28 232.44L236.92 227.37Z" fill="#FF9A6C"/>
<path d="M213.529 162.03C214.199 162.54 216.119 161.42 218.589 160.82C221.049 160.15 223.269 160.2 223.609 159.43C223.749 159.06 223.279 158.51 222.219 158.12C221.179 157.73 219.559 157.59 217.859 158.03C216.169 158.47 214.819 159.37 214.099 160.21C213.369 161.05 213.229 161.77 213.529 162.02V162.03Z" fill="#263238"/>
<path d="M247.05 181.91C247.25 183.29 246.25 184.59 244.81 184.83C243.38 185.07 242.05 184.14 241.85 182.76C241.65 181.38 242.65 180.07 244.08 179.84C245.52 179.6 246.84 180.53 247.04 181.91H247.05Z" fill="#263238"/>
<path d="M252.89 169.45C252.6 169.83 250.46 168.58 247.64 168.89C244.82 169.17 242.91 170.84 242.57 170.53C242.4 170.39 242.67 169.74 243.49 168.99C244.31 168.24 245.75 167.44 247.5 167.25C249.26 167.07 250.81 167.55 251.73 168.12C252.67 168.69 253.03 169.28 252.89 169.45Z" fill="#263238"/>
<path d="M251.639 155.13C251.159 155.83 248.909 155.41 246.289 155.66C243.659 155.83 241.509 156.62 240.919 156.01C240.659 155.71 240.939 155.03 241.839 154.32C242.729 153.61 244.269 152.94 246.069 152.79C247.869 152.64 249.489 153.05 250.479 153.61C251.479 154.17 251.849 154.79 251.639 155.13Z" fill="#263238"/>
<path d="M272.28 182.87C272.06 181.36 273.28 177.53 274.74 177.07C278.64 175.86 285.88 175.11 287.45 185.24C289.59 199.09 272.7 198.8 272.61 198.4C272.54 198.09 273.04 188.09 272.28 182.86V182.87Z" fill="#FFBF9D"/>
<path d="M277.5 192.58C277.55 192.53 277.77 192.71 278.2 192.84C278.63 192.96 279.33 192.98 280.01 192.6C281.39 191.84 282.26 189.32 281.94 186.82C281.78 185.55 281.33 184.39 280.73 183.47C280.15 182.52 279.39 181.92 278.63 181.9C277.87 181.84 277.42 182.37 277.31 182.78C277.18 183.2 277.31 183.46 277.25 183.49C277.22 183.53 276.92 183.3 276.94 182.72C276.95 182.44 277.07 182.08 277.35 181.77C277.64 181.45 278.11 181.24 278.63 181.21C279.71 181.12 280.82 181.95 281.48 182.97C282.2 183.98 282.73 185.28 282.91 186.7C283.25 189.5 282.23 192.34 280.32 193.22C279.39 193.62 278.53 193.46 278.06 193.19C277.58 192.92 277.46 192.62 277.5 192.58Z" fill="#FF9A6C"/>
<path d="M205.469 167.55C208.009 165.39 209.449 162.74 208.789 159.47C210.729 159.75 212.259 157.08 213.109 155.31C213.959 153.54 215.159 152.54 214.799 150.61C214.729 150.23 214.639 149.83 214.769 149.46C214.969 148.89 215.609 148.62 216.149 148.35C218.969 146.99 220.999 144.11 221.319 141C224.479 141.86 227.859 141.92 231.049 141.17C232.789 143.04 235.519 143.93 238.029 143.45C240.539 142.97 242.749 141.13 243.669 138.75C244.759 140.36 246.729 141.21 248.659 141.41C250.599 141.61 252.539 141.24 254.459 140.88C254.179 144.73 257.209 148.53 261.019 149.11C261.539 149.19 262.129 149.25 262.419 149.68C262.729 150.13 262.549 150.73 262.429 151.26C261.689 154.61 264.379 158.3 267.789 158.61C265.779 160.7 266.609 164.73 269.289 165.86C269.839 166.09 270.549 166.36 270.559 166.96C270.559 167.19 270.449 167.4 270.339 167.6C269.509 169.12 268.699 170.77 268.829 172.5C268.959 174.23 270.399 175.98 272.119 175.8C271.339 176.73 270.649 177.89 270.799 179.1C270.959 180.31 272.159 184.06 273.369 184.06C276.489 184.08 280.569 178.12 280.809 177.67C283.949 171.77 278.149 166.61 276.789 160.07C275.429 153.53 272.189 147.47 268.039 142.23C266.299 140.03 264.389 137.94 262.129 136.27C259.559 134.37 256.609 133.05 253.679 131.78C249.859 130.12 245.929 128.47 241.779 128.11C234.039 127.45 226.669 131.31 220.159 135.56C217.689 137.18 215.239 138.89 213.279 141.11C210.939 143.76 209.419 147.03 208.149 150.33C206.329 155.1 204.969 160.16 205.219 165.26" fill="#263238"/>
<path d="M243.26 196.88C241.8 195.89 239.65 196.12 238.4 197.38C237.16 198.63 236.93 200.76 237.85 202.26C238.77 203.77 240.74 204.53 242.44 204.08C244.15 203.63 245.47 202.03 245.63 200.27C245.74 199.01 245.15 197.59 243.96 197.16" fill="#FF9A6C"/>
<path d="M243.81 193.95C243.35 193.97 243.65 197.05 241.23 199.5C238.82 201.96 235.5 201.94 235.52 202.38C235.5 202.58 236.31 202.91 237.7 202.8C239.06 202.71 241.01 202.07 242.48 200.57C243.95 199.07 244.47 197.21 244.44 195.93C244.43 194.63 244.01 193.9 243.8 193.94L243.81 193.95Z" fill="#263238"/>
<path d="M191.609 150.56C193.179 156.59 199.35 161.08 205.58 160.71C211.799 160.34 217.399 155.16 218.259 148.99C220.689 151.06 224.489 151.32 227.169 149.59C229.859 147.87 231.209 144.31 230.339 141.24C234.599 142.68 239.589 140.09 241.539 136.04C243.489 131.98 242.7 126.96 240.24 123.19C237.62 119.17 233.17 116.4 228.41 115.81C223.65 115.22 218.659 116.83 215.139 120.09C208.659 116.9 199.729 121.21 198.199 128.27C191.229 130.83 187.849 140.24 191.589 146.65" fill="#263238"/>
<path d="M228.549 124.91C228.549 124.91 228.779 124.53 229.409 124.08C230.029 123.62 231.039 123.07 232.409 122.77C233.769 122.46 235.499 122.42 237.289 122.98C239.059 123.54 240.949 124.68 242.029 126.69C242.879 128.21 242.589 130.39 241.119 131.33L241.149 130.6C242.429 131.62 243.209 132.98 243.549 134.25C243.919 135.53 243.899 136.72 243.719 137.66C243.349 139.57 242.449 140.4 242.419 140.35C242.289 140.28 242.979 139.37 243.169 137.58C243.379 135.88 242.879 133.07 240.609 131.31L240.109 130.93L240.629 130.58C241.589 129.94 241.879 128.35 241.189 127.11C240.309 125.44 238.609 124.33 237.029 123.8C235.419 123.25 233.819 123.21 232.539 123.42C229.929 123.84 228.659 125.07 228.549 124.91Z" fill="#455A64"/>
<path d="M231.17 256.54C233.97 261.39 260.09 304.82 260.09 304.82C260.09 304.82 290.11 242.19 290.11 243.34C290.11 244.49 313.72 327.81 313.72 327.81L310.47 366.77H222.68L231.17 256.54Z" fill="white"/>
<path d="M326.699 242.8C326.699 243.84 334.309 270.48 334.309 270.48C334.309 270.48 339.849 274.63 340.189 279.48C340.529 284.33 340.189 286.75 340.189 286.75C340.189 286.75 364.759 314.43 364.759 318.93V326.89C364.759 326.89 399.709 341.08 399.359 349.38C399.009 357.68 385.589 369.43 380.049 370.12C374.509 370.81 357.709 362.84 353.549 360.42C349.399 358 316.529 330.72 316.529 330.72L326.689 242.8H326.699Z" fill="#0E97AB"/>
<path d="M278.189 224.5C279.089 225.4 291.909 234.56 291.909 234.56L326.699 242.8L318.439 367.62L288.209 366.76C288.209 366.76 281.959 254.61 279.849 246.17C277.739 237.74 278.179 224.49 278.179 224.49L278.189 224.5Z" fill="#0E97AB"/>
<path d="M236.46 229.57L224.91 238.72L187.49 244.37L194.42 366.77H224.85C224.85 366.77 233.59 271.18 233.89 263.05C234.19 254.92 236.98 236.53 236.98 236.53L236.48 229.58L236.46 229.57Z" fill="#0E97AB"/>
<path d="M166.83 290.79C166.83 289.19 171.64 280.21 171.96 279.25C172.28 278.29 170.999 275.72 173.559 269.63C176.129 263.54 181.51 242.21 187.47 244.38C193.44 246.55 191.84 321.6 191.84 321.6L192.32 326.63C192.32 326.63 174.84 347.23 170.99 348.83C167.14 350.43 143.51 367.01 142.22 367.63C134.96 371.15 114.139 353.19 114.839 350.15L127.389 338.99C127.389 338.99 140.87 323.89 146 321.64C146 321.64 147.779 310.59 149.759 310.46C151.739 310.33 153.029 311.94 153.029 311.94L166.82 290.78L166.83 290.79Z" fill="#0E97AB"/>
<path d="M120.919 352.28C120.009 352.33 111.439 358.71 111.439 358.71C111.439 358.71 107.209 347.54 100.949 348.39C94.6893 349.24 80.6393 363.62 80.6393 363.62C80.6393 363.62 75.5593 363.45 73.8693 365.31C72.1793 367.17 72.0093 369.77 72.6893 371.18C73.3693 372.59 79.7993 381.73 81.9993 381.05C84.1993 380.37 84.1993 379.7 84.1993 379.7C84.1993 379.7 87.5793 383.08 90.2893 381.9C92.9993 380.72 95.1993 379.02 95.1993 379.02C95.1993 379.02 99.4293 382.74 106.199 381.22C112.969 379.7 135.169 369.5 136.339 368.17C137.509 366.84 142.589 362.81 137.169 359.74C131.749 356.68 124.309 352.11 120.919 352.28Z" fill="#FFBF9D"/>
<path d="M99.8888 357.93C99.8888 357.93 99.9088 358.68 99.0888 359.61C98.7188 360.08 98.1688 360.6 97.8588 361.35C97.5388 362.11 97.7388 363.07 98.1088 364.06C98.8888 366.06 99.5388 368.62 99.4588 371.51C99.4088 372.92 99.0288 374.6 97.7388 375.69C97.1188 376.22 96.2888 376.59 95.4088 376.55C94.5288 376.51 93.7188 376.05 93.0988 375.47C88.6988 370.34 87.9188 363.63 89.5488 359.58C90.2888 357.52 91.4088 356.1 92.2788 355.27C92.7188 354.85 93.0888 354.56 93.3488 354.38C93.6088 354.2 93.7588 354.12 93.7688 354.13C93.7988 354.17 93.2388 354.54 92.4288 355.41C91.6288 356.27 90.5788 357.69 89.9088 359.7C89.2088 361.69 88.9688 364.28 89.5488 367.03C89.8288 368.4 90.2988 369.8 90.9488 371.18C91.6188 372.54 92.3488 374 93.4788 375.09C94.0488 375.62 94.7388 376 95.4688 376.03C96.1888 376.07 96.8988 375.77 97.4488 375.3C98.5888 374.36 98.9488 372.85 99.0188 371.49C99.1288 368.69 98.5388 366.18 97.7988 364.18C97.4488 363.18 97.2388 362.09 97.6288 361.24C98.0088 360.41 98.5888 359.92 98.9688 359.47C99.8088 358.6 99.8788 357.91 99.9188 357.92L99.8888 357.93Z" fill="#FF9A6C"/>
<path d="M105.65 376.95C105.65 376.95 105.43 376.67 105.18 376.06C104.94 375.46 104.65 374.53 104.59 373.32C104.54 372.12 104.73 370.63 105.48 369.15C106.21 367.68 107.48 366.23 109.23 365.31L109.38 365.78C107.95 365.95 106.39 365.83 104.88 365.35C103.68 364.97 102.58 364.4 101.64 363.67C101.17 363.29 100.74 362.81 100.56 362.2C100.38 361.59 100.51 360.94 100.77 360.44C101.31 359.41 102.27 358.8 103.16 358.45C104.07 358.09 104.98 357.96 105.79 357.94C107.43 357.91 108.72 358.24 109.59 358.45C110.46 358.68 110.93 358.83 110.93 358.86C110.93 358.9 110.43 358.81 109.55 358.64C108.67 358.49 107.39 358.23 105.81 358.3C105.03 358.34 104.17 358.49 103.32 358.84C102.48 359.19 101.64 359.76 101.19 360.64C100.97 361.07 100.88 361.58 101.03 362.04C101.17 362.51 101.53 362.91 101.96 363.25C102.84 363.93 103.9 364.47 105.04 364.83C106.48 365.29 107.97 365.41 109.33 365.26L110.67 365.11L109.47 365.73C107.82 366.59 106.59 367.94 105.87 369.32C105.14 370.71 104.91 372.13 104.92 373.28C104.97 375.63 105.76 376.89 105.66 376.92L105.65 376.95Z" fill="#FF9A6C"/>
<path d="M120.95 375.22C120.85 375.22 120.88 374.09 120.57 372.31C120.27 370.54 119.53 368.13 118.13 365.77C116.72 363.42 114.94 361.63 113.53 360.52C112.11 359.41 111.11 358.89 111.15 358.8C111.17 358.77 111.43 358.87 111.89 359.1C112.36 359.31 113 359.69 113.75 360.22C114.51 360.74 115.34 361.46 116.19 362.34C117.02 363.23 117.85 364.29 118.58 365.5C119.29 366.71 119.83 367.95 120.22 369.1C120.59 370.26 120.83 371.34 120.93 372.25C121.04 373.16 121.07 373.91 121.04 374.42C121.02 374.93 120.99 375.21 120.95 375.21V375.22Z" fill="#FF9A6C"/>
<path d="M87.0987 381.66C87.0987 381.66 86.8187 381.54 86.3787 381.23C85.9387 380.92 85.3088 380.45 84.5788 379.81C83.1388 378.55 81.2187 376.55 80.0287 373.79C78.8487 371.01 78.9187 368.15 79.5287 366.29C79.8287 365.36 80.1987 364.65 80.5187 364.21C80.8287 363.76 81.0488 363.55 81.0688 363.57C81.1588 363.63 80.3688 364.56 79.8888 366.4C79.3988 368.21 79.3887 370.94 80.5187 373.59C81.6587 376.25 83.4687 378.23 84.8387 379.54C86.2187 380.86 87.1588 381.59 87.1088 381.65L87.0987 381.66Z" fill="#FF9A6C"/>
<path d="M89.5992 370.78C89.6992 370.7 91.2092 372.53 92.2792 375.23C93.3692 377.93 93.5292 380.3 93.3992 380.31C93.2392 380.34 92.8492 378.05 91.7892 375.43C90.7492 372.8 89.4592 370.87 89.5892 370.78H89.5992Z" fill="#FF9A6C"/>
<path d="M185.399 253.62C185.539 253.61 187.389 273.47 189.519 297.98C191.649 322.5 193.259 342.38 193.119 342.39C192.979 342.4 191.129 322.54 188.999 298.02C186.869 273.51 185.259 253.62 185.399 253.61V253.62Z" fill="#263238"/>
<path d="M324.181 250.68C324.181 250.68 324.211 250.97 324.231 251.54C324.231 252.15 324.251 252.97 324.271 254C324.301 256.13 324.271 259.22 324.201 263.03C324.061 270.66 323.561 281.18 322.831 292.8C322.101 304.41 321.451 314.93 321.121 322.54C320.951 326.35 320.831 329.43 320.771 331.56C320.731 332.59 320.701 333.41 320.671 334.01C320.641 334.57 320.621 334.87 320.601 334.86C320.581 334.85 320.571 334.56 320.561 334C320.561 333.39 320.561 332.57 320.561 331.54C320.561 329.41 320.631 326.32 320.751 322.51C320.981 314.89 321.581 304.36 322.311 292.75C323.041 281.14 323.601 270.63 323.831 263.01C323.951 259.2 324.031 256.12 324.061 253.99C324.091 252.96 324.111 252.14 324.121 251.54C324.141 250.98 324.161 250.68 324.181 250.68Z" fill="#263238"/>
<path d="M301.01 366.77C301.01 366.77 301.02 366.63 301.07 366.36C301.13 366.07 301.2 365.69 301.3 365.19C301.47 364.16 301.68 362.63 301.95 360.66C302.45 356.71 303.14 351 303.93 343.92C305.52 329.78 307.6 310.22 309.84 288.62C310.44 282.73 311.03 276.99 311.6 271.48C311.74 270.1 311.87 268.74 312.01 267.4C312.07 266.73 312.14 266.07 312.2 265.41L312.22 265.17C312.22 265.17 312.23 265.27 312.28 265.29C312.3 265.31 312.33 265.33 312.36 265.33C312.38 265.33 312.34 265.33 312.33 265.33C312.21 265.36 312.06 265.43 311.92 265.5C311.63 265.64 311.35 265.8 311.07 265.97C308.83 267.33 306.73 268.82 304.71 270.26L303.63 271.02L304.37 269.93C306.26 267.16 308.07 264.44 309.35 261.67C309.49 261.32 309.65 260.97 309.72 260.62C309.83 260.25 309.84 259.98 309.66 259.67C309.33 259.03 308.9 258.41 308.5 257.8C307.67 256.59 306.83 255.44 306.01 254.32C302.71 249.87 299.73 246.04 297.27 242.86C294.82 239.7 292.88 237.2 291.54 235.47C290.9 234.62 290.4 233.97 290.04 233.5C289.89 233.29 289.76 233.12 289.67 232.98C289.59 232.86 289.55 232.8 289.56 232.8C289.56 232.8 289.61 232.85 289.7 232.96C289.8 233.09 289.94 233.25 290.1 233.45C290.47 233.91 290.99 234.55 291.66 235.38C293.03 237.1 295.01 239.57 297.5 242.69C299.99 245.84 303 249.65 306.33 254.09C307.16 255.2 308.01 256.35 308.85 257.56C309.26 258.17 309.69 258.78 310.05 259.47C310.27 259.81 310.27 260.36 310.15 260.71C310.07 261.11 309.9 261.46 309.76 261.83C308.46 264.68 306.66 267.39 304.76 270.19L304.43 269.86C306.46 268.41 308.55 266.91 310.82 265.52C311.11 265.35 311.4 265.18 311.71 265.03C311.87 264.96 312.02 264.88 312.22 264.83C312.29 264.83 312.34 264.81 312.44 264.82C312.51 264.83 312.58 264.86 312.63 264.91C312.69 264.97 312.73 265.09 312.73 265.15L312.71 265.4C312.65 266.07 312.58 266.75 312.52 267.43C312.39 268.78 312.25 270.14 312.12 271.52C311.56 277.03 310.98 282.77 310.38 288.66C308.14 310.26 306.01 329.81 304.32 343.95C303.49 351.02 302.74 356.73 302.17 360.67C301.87 362.64 301.63 364.17 301.43 365.2C301.31 365.69 301.22 366.08 301.15 366.36C301.08 366.62 301.05 366.75 301.04 366.75L301.01 366.77Z" fill="#263238"/>
<path d="M216.14 366.71C216.14 366.71 216.1 366.59 216.03 366.34C215.96 366.07 215.88 365.7 215.76 365.23C215.56 364.25 215.36 362.79 215.07 360.92C214.57 357.17 213.89 351.73 213.16 344.99C211.67 331.53 209.82 312.91 207.89 292.34C207.3 285.95 206.73 279.75 206.19 273.85C206.06 272.38 205.93 270.92 205.8 269.49C205.74 268.77 205.68 268.06 205.62 267.35L205.58 266.81V266.68C205.58 266.61 205.52 266.66 205.62 266.41C205.71 266.26 205.92 266.26 205.95 266.27C206.03 266.27 206.09 266.29 206.13 266.31C206.52 266.44 206.81 266.61 207.13 266.79C209.55 268.23 211.74 269.81 213.85 271.32L213.53 271.64C211.86 269.19 210.32 266.81 209.07 264.4C208.76 263.8 208.48 263.18 208.26 262.54C208.17 262.21 208.06 261.89 208.07 261.51C208.05 261.32 208.17 261.17 208.22 261C208.28 260.82 208.36 260.68 208.44 260.54C209.08 259.4 209.8 258.4 210.48 257.4C213.27 253.46 215.83 250.13 217.94 247.37C220.05 244.65 221.72 242.5 222.88 241C223.44 240.29 223.88 239.73 224.2 239.33C224.34 239.16 224.45 239.02 224.54 238.9C224.62 238.81 224.66 238.76 224.67 238.76C224.67 238.76 224.64 238.82 224.57 238.92C224.49 239.04 224.39 239.18 224.26 239.37C223.96 239.78 223.54 240.35 223 241.08C221.86 242.59 220.23 244.77 218.16 247.53C216.09 250.31 213.55 253.67 210.8 257.61C210.13 258.6 209.41 259.62 208.8 260.72C208.72 260.86 208.64 260.99 208.6 261.13C208.57 261.26 208.45 261.39 208.48 261.53C208.47 261.8 208.57 262.11 208.65 262.41C208.86 263.01 209.14 263.61 209.45 264.2C210.69 266.57 212.25 268.95 213.91 271.37L214.64 272.43L213.58 271.68C211.47 270.19 209.27 268.6 206.89 267.2C206.6 267.04 206.28 266.86 206 266.77C205.96 266.76 205.94 266.75 205.92 266.75H205.91C205.91 266.75 205.91 266.69 205.91 266.66C205.93 266.62 205.83 266.54 205.89 266.58C205.9 266.58 205.92 266.58 205.92 266.58C206.16 266.58 205.99 266.58 206.04 266.58V266.6V266.66V266.79L206.09 267.31C206.15 268.01 206.21 268.72 206.28 269.44C206.41 270.87 206.54 272.33 206.68 273.8C207.23 279.69 207.8 285.89 208.39 292.28C210.32 312.85 212.11 331.47 213.5 344.94C214.18 351.68 214.8 357.12 215.24 360.88C215.49 362.75 215.66 364.22 215.83 365.2C215.92 365.67 215.99 366.04 216.04 366.31C216.09 366.56 216.1 366.69 216.1 366.7L216.14 366.71Z" fill="#263238"/>
<path d="M312.51 363.05C339.82 345.03 363.78 323.3 384.67 298.17C402.48 300.47 424.93 300.11 448.75 298.96L375 363.05H312.52H312.51Z" fill="white"/>
<path d="M312.51 363.05C314.17 363.05 336.97 362.97 374.99 362.84L374.86 362.89C394.99 345.38 420.67 323.03 448.58 298.76L448.76 299.22C448.55 299.22 448.32 299.24 448.09 299.25C436.82 299.79 425.8 300.15 415.18 300.11C404.56 300.07 394.3 299.64 384.64 298.4L384.85 298.32C366.49 320.38 348.18 336.67 334.64 347.23C327.87 352.53 322.32 356.46 318.48 359.1C316.57 360.42 315.09 361.35 314.07 362.03C313.14 362.64 312.71 362.92 312.51 363.05C312.93 362.76 314.69 361.54 318.39 358.97C322.2 356.3 327.72 352.33 334.46 347C347.93 336.38 366.18 320.06 384.48 298.01L384.56 297.91L384.69 297.93C394.32 299.15 404.56 299.56 415.17 299.6C425.79 299.63 436.79 299.26 448.06 298.73C448.29 298.72 448.52 298.71 448.73 298.7L449.48 298.67L448.91 299.16C420.98 323.41 395.27 345.72 375.12 363.21L375.06 363.26H374.98C336.96 363.13 314.16 363.06 312.5 363.05H312.51Z" fill="#263238"/>
<path d="M396.16 348.65C396.16 348.65 402.681 346.75 402.951 345.25C403.221 343.76 402.951 340.77 402.951 340.77C402.951 340.77 397.92 335.47 396.16 337.64C394.39 339.81 394.801 342.01 395.481 342.88L396.16 343.75L392.63 345.65C392.63 345.65 380.67 343.48 377.96 344.43C375.24 345.38 375.51 347.96 377.96 349.59C380.41 351.22 386.93 351.08 386.93 351.08L387.88 353.66C387.88 353.66 369.26 349.72 367.5 351.08C365.73 352.44 365.6 354.61 368.86 355.97C368.86 355.97 367.91 356.79 369.68 358.55C371.45 360.32 372.4 360.04 372.4 360.04C372.4 360.04 366.691 360.99 367.511 368.19C367.511 368.19 367.37 371.04 374.44 371.18C381.51 371.32 389.66 369.82 391.02 367.78C392.38 365.74 392.65 363.57 392.65 363.57C392.65 363.57 395.5 363.03 395.37 359.49L395.231 355.96C395.231 355.96 397.68 355.28 397.27 353.11C396.86 350.94 396.18 348.63 396.18 348.63L396.16 348.65Z" fill="#FFBF9D"/>
<path d="M380.26 364.49C380.19 364.62 378.3 363.72 376.04 362.49C373.78 361.26 372 360.16 372.07 360.03C372.14 359.9 374.03 360.8 376.29 362.03C378.55 363.26 380.32 364.36 380.26 364.49Z" fill="#FF9A6C"/>
<path d="M386.91 360.31C386.88 360.38 385.88 360.08 384.26 359.59C382.64 359.11 380.4 358.47 377.89 357.87C375.38 357.27 373.1 356.82 371.43 356.51C369.77 356.2 368.74 356.02 368.75 355.94C368.75 355.87 369.81 355.93 371.49 356.14C373.17 356.36 375.49 356.75 378.01 357.36C380.53 357.97 382.77 358.67 384.37 359.24C385.97 359.81 386.93 360.24 386.9 360.31H386.91Z" fill="#FF9A6C"/>
<path d="M391.79 355.23C391.7 355.35 390.79 354.82 389.59 354.41C388.39 353.99 387.34 353.86 387.35 353.71C387.35 353.57 388.47 353.47 389.76 353.92C391.05 354.36 391.88 355.13 391.8 355.23H391.79Z" fill="#FF9A6C"/>
<path d="M392.399 352.03C392.429 352.16 391.029 352.51 389.299 352.24C387.569 351.98 386.339 351.22 386.409 351.1C386.479 350.96 387.739 351.48 389.379 351.72C391.019 351.98 392.379 351.88 392.399 352.03Z" fill="#FF9A6C"/>
<path d="M396.089 349.16C396.009 349.16 395.979 348.81 395.799 348.31C395.629 347.81 395.279 347.14 394.679 346.63C394.079 346.12 393.359 345.88 392.839 345.79C392.309 345.7 391.969 345.72 391.949 345.64C391.939 345.58 392.279 345.42 392.869 345.42C393.459 345.42 394.299 345.63 395.009 346.23C395.719 346.83 396.059 347.64 396.149 348.22C396.249 348.81 396.149 349.17 396.079 349.16H396.089Z" fill="#FF9A6C"/>
<path d="M400.28 344.89C400.34 345.02 399.05 345.44 397.59 344.82C396.13 344.21 395.53 342.99 395.66 342.95C395.78 342.86 396.5 343.81 397.79 344.34C399.07 344.9 400.25 344.74 400.28 344.89Z" fill="#FF9A6C"/>
<path d="M159.819 326.1C159.649 326.14 159.079 322.5 156.989 318.54C154.939 314.56 152.289 312 152.419 311.89C152.459 311.85 153.179 312.42 154.169 313.53C155.159 314.63 156.399 316.29 157.449 318.3C158.499 320.32 159.139 322.28 159.479 323.72C159.809 325.17 159.879 326.08 159.819 326.09V326.1Z" fill="#263238"/>
<path d="M171.061 291.14C171.061 291.14 171.211 291.44 171.411 292.01C171.631 292.67 171.901 293.5 172.231 294.49C172.921 296.62 173.861 299.63 174.941 303.14L174.461 303.21C174.421 301.35 174.341 299.31 174.211 297.2C173.891 292.07 173.291 287.45 172.771 284.12C172.511 282.53 172.291 281.21 172.131 280.18C171.971 279.25 171.901 278.73 171.931 278.73C171.971 278.73 172.101 279.23 172.331 280.14C172.541 281.06 172.841 282.4 173.141 284.06C173.751 287.38 174.411 292.01 174.741 297.16C174.871 299.28 174.941 301.33 174.961 303.2L174.981 304.96L174.481 303.27C173.441 299.75 172.561 296.72 171.951 294.57C171.681 293.56 171.451 292.72 171.261 292.05C171.111 291.46 171.041 291.14 171.071 291.13L171.061 291.14Z" fill="#263238"/>
<path d="M134.76 415.36H22.9696C20.3996 415.36 18.1996 413.52 17.7596 410.99L0.0796064 327.61C-0.490394 324.37 1.99961 321.4 5.28961 321.4L118.12 319.37C120.65 319.37 122.83 321.16 123.31 323.65L139.94 409.06C140.58 412.33 138.07 415.36 134.75 415.36H134.76Z" fill="#455A64"/>
<path d="M182.44 384.8C182.44 384.8 182.21 384.96 181.75 385.21C181.24 385.48 180.57 385.84 179.72 386.29C177.9 387.24 175.35 388.56 172.22 390.19C165.82 393.46 157.06 397.93 147.38 402.88C144.73 404.22 142.15 405.53 139.7 406.77L139.4 406.92L139.34 406.59C137.66 397.95 136.2 390.4 135.14 384.95C134.64 382.28 134.24 380.14 133.96 378.6C133.84 377.89 133.74 377.32 133.66 376.89C133.6 376.5 133.57 376.29 133.59 376.29C133.61 376.29 133.66 376.49 133.75 376.87C133.85 377.3 133.97 377.86 134.13 378.56C134.45 380.09 134.9 382.23 135.46 384.88C136.56 390.32 138.09 397.86 139.84 406.48L139.48 406.3C141.94 405.05 144.51 403.74 147.16 402.4C156.87 397.51 165.65 393.08 172.07 389.85C175.23 388.28 177.81 387.01 179.65 386.1C180.52 385.68 181.2 385.35 181.72 385.1C182.2 384.88 182.45 384.77 182.46 384.78L182.44 384.8Z" fill="#263238"/>
<path d="M232.129 366.89C233.299 364.3 242.999 342.89 256.059 314.06C262.729 299.49 268.909 286.37 273.569 276.96C275.879 272.25 277.829 268.47 279.199 265.87C279.879 264.6 280.409 263.6 280.799 262.89C280.979 262.57 281.119 262.32 281.229 262.12C281.329 261.95 281.379 261.86 281.389 261.87C281.389 261.87 281.359 261.97 281.279 262.15C281.179 262.35 281.059 262.62 280.899 262.94C280.539 263.66 280.029 264.68 279.389 265.96C278.079 268.58 276.179 272.38 273.909 277.12C269.339 286.57 263.209 299.71 256.539 314.27C249.879 328.82 243.849 341.99 239.469 351.56C237.269 356.32 235.449 360.17 234.179 362.81C233.539 364.1 233.039 365.12 232.689 365.84C232.519 366.16 232.389 366.42 232.289 366.62C232.199 366.8 232.149 366.88 232.139 366.88L232.129 366.89Z" fill="#263238"/>
<g opacity="0.3">
<path d="M187.479 281.08C187.899 281.94 183.109 337.12 183.109 337.12L192.329 326.62L187.479 281.08Z" fill="black"/>
</g>
<g opacity="0.3">
<path d="M323.059 284.67L330.709 342.39L320.609 334.08L323.059 284.67Z" fill="black"/>
</g>
<path d="M136.321 415.88C136.321 415.88 136.291 415.8 136.241 415.65C136.191 415.46 136.131 415.24 136.061 414.96C135.911 414.31 135.701 413.41 135.431 412.28C134.911 409.95 134.191 406.56 133.331 402.37C131.621 393.99 129.371 382.4 126.931 369.59C122.111 344.4 118.591 325.97 118.061 323.2C118.061 323.2 118.091 323.28 118.141 323.43C118.191 323.62 118.251 323.84 118.321 324.12C118.471 324.77 118.681 325.67 118.951 326.8C119.471 329.13 120.191 332.52 121.051 336.7C122.761 345.08 125.011 356.67 127.451 369.48C132.261 394.66 135.791 413.09 136.321 415.87V415.88Z" fill="#263238"/>
</g>
<defs>
<clipPath id="clip0_2635_13090">
<rect width="449.48" height="431.55" fill="white"/>
</clipPath>
</defs>
</svg>
