<svg width="113" height="133" viewBox="0 0 113 133" fill="none" xmlns="http://www.w3.org/2000/svg">
<g filter="url(#filter0_d_2570_17821)">
<path d="M18.0162 56.1514C18.0162 56.1514 5.57441 79.9177 6.95683 113.909H16.3573L18.0162 56.1514Z" fill="#FEA690"/>
<path d="M20.8067 46.1931C20.8067 46.1931 12.3206 54.9456 6.05078 76.1161L19.9046 80.8478L20.8067 46.1931Z" fill="#F0F0F0"/>
<path d="M83.5335 62.4552L86.3405 64.0799C86.3405 64.0799 97.0271 41.3001 97.5797 38.2397L103.36 40.165C103.36 40.165 96.6514 68.2531 94.1206 74.6519C91.5899 81.0507 85.6443 79.7932 75.8418 73.4055L83.5335 62.4552Z" fill="#FEA690"/>
<path d="M64.956 46.2652C58.3641 43.0771 42.9421 38.2397 42.9421 38.2397C42.9421 38.2397 27.5202 43.0882 20.9282 46.2652C14.3362 49.4421 14.8348 113.922 14.8348 113.922H71.0495C71.0495 113.922 71.548 49.4421 64.956 46.2652Z" fill="#F6F6F6"/>
<path d="M65.2228 46.4716L84.6157 61.8932L77.342 75.6695C77.342 75.6695 64.9811 69.1543 60.5861 65.3153C56.1911 61.4764 53.3233 54.2153 55.389 50.6506C57.4546 47.0859 61.52 45.5064 65.2228 46.4716Z" fill="#F6F6F6"/>
<path d="M43.4838 113.897H14.8418C14.8418 113.897 15.1969 87.0294 15.3079 84.1586C15.3079 84.1586 29.1683 82.4074 31.7318 66.8899H43.4838V113.908V113.897Z" fill="#01A8B8"/>
<path d="M42.5078 113.897H71.1498C71.1498 113.897 70.7947 87.0294 70.6837 84.1586C70.6837 84.1586 56.8233 82.4074 54.2598 66.8899H42.5078V113.908V113.897Z" fill="#0098B4"/>
<path d="M58.4307 43.4139C58.4307 43.4139 54.4801 53.2231 54.2582 66.8896H50.8735C50.8735 66.8896 50.7293 52.8574 55.49 42.3276L58.4418 43.4139H58.4307Z" fill="#0098B4"/>
<path d="M27.556 43.4139C27.556 43.4139 31.5066 53.2231 31.7286 66.8896H35.1132C35.1132 66.8896 35.2575 52.8574 30.4968 42.3276L27.5449 43.4139H27.556Z" fill="#0098B4"/>
<path d="M34.3397 70.1149C34.3397 70.5693 33.9735 70.9351 33.5185 70.9351C33.0635 70.9351 32.6973 70.5693 32.6973 70.1149C32.6973 69.6605 33.0635 69.2947 33.5185 69.2947C33.9735 69.2947 34.3397 69.6605 34.3397 70.1149Z" fill="#775D58"/>
<path d="M53.2069 70.1149C53.2069 70.5693 52.8407 70.9351 52.3857 70.9351C51.9307 70.9351 51.5645 70.5693 51.5645 70.1149C51.5645 69.6605 51.9307 69.2947 52.3857 69.2947C52.8407 69.2947 53.2069 69.6605 53.2069 70.1149Z" fill="#775D58"/>
<path d="M35.166 30.6714H50.7195V41.2201C50.7195 45.5156 47.2309 48.9945 42.9483 48.9945C38.6546 48.9945 35.1772 45.5044 35.1772 41.2201V30.6714H35.166Z" fill="#F09078"/>
<path d="M33.1832 24.4291C33.5605 26.1139 32.9391 27.6878 31.796 27.9427C30.653 28.1977 29.4213 27.0449 29.044 25.3602C28.6666 23.6754 29.2881 22.1015 30.4311 21.8466C31.5741 21.5917 32.8059 22.7444 33.1832 24.4291Z" fill="#F09078"/>
<path d="M51.7041 24.4291C51.3268 26.1139 51.9482 27.6878 53.0913 27.9427C54.2343 28.1977 55.4661 27.0449 55.8434 25.3602C56.2207 23.6754 55.5993 22.1015 54.4562 21.8466C53.3132 21.5917 52.0814 22.7444 51.7041 24.4291Z" fill="#F09078"/>
<path d="M52.1059 9.39931C53.0159 10.0533 53.6706 11.0176 54.0923 12.0595C54.8691 13.9105 54.9912 15.9942 54.7581 17.9893C54.5251 19.9845 53.9591 21.9241 53.3932 23.8638C53.6484 21.9463 52.3722 20.1729 50.9851 18.8096C49.609 17.4462 47.9999 16.1827 47.3119 14.3649C46.0912 11.1395 48.4882 6.82784 52.0837 9.39931H52.1059Z" fill="#120807"/>
<path d="M53.3898 23.3874C53.3898 31.4454 48.5292 39.0379 42.5367 39.0379C36.5442 39.0379 31.6836 31.4454 31.6836 23.3874C31.6836 15.3293 36.5442 7.92529 42.5367 7.92529C48.5292 7.92529 53.3898 15.3293 53.3898 23.3874Z" fill="#FEA690"/>
<path d="M37.9577 23.8306C37.9577 24.3072 37.5693 24.6952 37.0921 24.6952C36.615 24.6952 36.2266 24.3072 36.2266 23.8306C36.2266 23.354 36.615 22.9661 37.0921 22.9661C37.5693 22.9661 37.9577 23.354 37.9577 23.8306Z" fill="#534042"/>
<path d="M34.5059 21.88C34.5059 21.88 36.7253 19.5523 39.6772 21.0819" stroke="#534042" stroke-width="0.276125" stroke-linecap="round" stroke-linejoin="round"/>
<path d="M47.1211 23.8306C47.1211 24.3072 47.5095 24.6952 47.9867 24.6952C48.4639 24.6952 48.8523 24.3072 48.8523 23.8306C48.8523 23.354 48.4639 22.9661 47.9867 22.9661C47.5095 22.9661 47.1211 23.354 47.1211 23.8306Z" fill="#534042"/>
<path d="M50.5737 21.88C50.5737 21.88 48.3542 19.5523 45.4023 21.0819" stroke="#534042" stroke-width="0.276125" stroke-linecap="round" stroke-linejoin="round"/>
<path d="M42.7277 23.1101C42.7277 23.1101 43.8596 26.7013 44.1481 27.8762C44.4367 29.0511 42.5391 29.1619 42.5391 29.1619" stroke="#F09078" stroke-width="0.184083" stroke-linecap="round" stroke-linejoin="round"/>
<path d="M42.8706 33.4849C44.1246 33.4849 45.1455 32.4651 45.1455 31.2126H40.5957C40.5957 32.4651 41.6166 33.4849 42.8706 33.4849Z" fill="#FAFAFA"/>
<path d="M31.6875 23.3873C31.6875 23.3873 30.267 18.6766 29.9896 16.2271C29.7122 13.7776 30.8219 11.461 32.6307 10.7738C34.4396 10.0866 34.828 10.4635 34.828 10.4635C34.828 10.4635 36.1264 12.4364 35.3274 15.1409C34.5284 17.8454 32.2757 19.2752 31.6875 23.3984V23.3873Z" fill="#120807"/>
<path d="M34.2269 10.4301C34.2269 10.4301 35.947 14.9635 46.1121 15.2073C56.2772 15.4512 60.3388 11.1063 60.6162 7.92518C60.8936 4.74409 58.6742 -0.0330791 53.6138 0.000172654C48.4647 0.0334244 46.3673 2.63814 46.3673 2.63814C46.3673 2.63814 41.2737 0.798216 38.4661 5.30937C38.4661 5.30937 32.3071 4.42266 34.2381 10.4412L34.2269 10.4301Z" fill="#120807"/>
<path d="M50.7635 39.9111C50.7635 39.9111 50.6304 47.1933 42.9844 48.9889L46.4467 53.5554C46.4467 53.5554 52.2728 49.8202 52.0952 41.1082L50.7635 39.9111Z" fill="#00788E"/>
<path d="M35.2146 39.9111C35.2146 39.9111 35.3477 47.1933 42.9937 48.9889L39.5314 53.5554C39.5314 53.5554 33.7053 49.8202 33.8829 41.1082L35.2146 39.9111Z" fill="#00788E"/>
<path d="M97.6207 38.3043C97.6207 38.3043 96.6222 34.8959 97.3178 31.8329C98.0247 28.7698 96.1397 26.6536 96.6783 26.0744C97.2168 25.4952 98.911 26.1969 99.0793 28.2798C99.2476 30.3515 99.7076 31.4542 100.325 30.5965C100.942 29.7389 103.59 22.9668 104.173 22.9891C104.757 23.0113 105.037 23.2786 104.24 26.3194C103.893 27.6337 102.973 30.0508 102.973 30.0508C102.973 30.0508 107.124 21.9198 108.134 22.3208C109.233 22.7663 105.194 30.7413 105.194 30.7413C105.194 30.7413 109.256 24.5262 110.535 25.3393C111.028 25.6511 106.989 31.7327 106.989 31.7327C106.989 31.7327 110.03 28.7587 110.894 29.4939C111.32 29.8503 108.482 33.0136 107.573 33.8044C106.664 34.5952 107.382 37.313 103.478 40.2312L97.6095 38.3043H97.6207Z" fill="#FEA690"/>
<rect x="2" y="104.708" width="82.9286" height="24.2922" rx="3.79412" fill="white"/>
<path d="M20.3492 121.734V112.901H24.0722C24.6571 112.901 25.1551 113.003 25.5661 113.209C25.985 113.407 26.3052 113.691 26.5265 114.063C26.7557 114.426 26.8703 114.869 26.8703 115.391C26.8703 115.794 26.7597 116.173 26.5383 116.529C26.3249 116.877 25.9811 117.165 25.5068 117.394V116.647C25.9416 116.813 26.2854 117.019 26.5383 117.264C26.7913 117.509 26.9691 117.782 27.0719 118.082C27.1746 118.382 27.226 118.699 27.226 119.031C27.226 119.876 26.9454 120.54 26.3842 121.022C25.8309 121.497 25.0602 121.734 24.0722 121.734H20.3492ZM21.9617 120.311H24.2382C24.6571 120.311 24.9891 120.196 25.2341 119.967C25.4871 119.73 25.6135 119.418 25.6135 119.031C25.6135 118.643 25.4871 118.331 25.2341 118.094C24.9891 117.857 24.6571 117.738 24.2382 117.738H21.9617V120.311ZM21.9617 116.327H24.1552C24.4871 116.327 24.7519 116.232 24.9496 116.043C25.1472 115.845 25.246 115.592 25.246 115.284C25.246 114.976 25.1472 114.731 24.9496 114.549C24.7519 114.367 24.4871 114.276 24.1552 114.276H21.9617V116.327ZM30.3728 121.876C29.9223 121.876 29.531 121.801 29.199 121.651C28.8671 121.501 28.6102 121.287 28.4284 121.011C28.2466 120.726 28.1557 120.398 28.1557 120.027C28.1557 119.671 28.2347 119.355 28.3928 119.078C28.5509 118.793 28.7959 118.556 29.1279 118.367C29.4599 118.177 29.8788 118.043 30.3847 117.963L32.4952 117.62V118.805L30.6811 119.114C30.3728 119.169 30.1436 119.268 29.9934 119.41C29.8433 119.552 29.7682 119.738 29.7682 119.967C29.7682 120.189 29.8512 120.366 30.0172 120.501C30.191 120.627 30.4045 120.691 30.6574 120.691C30.9815 120.691 31.266 120.623 31.5111 120.489C31.764 120.347 31.9577 120.153 32.0921 119.908C32.2343 119.663 32.3055 119.394 32.3055 119.102V117.442C32.3055 117.165 32.1948 116.936 31.9735 116.754C31.7601 116.564 31.4755 116.47 31.1198 116.47C30.7878 116.47 30.4914 116.56 30.2306 116.742C29.9776 116.916 29.7919 117.149 29.6733 117.442L28.4046 116.825C28.5311 116.485 28.7287 116.193 28.9975 115.948C29.2741 115.695 29.5982 115.497 29.9697 115.355C30.3412 115.213 30.7444 115.142 31.1791 115.142C31.7087 115.142 32.1751 115.24 32.5782 115.438C32.9813 115.628 33.2935 115.896 33.5149 116.244C33.7441 116.584 33.8587 116.983 33.8587 117.442V121.734H32.3885V120.631L32.7205 120.608C32.5545 120.884 32.3569 121.117 32.1276 121.307C31.8984 121.489 31.6376 121.631 31.3451 121.734C31.0526 121.829 30.7285 121.876 30.3728 121.876ZM35.2943 121.734V115.284H36.7526V116.553L36.6341 116.327C36.7843 115.94 37.0293 115.647 37.3692 115.45C37.717 115.244 38.1201 115.142 38.5786 115.142C39.0528 115.142 39.4718 115.244 39.8354 115.45C40.2069 115.655 40.4954 115.944 40.7009 116.315C40.9064 116.679 41.0092 117.102 41.0092 117.584V121.734H39.4559V117.952C39.4559 117.667 39.4006 117.422 39.29 117.217C39.1793 117.011 39.0252 116.853 38.8275 116.742C38.6378 116.624 38.4126 116.564 38.1517 116.564C37.8988 116.564 37.6735 116.624 37.4759 116.742C37.2783 116.853 37.1241 117.011 37.0135 117.217C36.9028 117.422 36.8475 117.667 36.8475 117.952V121.734H35.2943ZM45.263 121.805C44.5358 121.805 43.9706 121.607 43.5675 121.212C43.1723 120.809 42.9747 120.244 42.9747 119.517V116.671H41.8602V115.284H41.9787C42.2949 115.284 42.5399 115.201 42.7138 115.035C42.8877 114.869 42.9747 114.628 42.9747 114.312V113.814H44.5279V115.284H46.01V116.671H44.5279V119.434C44.5279 119.647 44.5635 119.829 44.6346 119.979C44.7137 120.129 44.8322 120.244 44.9903 120.323C45.1563 120.402 45.3658 120.442 45.6187 120.442C45.674 120.442 45.7373 120.438 45.8084 120.43C45.8875 120.422 45.9625 120.414 46.0337 120.406V121.734C45.923 121.75 45.7966 121.766 45.6543 121.781C45.512 121.797 45.3816 121.805 45.263 121.805ZM49.5206 121.876C49.0226 121.876 48.5878 121.766 48.2163 121.544C47.8527 121.323 47.5721 121.015 47.3745 120.619C47.1848 120.224 47.0899 119.762 47.0899 119.232V115.284H48.6432V119.102C48.6432 119.37 48.6945 119.608 48.7973 119.813C48.908 120.011 49.0621 120.169 49.2597 120.287C49.4652 120.398 49.6945 120.453 49.9474 120.453C50.2003 120.453 50.4256 120.398 50.6232 120.287C50.8208 120.169 50.975 120.007 51.0856 119.801C51.1963 119.596 51.2516 119.351 51.2516 119.066V115.284H52.8048V121.734H51.3346V120.465L51.465 120.691C51.3149 121.086 51.0659 121.382 50.7181 121.58C50.3782 121.777 49.979 121.876 49.5206 121.876ZM56.205 121.876C55.7544 121.876 55.3632 121.801 55.0312 121.651C54.6992 121.501 54.4423 121.287 54.2605 121.011C54.0787 120.726 53.9878 120.398 53.9878 120.027C53.9878 119.671 54.0669 119.355 54.2249 119.078C54.383 118.793 54.6281 118.556 54.9601 118.367C55.292 118.177 55.711 118.043 56.2169 117.963L58.3273 117.62V118.805L56.5133 119.114C56.205 119.169 55.9758 119.268 55.8256 119.41C55.6754 119.552 55.6003 119.738 55.6003 119.967C55.6003 120.189 55.6833 120.366 55.8493 120.501C56.0232 120.627 56.2366 120.691 56.4896 120.691C56.8136 120.691 57.0982 120.623 57.3432 120.489C57.5962 120.347 57.7898 120.153 57.9242 119.908C58.0665 119.663 58.1376 119.394 58.1376 119.102V117.442C58.1376 117.165 58.027 116.936 57.8056 116.754C57.5922 116.564 57.3077 116.47 56.952 116.47C56.62 116.47 56.3236 116.56 56.0627 116.742C55.8098 116.916 55.624 117.149 55.5055 117.442L54.2368 116.825C54.3633 116.485 54.5609 116.193 54.8296 115.948C55.1063 115.695 55.4304 115.497 55.8019 115.355C56.1734 115.213 56.5765 115.142 57.0112 115.142C57.5408 115.142 58.0072 115.24 58.4103 115.438C58.8135 115.628 59.1257 115.896 59.347 116.244C59.5762 116.584 59.6908 116.983 59.6908 117.442V121.734H58.2206V120.631L58.5526 120.608C58.3866 120.884 58.189 121.117 57.9598 121.307C57.7306 121.489 57.4697 121.631 57.1772 121.734C56.8848 121.829 56.5607 121.876 56.205 121.876ZM61.1264 121.734V115.284H62.5848V116.553L62.4662 116.327C62.6164 115.94 62.8614 115.647 63.2013 115.45C63.5491 115.244 63.9523 115.142 64.4107 115.142C64.885 115.142 65.3039 115.244 65.6675 115.45C66.039 115.655 66.3275 115.944 66.533 116.315C66.7386 116.679 66.8413 117.102 66.8413 117.584V121.734H65.2881V117.952C65.2881 117.667 65.2328 117.422 65.1221 117.217C65.0114 117.011 64.8573 116.853 64.6597 116.742C64.47 116.624 64.2447 116.564 63.9839 116.564C63.7309 116.564 63.5057 116.624 63.308 116.742C63.1104 116.853 62.9563 117.011 62.8456 117.217C62.735 117.422 62.6796 117.667 62.6796 117.952V121.734H61.1264Z" fill="#0098B4"/>
</g>
<defs>
<filter id="filter0_d_2570_17821" x="0.102941" y="0" width="112.732" height="132.794" filterUnits="userSpaceOnUse" color-interpolation-filters="sRGB">
<feFlood flood-opacity="0" result="BackgroundImageFix"/>
<feColorMatrix in="SourceAlpha" type="matrix" values="0 0 0 0 0 0 0 0 0 0 0 0 0 0 0 0 0 0 127 0" result="hardAlpha"/>
<feOffset dy="1.89706"/>
<feGaussianBlur stdDeviation="0.94853"/>
<feComposite in2="hardAlpha" operator="out"/>
<feColorMatrix type="matrix" values="0 0 0 0 0 0 0 0 0 0 0 0 0 0 0 0 0 0 0.25 0"/>
<feBlend mode="normal" in2="BackgroundImageFix" result="effect1_dropShadow_2570_17821"/>
<feBlend mode="normal" in="SourceGraphic" in2="effect1_dropShadow_2570_17821" result="shape"/>
</filter>
</defs>
</svg>
