<svg width="804" height="620" viewBox="0 0 804 620" fill="none" xmlns="http://www.w3.org/2000/svg">
<g clip-path="url(#clip0_2552_14422)">
<rect width="804" height="620" fill="white"/>
<g clip-path="url(#clip1_2552_14422)">
<path d="M660.929 671.071C804.131 527.868 804.131 295.692 660.929 152.489C517.726 9.28694 285.55 9.28691 142.347 152.489C-0.854956 295.692 -0.854956 527.868 142.347 671.071C285.55 814.273 517.726 814.273 660.929 671.071Z" fill="url(#paint0_linear_2552_14422)"/>
<path d="M294.932 341.763C293.772 341.474 289.406 372.855 287.956 390.575C286.507 408.295 294.642 451.001 294.642 451.001C294.642 451.001 294.642 457.106 295.802 460.875C296.961 464.645 303.937 470.46 303.937 469.591C303.937 468.721 308.883 452.74 308.883 452.74L305.983 446.055L307.143 385.629L314.119 353.958L294.949 341.763H294.932Z" fill="#FBA990"/>
<path d="M317.581 301.224C317.581 301.224 307.553 311.678 301.89 318.227C296.228 324.759 287.939 356.584 287.939 356.584L313.215 360.507L322.373 324.776L317.581 301.241V301.224Z" fill="#383838"/>
<path d="M394.875 344.663C394.875 344.663 411.725 355.698 419.281 352.218C426.836 348.739 425.676 337.688 417.541 329.552C409.406 321.417 400.111 316.181 400.111 316.181L394.875 344.646V344.663Z" fill="#FBA990"/>
<path d="M306.744 493.57C306.744 493.57 309.695 555.855 309.695 571.153C309.695 571.153 315.579 574.104 327.943 571.153C327.943 571.153 336.778 515.349 336.181 490.62C327.347 484.736 309.115 478.255 306.761 493.57H306.744Z" fill="#FBA990"/>
<path d="M307.427 513.627C313.55 515.213 325.283 517.447 335.295 514.616C335.943 504.844 336.301 496.299 336.165 490.603C335.926 490.432 335.653 490.279 335.397 490.108L306.762 494.15C306.83 496.248 307.086 503.667 307.427 513.61V513.627Z" fill="#FB8877"/>
<path d="M303.213 426.476C303.213 426.476 302.036 490.04 303.81 500.631C304.407 503.581 337.937 502.405 339.71 500.631C341.484 498.857 344.418 452.962 344.418 452.962C344.418 452.962 344.418 451.786 349.125 450.609V423.542L303.213 426.493V426.476Z" fill="#3679A5"/>
<path d="M314.407 440C314.407 440 313.827 450.592 304.105 453.832" stroke="#024470" stroke-width="0.886859" stroke-miterlimit="10"/>
<path d="M343.533 436.777L344.113 447.658L347.354 450.012" stroke="#024470" stroke-width="0.886859" stroke-miterlimit="10"/>
<path d="M345.002 450.609C345.002 450.609 338.232 445.612 330.881 442.081" stroke="#024470" stroke-width="0.886859" stroke-miterlimit="10"/>
<path d="M340.002 454.429C340.002 454.429 338.825 491.217 335.295 500.921" stroke="#024470" stroke-width="0.886859" stroke-miterlimit="10"/>
<path d="M301.459 497.68C301.459 497.68 324.415 501.654 341.623 497.68C341.623 497.68 342.067 502.541 341.623 505.185C340.737 508.272 318.667 510.045 301.459 506.958V497.697V497.68Z" fill="#6A9CBC"/>
<path d="M301.813 601.17H325.673C328.129 601.17 330.022 598.953 329.63 596.531C329.237 594.075 328.862 592.353 329.459 591.756C330.568 590.647 330.789 586.895 329.681 582.921C328.572 578.947 329.237 569.908 328.351 569.465C327.464 569.021 325.707 570.573 323.712 569.908C321.733 569.243 320.625 561.739 313.12 563.513C305.616 565.286 307.39 570.573 307.39 570.573C307.39 570.573 306.947 573.66 305.616 580.056C304.883 583.569 300.721 590.255 298.368 596.053C297.379 598.492 299.169 601.153 301.796 601.153L301.813 601.17Z" fill="#024470"/>
<path d="M312.488 528.141C312.488 528.141 319.106 525.497 323.523 530.784" stroke="#E86D5E" stroke-width="0.750419" stroke-linecap="round" stroke-linejoin="round"/>
<path d="M389.03 493.57C389.03 493.57 386.08 555.855 386.08 571.153C386.08 571.153 380.196 574.104 367.831 571.153C367.831 571.153 358.996 515.349 359.593 490.619C368.428 484.735 386.66 478.255 389.013 493.57H389.03Z" fill="#FBA990"/>
<path d="M360.618 516.748C366.28 517.924 376.308 518.794 388.315 514.786C388.656 504.502 388.929 496.725 389.014 494.337L359.68 498.533C359.833 503.752 360.174 509.994 360.635 516.748H360.618Z" fill="#FB8877"/>
<path d="M392.56 426.476C392.56 426.476 393.737 490.04 391.964 500.631C391.384 503.581 357.837 502.404 356.063 500.631C354.289 498.857 351.356 452.962 351.356 452.962C351.356 452.962 351.356 451.785 346.648 450.608V423.542L392.56 426.493V426.476Z" fill="#3679A5"/>
<path d="M381.371 440C381.371 440 381.968 450.591 391.672 453.832" stroke="#024470" stroke-width="0.886859" stroke-miterlimit="10"/>
<path d="M352.24 436.777L351.66 447.658L348.42 450.012" stroke="#024470" stroke-width="0.886859" stroke-miterlimit="10"/>
<path d="M350.777 450.608C350.777 450.608 357.548 445.611 364.899 442.081" stroke="#024470" stroke-width="0.886859" stroke-miterlimit="10"/>
<path d="M355.771 454.429C355.771 454.429 356.948 491.216 360.479 500.921" stroke="#024470" stroke-width="0.886859" stroke-miterlimit="10"/>
<path d="M394.319 497.68C394.319 497.68 371.363 501.654 354.154 497.68C354.154 497.68 353.711 502.541 354.154 505.184C355.041 508.271 377.11 510.045 394.319 506.958V497.697V497.68Z" fill="#6A9CBC"/>
<path d="M369.539 601.17H393.961C396.588 601.17 398.379 598.509 397.389 596.071C395.036 590.272 390.857 583.569 390.141 580.056C388.811 573.66 388.367 570.573 388.367 570.573C388.367 570.573 390.141 565.269 382.637 563.513C375.133 561.756 374.024 569.243 372.046 569.908C370.067 570.573 368.294 569.021 367.407 569.465C366.52 569.908 367.185 578.947 366.076 582.921C364.968 586.895 365.19 590.647 366.298 591.756C366.946 592.404 366.469 594.314 366.042 597.077C365.718 599.226 367.356 601.17 369.539 601.17Z" fill="#024470"/>
<path d="M383.283 528.14C383.283 528.14 376.665 525.497 372.248 530.784" stroke="#E86D5E" stroke-width="0.750419" stroke-linecap="round" stroke-linejoin="round"/>
<path d="M356.76 287.58C356.76 287.58 382.069 298.768 387.953 312.89C394.434 326.431 395.611 419.415 395.611 425.879C393.837 430.006 376.185 436.47 351.473 435.293H344.992C320.279 436.47 302.627 429.989 300.854 425.879C300.854 419.398 302.03 326.414 308.511 312.89C314.395 298.768 339.705 287.58 339.705 287.58H356.777H356.76Z" fill="#383838"/>
<path d="M336.606 263.686C336.606 263.686 334.338 259.644 331.302 261.912C328.266 264.181 333.826 274.567 335.856 271.77C337.885 268.99 336.606 263.669 336.606 263.669V263.686Z" fill="#FB8E74"/>
<path d="M361.062 265.715C361.062 265.715 363.688 261.895 366.503 264.419C369.317 266.96 362.853 276.784 361.096 273.834C359.322 270.883 361.062 265.698 361.062 265.698V265.715Z" fill="#FB8E74"/>
<path d="M337.871 276.272L337.752 293.856C337.752 293.856 339.389 300.047 348.752 299.808C358.116 299.552 359.002 293.225 359.002 293.225L357.86 274.499L337.871 276.272Z" fill="#FB8877"/>
<path d="M335.958 260.394C335.958 260.394 331.302 282.839 347.078 285.994C360.824 287.58 363.058 270.917 363.655 262.321C364.269 253.726 361.626 244.431 350.71 243.732C339.795 243.032 336.35 255.312 335.941 260.394H335.958Z" fill="#FBA990"/>
<path d="M340.935 261.179C340.935 261.179 345.232 261.059 346.801 261.673C347.688 261.366 345.932 259.507 344.141 259.269C342.35 259.03 339.502 260.121 340.935 261.196V261.179Z" fill="#984E57"/>
<path d="M359.56 263.072C359.56 263.072 355.347 262.236 353.693 262.577C352.874 262.134 354.904 260.582 356.711 260.65C358.519 260.701 361.146 262.253 359.56 263.072Z" fill="#984E57"/>
<path d="M348.917 264.487C348.917 264.487 349.531 265.016 349.292 266.483C349.07 267.933 347.91 272.844 348.371 273.458C348.831 274.072 350.127 272.844 350.127 272.844" stroke="#E86D5E" stroke-width="0.613979" stroke-miterlimit="10"/>
<path d="M356.719 266.023C356.719 266.568 356.275 267.012 355.729 267.012C355.184 267.012 354.74 266.568 354.74 266.023C354.74 265.477 355.184 265.033 355.729 265.033C356.275 265.033 356.719 265.477 356.719 266.023Z" fill="#024470"/>
<path d="M343.824 264.777C343.824 265.323 343.381 265.767 342.835 265.767C342.289 265.767 341.846 265.323 341.846 264.777C341.846 264.232 342.289 263.788 342.835 263.788C343.381 263.788 343.824 264.232 343.824 264.777Z" fill="#024470"/>
<path d="M346.188 276.784C346.188 276.784 349.974 278.114 353.675 276.307C353.675 276.307 353.402 279.308 351.014 279.752C348.644 280.178 347.279 279.53 346.699 278.882C346.103 278.234 346.188 276.784 346.188 276.784Z" fill="#FBF7EA"/>
<path d="M342.775 251.389C342.775 251.389 341.616 259.883 335.715 262.475L335.425 264.777L334.555 261.895C334.555 261.895 330.956 259.166 332.542 253.112C334.129 247.057 340.03 245.335 340.03 245.335C340.03 245.335 340.746 240.73 349.239 240.287C357.733 239.86 366.669 247.347 367.966 255.551C367.966 256.711 365.237 256.983 365.237 256.983C365.237 256.983 365.1 263.601 363.361 266.347C363.361 266.347 360.905 263.038 361.058 257.273C361.058 257.273 349.103 256.693 342.758 251.372L342.775 251.389Z" fill="black"/>
<path d="M397.503 431.149C398.083 421.922 395.201 363.168 395.201 363.168C379.937 357.113 372.74 336.954 372.74 336.954L371.87 296.056C371 292.594 366.259 292.168 366.259 292.168L365.832 316.369C360.034 321.008 351.813 322.526 350.159 322.798C348.027 322.526 337.504 321.008 331.705 316.369L331.279 292.168C331.279 292.168 326.521 292.594 325.668 296.056L324.798 336.954C324.798 336.954 317.601 357.113 302.337 363.168C302.337 363.168 299.454 421.939 300.034 431.149C300.034 431.149 298.874 480.404 298.022 489.92C297.237 498.601 342.979 495.872 350.977 495.327C358.328 495.872 400.352 498.584 399.567 489.92C398.697 480.421 397.555 431.149 397.555 431.149H397.503Z" fill="#0098B4"/>
<path d="M329.096 351.212H369.994V363.884C369.994 370.57 364.57 375.976 357.902 375.976H341.188C334.502 375.976 329.096 370.552 329.096 363.884V351.212Z" fill="#05A4C1"/>
<path d="M373.593 297.301L410.278 320.769C410.278 320.769 404.462 342.275 398.664 348.074C398.664 348.074 378.181 340.007 378.181 339.137C378.181 338.267 372.74 313.213 373.61 297.301H373.593Z" fill="#383838"/>
<path d="M412.31 352.218C412.31 352.218 422.765 355.697 430.32 347.562C437.875 339.427 446.301 290.906 446.301 290.906L435.846 286.829L411.15 333.611C411.15 333.611 403.595 345.226 412.31 352.201V352.218Z" fill="#FBA990"/>
<path d="M435.841 286.846L434.102 280.161L434.391 267.37C434.391 267.37 436.421 267.95 437.581 268.239C438.741 268.529 438.741 274.925 438.741 274.925L442.8 260.394L450.355 262.714V271.719L451.515 274.328C451.515 274.328 450.645 281.883 449.775 284.203C448.905 286.522 446.296 290.888 446.296 290.888C446.296 290.888 437.871 290.309 435.841 286.812V286.846Z" fill="#FBA990"/>
<path d="M437.58 268.256C437.58 268.256 438.603 269.416 438.45 270.44C438.296 271.463 438.74 274.942 438.74 274.942L440.923 278.711L441.213 281.9" stroke="#E86D5E" stroke-width="0.613979" stroke-miterlimit="10"/>
<path d="M438.738 274.925L442.797 260.394C442.797 260.394 444.69 260.684 444.827 262.424C444.827 264.163 443.087 273.612 443.087 273.612" stroke="#E86D5E" stroke-width="0.613979" stroke-miterlimit="10"/>
<path d="M444.115 260.838L447.015 261.708C447.015 261.708 447.884 262.867 447.748 264.607C447.594 266.347 446.588 274.055 446.588 274.055" stroke="#E86D5E" stroke-width="0.613979" stroke-miterlimit="10"/>
<path d="M447.029 261.708L450.372 262.731V271.736L449.929 274.635" stroke="#E86D5E" stroke-width="0.613979" stroke-miterlimit="10"/>
<path d="M450.375 271.736C450.375 271.736 451.688 272.895 451.535 274.345C451.381 275.795 450.665 280.451 450.665 280.451" stroke="#E86D5E" stroke-width="0.613979" stroke-miterlimit="10"/>
<path d="M414.623 327.233C414.623 327.233 421.019 331.002 420.729 339.137" stroke="#E86D5E" stroke-width="0.613979" stroke-miterlimit="10"/>
<path d="M492.719 319.729H414.164V392.741H492.719V319.729Z" fill="#FBBB90"/>
<path d="M410.156 381.041H496.728C501.145 381.041 504.743 384.623 504.743 389.057V405.379H402.141V389.057C402.141 384.64 405.722 381.041 410.156 381.041Z" fill="#FBD9C0"/>
<path d="M415.087 319.729H491.8C496.388 319.729 500.123 323.464 500.123 328.052V342.838H406.764V328.052C406.764 323.464 410.499 319.729 415.087 319.729Z" fill="#FBD9C0"/>
<path d="M326.221 224.785L319.299 217.862L263.631 273.53L270.554 280.452L326.221 224.785Z" fill="#FBA584"/>
<path d="M273.146 192.978H251.811V433.964H273.146V192.978Z" fill="#464F6A"/>
<path d="M277.566 192.978H248.248V253.71H277.566V192.978Z" fill="#FBA584"/>
<path d="M524.068 280.441L530.99 273.518L475.323 217.851L468.4 224.773L524.068 280.441Z" fill="#FBA584"/>
<path d="M521.465 433.981H542.801V192.994H521.465V433.981Z" fill="#464F6A"/>
<path d="M517.048 253.71H546.365V192.977H517.048V253.71Z" fill="#FBA584"/>
<path d="M255.211 210.119L214.705 207.919L226.302 151.962C226.302 143.895 232.852 137.345 240.919 137.345H255.211V210.119Z" fill="#BFE9E9"/>
<path d="M580.024 210.119H539.416V137.345H553.708C561.775 137.345 568.324 143.895 568.324 151.962L580.024 210.136V210.119Z" fill="#BFE9E9"/>
<path d="M295.821 137.329H255.213V210.102H295.821V137.329Z" fill="#0098B4"/>
<path d="M336.426 137.329H295.818V210.102H336.426V137.329Z" fill="#BFE9E9"/>
<path d="M377.018 137.329H336.41V210.102H377.018V137.329Z" fill="#0098B4"/>
<path d="M417.624 137.329H377.016V210.102H417.624V137.329Z" fill="#BFE9E9"/>
<path d="M458.235 137.329H417.627V210.102H458.235V137.329Z" fill="#0098B4"/>
<path d="M498.819 137.329H458.211V210.102H498.819V137.329Z" fill="#BFE9E9"/>
<path d="M539.43 137.329H498.822V210.102H539.43V137.329Z" fill="#0098B4"/>
<path d="M234.918 234.78C223.713 234.78 214.623 225.689 214.623 214.484V207.85H255.231V214.484C255.231 225.689 246.141 234.78 234.936 234.78H234.918Z" fill="#B1E0DF"/>
<path d="M539.42 207.833H580.028V214.467C580.028 225.672 570.938 234.763 559.732 234.763C548.527 234.763 539.437 225.672 539.437 214.467V207.833H539.42Z" fill="#B1E0DF"/>
<path d="M275.51 234.78C264.305 234.78 255.215 225.689 255.215 214.484V207.85H295.823V214.484C295.823 225.689 286.732 234.78 275.527 234.78H275.51Z" fill="#01A8B8"/>
<path d="M316.112 234.78C304.907 234.78 295.816 225.689 295.816 214.484V207.85H336.424V214.484C336.424 225.689 327.334 234.78 316.129 234.78H316.112Z" fill="#B1E0DF"/>
<path d="M336.408 207.833H377.016V214.467C377.016 225.672 367.926 234.763 356.721 234.763C345.516 234.763 336.425 225.672 336.425 214.467V207.833H336.408Z" fill="#01A8B8"/>
<path d="M377.02 207.833H417.627V214.467C417.627 225.672 408.537 234.763 397.332 234.763C386.127 234.763 377.037 225.672 377.037 214.467V207.833H377.02Z" fill="#B1E0DF"/>
<path d="M437.926 234.78C426.721 234.78 417.631 225.689 417.631 214.484V207.85H458.239V214.484C458.239 225.689 449.148 234.78 437.943 234.78H437.926Z" fill="#01A8B8"/>
<path d="M478.512 234.78C467.307 234.78 458.217 225.69 458.217 214.485V207.85H498.825V214.485C498.825 225.69 489.734 234.78 478.529 234.78H478.512Z" fill="#B1E0DF"/>
<path d="M519.124 234.78C507.918 234.78 498.828 225.69 498.828 214.485V207.85H539.436V214.485C539.436 225.69 530.346 234.78 519.141 234.78H519.124Z" fill="#01A8B8"/>
<path d="M547.97 414.232H246.643V445.852H547.97V414.232Z" fill="#C2926A"/>
<path d="M547.97 445.852H246.643V477.472H547.97V445.852Z" fill="#DBB594"/>
<path d="M547.97 540.763H246.643V572.383H547.97V540.763Z" fill="#DBB594"/>
<path d="M547.97 572.383H246.643V604.003H547.97V572.383Z" fill="#CDA079"/>
<path d="M547.97 508.836H246.643V540.456H547.97V508.836Z" fill="#C2926A"/>
<path d="M547.97 477.523H246.643V509.143H547.97V477.523Z" fill="#CDA079"/>
<path d="M547.509 443.891H246.182V445.852H547.509V443.891Z" fill="#B97D62"/>
<path d="M547.509 476.5H246.182V478.461H547.509V476.5Z" fill="#B97D62"/>
<path d="M547.509 476.534H246.182V478.495H547.509V476.534Z" fill="#B97D62"/>
<path d="M547.509 506.875H246.182V508.836H547.509V506.875Z" fill="#B97D62"/>
<path d="M547.509 539.467H246.182V541.428H547.509V539.467Z" fill="#B97D62"/>
<path d="M547.509 571.394H246.182V573.355H547.509V571.394Z" fill="#B97D62"/>
<path d="M570.191 403.913H224.436V420.457H570.191V403.913Z" fill="#B2805B"/>
<path d="M321.742 406.607H294.931L291.23 367.79H325.443L321.742 406.607Z" fill="#FBD9C0"/>
<path d="M366.104 406.607H339.31L335.609 367.79H369.805L366.104 406.607Z" fill="#FBD9C0"/>
<path d="M293.464 520.42L293.229 523.515L285.589 626.413H274.012L281.638 523.515L281.859 520.42H293.464Z" fill="#E6AB7F"/>
<path d="M337.134 626.413H325.556L317.903 523.515L317.682 520.42H329.273L329.508 523.515L337.134 626.413Z" fill="#E6AB7F"/>
<path d="M336.515 508H274V520.42H336.515V508Z" fill="#E6AB7F"/>
<path d="M293.465 520.42L293.23 523.515H281.639L281.86 520.42H293.465Z" fill="#D19466"/>
<path d="M329.51 523.515H317.905L317.684 520.42H329.275L329.51 523.515Z" fill="#D19466"/>
<path d="M329.263 584.594H281.861V594.941H329.263V584.594Z" fill="#E6AB7F"/>
</g>
</g>
<defs>
<linearGradient id="paint0_linear_2552_14422" x1="401.499" y1="-24.0048" x2="292.406" y2="855.286" gradientUnits="userSpaceOnUse">
<stop stop-color="#C3EAF1"/>
<stop offset="1" stop-color="white" stop-opacity="0"/>
</linearGradient>
<clipPath id="clip0_2552_14422">
<rect width="804" height="620" fill="white"/>
</clipPath>
<clipPath id="clip1_2552_14422">
<rect width="972" height="590" fill="white" transform="translate(17 14)"/>
</clipPath>
</defs>
</svg>
