<svg width="30" height="28" viewBox="0 0 30 28" fill="none" xmlns="http://www.w3.org/2000/svg">
<g clip-path="url(#clip0_2531_16683)">
<mask id="mask0_2531_16683" style="mask-type:luminance" maskUnits="userSpaceOnUse" x="0" y="0" width="30" height="28">
<path d="M30 0H0V28H30V0Z" fill="white"/>
</mask>
<g mask="url(#mask0_2531_16683)">
<path d="M13.5739 1.3906C14.0229 0.00863564 15.9781 0.00863338 16.4271 1.3906L18.705 8.40124C18.9058 9.01927 19.4817 9.43771 20.1316 9.43771H27.503C28.9561 9.43771 29.5602 11.2971 28.3847 12.1512L22.4211 16.484C21.8953 16.866 21.6753 17.5431 21.8762 18.1611L24.154 25.1717C24.6031 26.5537 23.0214 27.7029 21.8458 26.8488L15.8822 22.516C15.3564 22.134 14.6446 22.134 14.1188 22.516L8.15519 26.8488C6.97962 27.7029 5.3979 26.5537 5.84693 25.1717L8.12483 18.1611C8.32564 17.5431 8.10565 16.866 7.57992 16.484L1.61631 12.1512C0.440748 11.2971 1.0449 9.43771 2.49799 9.43771H9.86941C10.5193 9.43771 11.0952 9.01927 11.296 8.40124L13.5739 1.3906Z" fill="#E0E0E0"/>
</g>
</g>
<defs>
<clipPath id="clip0_2531_16683">
<rect width="30" height="28" fill="white"/>
</clipPath>
</defs>
</svg>
