<svg width="157" height="41" viewBox="0 0 157 41" fill="none" xmlns="http://www.w3.org/2000/svg">
<path fill-rule="evenodd" clip-rule="evenodd" d="M23.9954 35.1937L35.1937 23.9955C37.6472 21.542 37.6472 17.5113 35.1937 15.0403L23.9954 3.84205C22.7614 2.61677 21.1384 2.00341 19.5171 2.00196C19.5075 2.00195 19.4979 2.00196 19.4882 2.00199C17.8727 2.00778 16.2612 2.62113 15.0403 3.84205L3.84205 15.0403C2.61652 16.2746 2.00315 17.8981 2.00195 19.5197C2.00076 21.1445 2.61412 22.7675 3.84205 23.9955L15.0403 35.1937C17.5113 37.6472 21.542 37.6472 23.9954 35.1937ZM16.6351 27.9736L25.7129 21.6822C26.8169 20.9111 26.6592 20.0173 25.3449 19.6844L22.4533 18.9659L24.1181 12.2364C24.5037 10.6767 23.7326 10.1334 22.4007 11.0622L13.3229 17.3536C12.2189 18.1247 12.3766 19.036 13.6909 19.3514L16.5825 20.0699L14.9177 26.7994C14.5321 28.3591 15.3032 28.9024 16.6351 27.9736Z" fill="#009688"/>
<path d="M53.0718 30.5181L47.5244 9.56262H52.0698L55.3808 24.5785H55.468L59.3309 9.56262H63.1792L67.0421 24.5785H67.1292L70.4548 9.56262H75.0002L69.4383 30.5181H65.1542L61.3059 16.4752H61.2187L57.3558 30.5181H53.0718ZM79.6619 30.7649C76.5396 30.7649 74.4339 28.8045 74.4339 26.0598V26.0307C74.4339 23.1989 76.6267 21.5434 80.4896 21.2965L84.338 21.0642V20.1057C84.338 18.7261 83.4376 17.8693 81.7821 17.8693C80.1992 17.8693 79.2407 18.6099 79.0374 19.6119L79.0084 19.7426H75.1309L75.1455 19.5684C75.3778 16.693 77.8466 14.6308 81.9563 14.6308C85.979 14.6308 88.5784 16.7075 88.5784 19.8443V30.5181H84.338V28.1945H84.2508C83.365 29.792 81.7095 30.7649 79.6619 30.7649ZM78.6308 25.8419C78.6308 26.9892 79.5747 27.6717 81.0415 27.6717C82.9439 27.6717 84.338 26.4519 84.338 24.8254V23.7072L81.1286 23.9105C79.4876 24.0121 78.6308 24.7092 78.6308 25.8129V25.8419ZM91.3231 30.5181V14.9503H95.5636V17.666H95.6507C96.1154 15.749 97.3789 14.6308 99.1941 14.6308C99.6588 14.6308 100.095 14.7035 100.414 14.7906V18.5228C100.065 18.3776 99.4846 18.2904 98.8746 18.2904C96.7835 18.2904 95.5636 19.5393 95.5636 21.8048V30.5181H91.3231ZM106.412 30.7649C103.289 30.7649 101.184 28.8045 101.184 26.0598V26.0307C101.184 23.1989 103.377 21.5434 107.239 21.2965L111.088 21.0642V20.1057C111.088 18.7261 110.187 17.8693 108.532 17.8693C106.949 17.8693 105.99 18.6099 105.787 19.6119L105.758 19.7426H101.881L101.895 19.5684C102.128 16.693 104.596 14.6308 108.706 14.6308C112.729 14.6308 115.328 16.7075 115.328 19.8443V30.5181H111.088V28.1945H111.001C110.115 29.792 108.459 30.7649 106.412 30.7649ZM105.381 25.8419C105.381 26.9892 106.325 27.6717 107.791 27.6717C109.694 27.6717 111.088 26.4519 111.088 24.8254V23.7072L107.878 23.9105C106.237 24.0121 105.381 24.7092 105.381 25.8129V25.8419ZM127.294 30.8376C125.058 30.8376 123.344 29.7048 122.502 27.8605H122.415V30.5181H118.175V9.56262H122.415V17.6514H122.502C123.359 15.7636 125.087 14.6308 127.309 14.6308C131.215 14.6308 133.641 17.6514 133.641 22.7197V22.7342C133.641 27.7879 131.215 30.8376 127.294 30.8376ZM125.886 27.3232C127.992 27.3232 129.328 25.566 129.328 22.7342V22.7197C129.328 19.8733 127.992 18.1452 125.886 18.1452C123.838 18.1452 122.415 19.9169 122.415 22.7197V22.7342C122.415 25.5515 123.824 27.3232 125.886 27.3232ZM138.026 12.9463C136.748 12.9463 135.761 11.9442 135.761 10.7389C135.761 9.53357 136.748 8.53155 138.026 8.53155C139.304 8.53155 140.292 9.53357 140.292 10.7389C140.292 11.9442 139.304 12.9463 138.026 12.9463ZM135.906 30.5181V14.9503H140.147V30.5181H135.906ZM142.702 30.5181V28.1074L150.53 18.2178V18.1452H142.819V14.9503H155.38V17.6369L148.018 27.2361V27.3232H155.555V30.5181H142.702Z" fill="#0D0D0D"/>
</svg>
