<svg width="1820" height="206" viewBox="0 0 1820 206" fill="none" xmlns="http://www.w3.org/2000/svg">
<circle cx="168.732" cy="56.244" r="52.9356" fill="#429488"/>
<path d="M149.433 59.0011L160.461 70.0293L188.032 42.4587" stroke="white" stroke-width="6.61695" stroke-linecap="round" stroke-linejoin="round"/>
<rect x="221.668" y="52.9355" width="264.678" height="6.61695" fill="#429488"/>
<circle cx="539.281" cy="56.244" r="52.9356" fill="#429488"/>
<path d="M519.982 59.0011L531.01 70.0293L558.581 42.4587" stroke="white" stroke-width="6.61695" stroke-linecap="round" stroke-linejoin="round"/>
<rect x="592.217" y="52.9355" width="264.678" height="6.61695" fill="#429488"/>
<circle cx="909.831" cy="56.244" r="49.6271" stroke="#9CA3AF" stroke-width="6.61695"/>
<circle cx="909.831" cy="56.244" r="16.5424" fill="#D1D5DB"/>
<rect x="962.766" y="52.9355" width="264.678" height="6.61695" fill="#D1D5DB"/>
<circle cx="1650.93" cy="56.244" r="49.6271" stroke="#D1D5DB" stroke-width="6.61695"/>
<circle cx="1280.38" cy="52.9356" r="49.6271" stroke="#D1D5DB" stroke-width="6.61695"/>
<rect x="1333.32" y="49.6271" width="264.678" height="6.61695" fill="#D1D5DB"/>
<path d="M69.4286 176.956V148.082H80.8203C83.0103 148.082 84.876 148.5 86.4175 149.337C87.9589 150.164 89.1338 151.315 89.9421 152.791C90.7598 154.257 91.1687 155.949 91.1687 157.866C91.1687 159.784 90.7551 161.476 89.928 162.942C89.1009 164.408 87.9025 165.55 86.3329 166.368C84.7726 167.186 82.8834 167.594 80.6652 167.594H73.4044V162.702H79.6783C80.8532 162.702 81.8213 162.5 82.5826 162.096C83.3534 161.682 83.9267 161.114 84.3027 160.39C84.688 159.657 84.8807 158.816 84.8807 157.866C84.8807 156.908 84.688 156.071 84.3027 155.357C83.9267 154.633 83.3534 154.074 82.5826 153.679C81.8119 153.275 80.8344 153.073 79.6501 153.073H75.5333V176.956H69.4286ZM104.541 177.379C102.314 177.379 100.396 176.928 98.789 176.025C97.1911 175.114 95.9599 173.826 95.0952 172.162C94.2304 170.489 93.7981 168.511 93.7981 166.227C93.7981 163.999 94.2304 162.044 95.0952 160.362C95.9599 158.679 97.177 157.368 98.7467 156.428C100.326 155.488 102.177 155.018 104.302 155.018C105.73 155.018 107.06 155.249 108.291 155.709C109.532 156.16 110.613 156.842 111.534 157.754C112.465 158.665 113.188 159.812 113.705 161.194C114.222 162.566 114.481 164.173 114.481 166.015V167.665H96.1948V163.943H108.827C108.827 163.078 108.639 162.312 108.263 161.645C107.887 160.977 107.366 160.456 106.698 160.08C106.04 159.694 105.274 159.502 104.4 159.502C103.489 159.502 102.68 159.713 101.975 160.136C101.28 160.55 100.735 161.109 100.34 161.814C99.9451 162.51 99.743 163.285 99.7336 164.14V167.679C99.7336 168.75 99.931 169.676 100.326 170.456C100.73 171.237 101.299 171.838 102.032 172.261C102.765 172.684 103.634 172.895 104.64 172.895C105.307 172.895 105.918 172.801 106.473 172.614C107.027 172.426 107.502 172.144 107.897 171.768C108.291 171.392 108.592 170.931 108.799 170.386L114.354 170.752C114.072 172.087 113.494 173.253 112.62 174.249C111.755 175.236 110.637 176.007 109.264 176.561C107.901 177.106 106.327 177.379 104.541 177.379ZM118.4 176.956V155.3H124.124V159.121H124.378C124.829 157.852 125.581 156.851 126.634 156.118C127.686 155.385 128.946 155.018 130.412 155.018C131.897 155.018 133.161 155.39 134.205 156.132C135.248 156.865 135.944 157.862 136.291 159.121H136.517C136.959 157.88 137.758 156.889 138.914 156.146C140.079 155.394 141.456 155.018 143.045 155.018C145.065 155.018 146.705 155.662 147.965 156.95C149.234 158.228 149.868 160.042 149.868 162.392V176.956H143.876V163.576C143.876 162.373 143.557 161.471 142.918 160.869C142.279 160.268 141.48 159.967 140.521 159.967C139.431 159.967 138.58 160.315 137.969 161.01C137.358 161.696 137.053 162.603 137.053 163.731V176.956H131.23V163.449C131.23 162.387 130.924 161.541 130.313 160.912C129.712 160.282 128.918 159.967 127.931 159.967C127.263 159.967 126.662 160.136 126.126 160.475C125.6 160.804 125.182 161.269 124.871 161.87C124.561 162.463 124.406 163.158 124.406 163.957V176.956H118.4ZM154.725 176.956V148.082H160.731V158.938H160.915C161.178 158.355 161.558 157.763 162.057 157.161C162.564 156.55 163.222 156.043 164.03 155.639C164.848 155.225 165.863 155.018 167.076 155.018C168.655 155.018 170.112 155.432 171.446 156.259C172.781 157.077 173.848 158.313 174.647 159.967C175.445 161.612 175.845 163.675 175.845 166.156C175.845 168.572 175.455 170.612 174.675 172.275C173.904 173.929 172.851 175.184 171.517 176.039C170.191 176.885 168.706 177.308 167.062 177.308C165.896 177.308 164.904 177.116 164.087 176.73C163.278 176.345 162.616 175.861 162.099 175.278C161.582 174.686 161.187 174.089 160.915 173.488H160.647V176.956H154.725ZM160.604 166.128C160.604 167.416 160.783 168.539 161.14 169.498C161.497 170.456 162.014 171.204 162.691 171.739C163.368 172.266 164.19 172.529 165.158 172.529C166.136 172.529 166.963 172.261 167.64 171.725C168.316 171.18 168.829 170.428 169.176 169.47C169.533 168.501 169.712 167.388 169.712 166.128C169.712 164.878 169.538 163.778 169.19 162.829C168.843 161.88 168.33 161.137 167.654 160.601C166.977 160.066 166.145 159.798 165.158 159.798C164.181 159.798 163.354 160.056 162.677 160.573C162.01 161.09 161.497 161.823 161.14 162.773C160.783 163.722 160.604 164.84 160.604 166.128ZM189.722 177.379C187.494 177.379 185.577 176.928 183.969 176.025C182.371 175.114 181.14 173.826 180.275 172.162C179.411 170.489 178.978 168.511 178.978 166.227C178.978 163.999 179.411 162.044 180.275 160.362C181.14 158.679 182.357 157.368 183.927 156.428C185.506 155.488 187.358 155.018 189.482 155.018C190.91 155.018 192.24 155.249 193.472 155.709C194.712 156.16 195.793 156.842 196.714 157.754C197.645 158.665 198.369 159.812 198.886 161.194C199.403 162.566 199.661 164.173 199.661 166.015V167.665H181.375V163.943H194.007C194.007 163.078 193.82 162.312 193.444 161.645C193.068 160.977 192.546 160.456 191.879 160.08C191.221 159.694 190.455 159.502 189.581 159.502C188.669 159.502 187.86 159.713 187.156 160.136C186.46 160.55 185.915 161.109 185.52 161.814C185.125 162.51 184.923 163.285 184.914 164.14V167.679C184.914 168.75 185.111 169.676 185.506 170.456C185.91 171.237 186.479 171.838 187.212 172.261C187.945 172.684 188.815 172.895 189.82 172.895C190.488 172.895 191.098 172.801 191.653 172.614C192.208 172.426 192.682 172.144 193.077 171.768C193.472 171.392 193.773 170.931 193.979 170.386L199.534 170.752C199.252 172.087 198.674 173.253 197.8 174.249C196.935 175.236 195.817 176.007 194.445 176.561C193.082 177.106 191.507 177.379 189.722 177.379ZM209.586 148.082V176.956H203.58V148.082H209.586ZM214.398 176.956V155.3H220.404V176.956H214.398ZM217.415 152.509C216.522 152.509 215.756 152.213 215.117 151.621C214.487 151.019 214.172 150.3 214.172 149.464C214.172 148.636 214.487 147.927 215.117 147.335C215.756 146.733 216.522 146.432 217.415 146.432C218.308 146.432 219.069 146.733 219.699 147.335C220.338 147.927 220.657 148.636 220.657 149.464C220.657 150.3 220.338 151.019 219.699 151.621C219.069 152.213 218.308 152.509 217.415 152.509ZM231.39 177.365C230.008 177.365 228.777 177.125 227.696 176.646C226.615 176.157 225.76 175.438 225.13 174.489C224.51 173.53 224.2 172.336 224.2 170.908C224.2 169.705 224.421 168.694 224.862 167.876C225.304 167.059 225.906 166.401 226.667 165.903C227.428 165.404 228.293 165.028 229.261 164.775C230.239 164.521 231.263 164.342 232.335 164.239C233.594 164.107 234.609 163.985 235.38 163.872C236.151 163.75 236.71 163.572 237.058 163.337C237.405 163.102 237.579 162.754 237.579 162.293V162.209C237.579 161.316 237.297 160.625 236.733 160.136C236.179 159.647 235.389 159.403 234.365 159.403C233.284 159.403 232.424 159.643 231.785 160.122C231.146 160.592 230.723 161.184 230.516 161.899L224.961 161.447C225.243 160.132 225.798 158.994 226.625 158.036C227.452 157.067 228.519 156.325 229.825 155.808C231.141 155.282 232.664 155.018 234.393 155.018C235.596 155.018 236.747 155.159 237.847 155.441C238.956 155.723 239.938 156.16 240.794 156.753C241.658 157.345 242.34 158.106 242.838 159.037C243.336 159.958 243.585 161.062 243.585 162.35V176.956H237.889V173.953H237.72C237.372 174.63 236.907 175.226 236.324 175.743C235.742 176.251 235.042 176.65 234.224 176.942C233.406 177.224 232.461 177.365 231.39 177.365ZM233.11 173.22C233.994 173.22 234.774 173.046 235.45 172.698C236.127 172.341 236.658 171.862 237.044 171.26C237.429 170.659 237.622 169.977 237.622 169.216V166.918C237.434 167.04 237.175 167.153 236.846 167.256C236.527 167.35 236.165 167.439 235.761 167.524C235.356 167.599 234.952 167.67 234.548 167.735C234.144 167.792 233.777 167.843 233.448 167.89C232.743 167.994 232.128 168.158 231.601 168.384C231.075 168.61 230.666 168.915 230.375 169.3C230.084 169.676 229.938 170.146 229.938 170.71C229.938 171.528 230.234 172.153 230.826 172.585C231.428 173.008 232.189 173.22 233.11 173.22ZM254.251 164.436V176.956H248.245V155.3H253.969V159.121H254.223C254.702 157.862 255.506 156.865 256.634 156.132C257.761 155.39 259.129 155.018 260.736 155.018C262.24 155.018 263.551 155.347 264.67 156.005C265.788 156.663 266.658 157.603 267.278 158.825C267.898 160.038 268.208 161.485 268.208 163.167V176.956H262.202V164.239C262.212 162.914 261.874 161.88 261.187 161.137C260.501 160.385 259.557 160.009 258.354 160.009C257.545 160.009 256.831 160.183 256.211 160.531C255.6 160.879 255.12 161.386 254.773 162.054C254.434 162.712 254.26 163.506 254.251 164.436Z" fill="black"/>
<path d="M420.864 176.956V148.082H432.255C434.445 148.082 436.311 148.5 437.853 149.337C439.394 150.164 440.569 151.315 441.377 152.791C442.195 154.257 442.604 155.949 442.604 157.866C442.604 159.784 442.19 161.476 441.363 162.942C440.536 164.408 439.338 165.55 437.768 166.368C436.208 167.186 434.319 167.594 432.1 167.594H424.84V162.702H431.113C432.288 162.702 433.256 162.5 434.018 162.096C434.788 161.682 435.362 161.114 435.738 160.39C436.123 159.657 436.316 158.816 436.316 157.866C436.316 156.908 436.123 156.071 435.738 155.357C435.362 154.633 434.788 154.074 434.018 153.679C433.247 153.275 432.27 153.073 431.085 153.073H426.968V176.956H420.864ZM455.976 177.379C453.749 177.379 451.831 176.928 450.224 176.025C448.626 175.114 447.395 173.826 446.53 172.162C445.666 170.489 445.233 168.511 445.233 166.227C445.233 163.999 445.666 162.044 446.53 160.362C447.395 158.679 448.612 157.368 450.182 156.428C451.761 155.488 453.612 155.018 455.737 155.018C457.165 155.018 458.495 155.249 459.727 155.709C460.967 156.16 462.048 156.842 462.969 157.754C463.9 158.665 464.623 159.812 465.14 161.194C465.657 162.566 465.916 164.173 465.916 166.015V167.665H447.63V163.943H460.262C460.262 163.078 460.074 162.312 459.698 161.645C459.322 160.977 458.801 160.456 458.133 160.08C457.475 159.694 456.709 159.502 455.835 159.502C454.924 159.502 454.115 159.713 453.41 160.136C452.715 160.55 452.17 161.109 451.775 161.814C451.38 162.51 451.178 163.285 451.169 164.14V167.679C451.169 168.75 451.366 169.676 451.761 170.456C452.165 171.237 452.734 171.838 453.467 172.261C454.2 172.684 455.069 172.895 456.075 172.895C456.742 172.895 457.353 172.801 457.908 172.614C458.462 172.426 458.937 172.144 459.332 171.768C459.727 171.392 460.027 170.931 460.234 170.386L465.789 170.752C465.507 172.087 464.929 173.253 464.055 174.249C463.19 175.236 462.072 176.007 460.699 176.561C459.337 177.106 457.762 177.379 455.976 177.379ZM469.835 176.956V155.3H475.559V159.121H475.813C476.264 157.852 477.016 156.851 478.069 156.118C479.122 155.385 480.381 155.018 481.847 155.018C483.332 155.018 484.597 155.39 485.64 156.132C486.683 156.865 487.379 157.862 487.726 159.121H487.952C488.394 157.88 489.193 156.889 490.349 156.146C491.514 155.394 492.891 155.018 494.48 155.018C496.5 155.018 498.141 155.662 499.4 156.95C500.669 158.228 501.303 160.042 501.303 162.392V176.956H495.311V163.576C495.311 162.373 494.992 161.471 494.353 160.869C493.714 160.268 492.915 159.967 491.956 159.967C490.866 159.967 490.015 160.315 489.404 161.01C488.793 161.696 488.488 162.603 488.488 163.731V176.956H482.665V163.449C482.665 162.387 482.36 161.541 481.749 160.912C481.147 160.282 480.353 159.967 479.366 159.967C478.699 159.967 478.097 160.136 477.561 160.475C477.035 160.804 476.617 161.269 476.307 161.87C475.996 162.463 475.841 163.158 475.841 163.957V176.956H469.835ZM506.16 176.956V148.082H512.166V158.938H512.35C512.613 158.355 512.993 157.763 513.492 157.161C513.999 156.55 514.657 156.043 515.465 155.639C516.283 155.225 517.298 155.018 518.511 155.018C520.09 155.018 521.547 155.432 522.881 156.259C524.216 157.077 525.283 158.313 526.082 159.967C526.881 161.612 527.28 163.675 527.28 166.156C527.28 168.572 526.89 170.612 526.11 172.275C525.339 173.929 524.286 175.184 522.952 176.039C521.627 176.885 520.141 177.308 518.497 177.308C517.331 177.308 516.34 177.116 515.522 176.73C514.714 176.345 514.051 175.861 513.534 175.278C513.017 174.686 512.622 174.089 512.35 173.488H512.082V176.956H506.16ZM512.039 166.128C512.039 167.416 512.218 168.539 512.575 169.498C512.932 170.456 513.449 171.204 514.126 171.739C514.803 172.266 515.625 172.529 516.593 172.529C517.571 172.529 518.398 172.261 519.075 171.725C519.751 171.18 520.264 170.428 520.611 169.47C520.969 168.501 521.147 167.388 521.147 166.128C521.147 164.878 520.973 163.778 520.626 162.829C520.278 161.88 519.766 161.137 519.089 160.601C518.412 160.066 517.58 159.798 516.593 159.798C515.616 159.798 514.789 160.056 514.112 160.573C513.445 161.09 512.932 161.823 512.575 162.773C512.218 163.722 512.039 164.84 512.039 166.128ZM537.463 177.365C536.081 177.365 534.85 177.125 533.769 176.646C532.688 176.157 531.833 175.438 531.203 174.489C530.583 173.53 530.273 172.336 530.273 170.908C530.273 169.705 530.493 168.694 530.935 167.876C531.377 167.059 531.978 166.401 532.74 165.903C533.501 165.404 534.366 165.028 535.334 164.775C536.311 164.521 537.336 164.342 538.407 164.239C539.667 164.107 540.682 163.985 541.453 163.872C542.223 163.75 542.783 163.572 543.13 163.337C543.478 163.102 543.652 162.754 543.652 162.293V162.209C543.652 161.316 543.37 160.625 542.806 160.136C542.252 159.647 541.462 159.403 540.438 159.403C539.357 159.403 538.497 159.643 537.858 160.122C537.218 160.592 536.795 161.184 536.589 161.899L531.034 161.447C531.316 160.132 531.87 158.994 532.697 158.036C533.525 157.067 534.591 156.325 535.898 155.808C537.214 155.282 538.736 155.018 540.466 155.018C541.669 155.018 542.82 155.159 543.92 155.441C545.029 155.723 546.011 156.16 546.867 156.753C547.731 157.345 548.413 158.106 548.911 159.037C549.409 159.958 549.658 161.062 549.658 162.35V176.956H543.962V173.953H543.793C543.445 174.63 542.98 175.226 542.397 175.743C541.815 176.251 541.114 176.65 540.297 176.942C539.479 177.224 538.534 177.365 537.463 177.365ZM539.183 173.22C540.066 173.22 540.846 173.046 541.523 172.698C542.2 172.341 542.731 171.862 543.116 171.26C543.502 170.659 543.694 169.977 543.694 169.216V166.918C543.506 167.04 543.248 167.153 542.919 167.256C542.599 167.35 542.238 167.439 541.833 167.524C541.429 167.599 541.025 167.67 540.621 167.735C540.217 167.792 539.85 167.843 539.521 167.89C538.816 167.994 538.201 168.158 537.674 168.384C537.148 168.61 536.739 168.915 536.448 169.3C536.156 169.676 536.011 170.146 536.011 170.71C536.011 171.528 536.307 172.153 536.899 172.585C537.5 173.008 538.262 173.22 539.183 173.22ZM557.25 185.077C556.489 185.077 555.775 185.016 555.107 184.893C554.449 184.781 553.904 184.635 553.472 184.456L554.825 179.973C555.53 180.189 556.165 180.307 556.729 180.325C557.302 180.344 557.795 180.213 558.209 179.931C558.632 179.649 558.975 179.169 559.238 178.493L559.591 177.576L551.822 155.3H558.138L562.622 171.204H562.847L567.373 155.3H573.731L565.315 179.296C564.91 180.462 564.361 181.477 563.665 182.342C562.979 183.216 562.11 183.888 561.057 184.358C560.004 184.837 558.735 185.077 557.25 185.077ZM582.399 177.365C581.017 177.365 579.786 177.125 578.705 176.646C577.624 176.157 576.769 175.438 576.139 174.489C575.518 173.53 575.208 172.336 575.208 170.908C575.208 169.705 575.429 168.694 575.871 167.876C576.313 167.059 576.914 166.401 577.676 165.903C578.437 165.404 579.302 165.028 580.27 164.775C581.247 164.521 582.272 164.342 583.343 164.239C584.603 164.107 585.618 163.985 586.389 163.872C587.159 163.75 587.718 163.572 588.066 163.337C588.414 163.102 588.588 162.754 588.588 162.293V162.209C588.588 161.316 588.306 160.625 587.742 160.136C587.187 159.647 586.398 159.403 585.373 159.403C584.293 159.403 583.433 159.643 582.793 160.122C582.154 160.592 581.731 161.184 581.525 161.899L575.97 161.447C576.252 160.132 576.806 158.994 577.633 158.036C578.46 157.067 579.527 156.325 580.834 155.808C582.15 155.282 583.672 155.018 585.402 155.018C586.605 155.018 587.756 155.159 588.856 155.441C589.965 155.723 590.947 156.16 591.802 156.753C592.667 157.345 593.349 158.106 593.847 159.037C594.345 159.958 594.594 161.062 594.594 162.35V176.956H588.898V173.953H588.729C588.381 174.63 587.916 175.226 587.333 175.743C586.75 176.251 586.05 176.65 585.232 176.942C584.415 177.224 583.47 177.365 582.399 177.365ZM584.119 173.22C585.002 173.22 585.782 173.046 586.459 172.698C587.136 172.341 587.667 171.862 588.052 171.26C588.438 170.659 588.63 169.977 588.63 169.216V166.918C588.442 167.04 588.184 167.153 587.855 167.256C587.535 167.35 587.173 167.439 586.769 167.524C586.365 167.599 585.961 167.67 585.557 167.735C585.153 167.792 584.786 167.843 584.457 167.89C583.752 167.994 583.136 168.158 582.61 168.384C582.084 168.61 581.675 168.915 581.384 169.3C581.092 169.676 580.946 170.146 580.946 170.71C580.946 171.528 581.243 172.153 581.835 172.585C582.436 173.008 583.198 173.22 584.119 173.22ZM599.254 176.956V155.3H605.076V159.079H605.302C605.697 157.735 606.359 156.72 607.29 156.034C608.22 155.338 609.292 154.99 610.504 154.99C610.805 154.99 611.129 155.009 611.477 155.047C611.825 155.084 612.13 155.136 612.393 155.202V160.531C612.111 160.446 611.721 160.371 611.223 160.305C610.725 160.24 610.269 160.207 609.856 160.207C608.972 160.207 608.183 160.399 607.487 160.785C606.801 161.161 606.256 161.687 605.852 162.364C605.457 163.041 605.26 163.821 605.26 164.704V176.956H599.254ZM621.053 177.365C619.672 177.365 618.441 177.125 617.36 176.646C616.279 176.157 615.423 175.438 614.794 174.489C614.173 173.53 613.863 172.336 613.863 170.908C613.863 169.705 614.084 168.694 614.526 167.876C614.968 167.059 615.569 166.401 616.33 165.903C617.092 165.404 617.956 165.028 618.925 164.775C619.902 164.521 620.927 164.342 621.998 164.239C623.258 164.107 624.273 163.985 625.043 163.872C625.814 163.75 626.373 163.572 626.721 163.337C627.069 163.102 627.243 162.754 627.243 162.293V162.209C627.243 161.316 626.961 160.625 626.397 160.136C625.842 159.647 625.053 159.403 624.028 159.403C622.947 159.403 622.087 159.643 621.448 160.122C620.809 160.592 620.386 161.184 620.179 161.899L614.625 161.447C614.906 160.132 615.461 158.994 616.288 158.036C617.115 157.067 618.182 156.325 619.489 155.808C620.804 155.282 622.327 155.018 624.056 155.018C625.26 155.018 626.411 155.159 627.511 155.441C628.62 155.723 629.602 156.16 630.457 156.753C631.322 157.345 632.003 158.106 632.502 159.037C633 159.958 633.249 161.062 633.249 162.35V176.956H627.553V173.953H627.384C627.036 174.63 626.571 175.226 625.988 175.743C625.405 176.251 624.705 176.65 623.887 176.942C623.07 177.224 622.125 177.365 621.053 177.365ZM622.774 173.22C623.657 173.22 624.437 173.046 625.114 172.698C625.791 172.341 626.322 171.862 626.707 171.26C627.092 170.659 627.285 169.977 627.285 169.216V166.918C627.097 167.04 626.839 167.153 626.51 167.256C626.19 167.35 625.828 167.439 625.424 167.524C625.02 167.599 624.616 167.67 624.212 167.735C623.807 167.792 623.441 167.843 623.112 167.89C622.407 167.994 621.791 168.158 621.265 168.384C620.739 168.61 620.33 168.915 620.038 169.3C619.747 169.676 619.601 170.146 619.601 170.71C619.601 171.528 619.897 172.153 620.49 172.585C621.091 173.008 621.852 173.22 622.774 173.22ZM643.914 164.436V176.956H637.908V155.3H643.632V159.121H643.886C644.366 157.862 645.169 156.865 646.297 156.132C647.425 155.39 648.792 155.018 650.4 155.018C651.904 155.018 653.215 155.347 654.333 156.005C655.452 156.663 656.321 157.603 656.941 158.825C657.562 160.038 657.872 161.485 657.872 163.167V176.956H651.866V164.239C651.875 162.914 651.537 161.88 650.851 161.137C650.165 160.385 649.22 160.009 648.017 160.009C647.209 160.009 646.494 160.183 645.874 160.531C645.263 160.879 644.784 161.386 644.436 162.054C644.098 162.712 643.924 163.506 643.914 164.436Z" fill="black"/>
<path d="M825.843 148.082L832.822 170.019H833.09L840.083 148.082H846.85L836.897 176.956H829.03L819.062 148.082H825.843ZM857.639 177.379C855.412 177.379 853.494 176.928 851.887 176.025C850.289 175.114 849.058 173.826 848.193 172.162C847.329 170.489 846.896 168.511 846.896 166.227C846.896 163.999 847.329 162.044 848.193 160.362C849.058 158.679 850.275 157.368 851.845 156.428C853.424 155.488 855.275 155.018 857.4 155.018C858.828 155.018 860.158 155.249 861.39 155.709C862.63 156.16 863.711 156.842 864.632 157.754C865.563 158.665 866.286 159.812 866.803 161.194C867.32 162.566 867.579 164.173 867.579 166.015V167.665H849.293V163.943H861.925C861.925 163.078 861.737 162.312 861.361 161.645C860.985 160.977 860.464 160.456 859.796 160.08C859.138 159.694 858.372 159.502 857.498 159.502C856.587 159.502 855.778 159.713 855.073 160.136C854.378 160.55 853.833 161.109 853.438 161.814C853.043 162.51 852.841 163.285 852.832 164.14V167.679C852.832 168.75 853.029 169.676 853.424 170.456C853.828 171.237 854.397 171.838 855.13 172.261C855.863 172.684 856.732 172.895 857.738 172.895C858.405 172.895 859.016 172.801 859.571 172.614C860.125 172.426 860.6 172.144 860.995 171.768C861.39 171.392 861.69 170.931 861.897 170.386L867.452 170.752C867.17 172.087 866.592 173.253 865.718 174.249C864.853 175.236 863.735 176.007 862.362 176.561C860.999 177.106 859.425 177.379 857.639 177.379ZM871.498 176.956V155.3H877.321V159.079H877.547C877.941 157.735 878.604 156.72 879.534 156.034C880.465 155.338 881.536 154.99 882.749 154.99C883.05 154.99 883.374 155.009 883.722 155.047C884.069 155.084 884.375 155.136 884.638 155.202V160.531C884.356 160.446 883.966 160.371 883.468 160.305C882.97 160.24 882.514 160.207 882.1 160.207C881.217 160.207 880.427 160.399 879.732 160.785C879.046 161.161 878.501 161.687 878.096 162.364C877.702 163.041 877.504 163.821 877.504 164.704V176.956H871.498ZM887.743 176.956V155.3H893.749V176.956H887.743ZM890.76 152.509C889.868 152.509 889.102 152.213 888.462 151.621C887.833 151.019 887.518 150.3 887.518 149.464C887.518 148.636 887.833 147.927 888.462 147.335C889.102 146.733 889.868 146.432 890.76 146.432C891.653 146.432 892.415 146.733 893.044 147.335C893.684 147.927 894.003 148.636 894.003 149.464C894.003 150.3 893.684 151.019 893.044 151.621C892.415 152.213 891.653 152.509 890.76 152.509ZM910.206 155.3V159.812H896.84V155.3H910.206ZM899.9 176.956V153.735C899.9 152.166 900.205 150.864 900.816 149.83C901.437 148.796 902.283 148.021 903.354 147.504C904.426 146.987 905.643 146.728 907.006 146.728C907.927 146.728 908.768 146.799 909.529 146.94C910.3 147.081 910.873 147.208 911.249 147.321L910.178 151.832C909.943 151.757 909.651 151.686 909.304 151.621C908.965 151.555 908.618 151.522 908.26 151.522C907.377 151.522 906.761 151.729 906.413 152.142C906.066 152.546 905.892 153.115 905.892 153.848V176.956H899.9ZM913.875 176.956V155.3H919.881V176.956H913.875ZM916.892 152.509C915.999 152.509 915.233 152.213 914.594 151.621C913.964 151.019 913.65 150.3 913.65 149.464C913.65 148.636 913.964 147.927 914.594 147.335C915.233 146.733 915.999 146.432 916.892 146.432C917.785 146.432 918.546 146.733 919.176 147.335C919.815 147.927 920.135 148.636 920.135 149.464C920.135 150.3 919.815 151.019 919.176 151.621C918.546 152.213 917.785 152.509 916.892 152.509ZM930.134 170.724L930.148 163.52H931.023L937.959 155.3H944.853L935.534 166.185H934.11L930.134 170.724ZM924.692 176.956V148.082H930.698V176.956H924.692ZM938.227 176.956L931.854 167.524L935.858 163.28L945.262 176.956H938.227ZM953.975 177.365C952.593 177.365 951.362 177.125 950.281 176.646C949.2 176.157 948.345 175.438 947.715 174.489C947.095 173.53 946.785 172.336 946.785 170.908C946.785 169.705 947.006 168.694 947.447 167.876C947.889 167.059 948.491 166.401 949.252 165.903C950.013 165.404 950.878 165.028 951.846 164.775C952.824 164.521 953.848 164.342 954.92 164.239C956.179 164.107 957.194 163.985 957.965 163.872C958.736 163.75 959.295 163.572 959.643 163.337C959.991 163.102 960.164 162.754 960.164 162.293V162.209C960.164 161.316 959.882 160.625 959.318 160.136C958.764 159.647 957.974 159.403 956.95 159.403C955.869 159.403 955.009 159.643 954.37 160.122C953.731 160.592 953.308 161.184 953.101 161.899L947.546 161.447C947.828 160.132 948.383 158.994 949.21 158.036C950.037 157.067 951.104 156.325 952.41 155.808C953.726 155.282 955.249 155.018 956.978 155.018C958.181 155.018 959.333 155.159 960.432 155.441C961.541 155.723 962.524 156.16 963.379 156.753C964.244 157.345 964.925 158.106 965.423 159.037C965.921 159.958 966.17 161.062 966.17 162.35V176.956H960.475V173.953H960.305C959.958 174.63 959.492 175.226 958.91 175.743C958.327 176.251 957.627 176.65 956.809 176.942C955.991 177.224 955.047 177.365 953.975 177.365ZM955.695 173.22C956.579 173.22 957.359 173.046 958.036 172.698C958.712 172.341 959.243 171.862 959.629 171.26C960.014 170.659 960.207 169.977 960.207 169.216V166.918C960.019 167.04 959.76 167.153 959.431 167.256C959.112 167.35 958.75 167.439 958.346 167.524C957.942 167.599 957.537 167.67 957.133 167.735C956.729 167.792 956.362 167.843 956.034 167.89C955.329 167.994 954.713 168.158 954.187 168.384C953.66 168.61 953.251 168.915 952.96 169.3C952.669 169.676 952.523 170.146 952.523 170.71C952.523 171.528 952.819 172.153 953.411 172.585C954.013 173.008 954.774 173.22 955.695 173.22ZM988.848 161.476L983.35 161.814C983.256 161.344 983.054 160.921 982.743 160.545C982.433 160.16 982.024 159.854 981.517 159.629C981.019 159.394 980.422 159.276 979.726 159.276C978.796 159.276 978.011 159.474 977.372 159.868C976.733 160.254 976.413 160.771 976.413 161.419C976.413 161.936 976.62 162.373 977.033 162.73C977.447 163.088 978.157 163.374 979.162 163.59L983.082 164.38C985.187 164.812 986.757 165.508 987.791 166.467C988.825 167.425 989.341 168.685 989.341 170.245C989.341 171.664 988.923 172.91 988.087 173.981C987.26 175.053 986.122 175.889 984.675 176.491C983.237 177.083 981.578 177.379 979.698 177.379C976.831 177.379 974.547 176.782 972.846 175.588C971.154 174.385 970.163 172.75 969.871 170.682L975.779 170.372C975.957 171.246 976.39 171.913 977.076 172.374C977.762 172.825 978.641 173.051 979.712 173.051C980.765 173.051 981.611 172.848 982.25 172.444C982.898 172.031 983.227 171.5 983.237 170.851C983.227 170.306 982.997 169.86 982.546 169.512C982.095 169.155 981.399 168.882 980.459 168.694L976.709 167.947C974.594 167.524 973.02 166.791 971.986 165.747C970.962 164.704 970.449 163.374 970.449 161.758C970.449 160.367 970.825 159.168 971.577 158.162C972.339 157.157 973.405 156.381 974.778 155.836C976.159 155.291 977.776 155.018 979.628 155.018C982.363 155.018 984.515 155.596 986.085 156.753C987.664 157.909 988.585 159.483 988.848 161.476ZM993.123 176.956V155.3H999.129V176.956H993.123ZM996.141 152.509C995.248 152.509 994.482 152.213 993.842 151.621C993.213 151.019 992.898 150.3 992.898 149.464C992.898 148.636 993.213 147.927 993.842 147.335C994.482 146.733 995.248 146.432 996.141 146.432C997.033 146.432 997.795 146.733 998.425 147.335C999.064 147.927 999.383 148.636 999.383 149.464C999.383 150.3 999.064 151.019 998.425 151.621C997.795 152.213 997.033 152.509 996.141 152.509Z" fill="black"/>
<path d="M1142.63 176.956V148.082H1154.03C1156.22 148.082 1158.08 148.5 1159.62 149.337C1161.16 150.164 1162.34 151.315 1163.15 152.791C1163.97 154.257 1164.37 155.949 1164.37 157.866C1164.37 159.784 1163.96 161.476 1163.13 162.942C1162.31 164.408 1161.11 165.55 1159.54 166.368C1157.98 167.186 1156.09 167.594 1153.87 167.594H1146.61V162.702H1152.88C1154.06 162.702 1155.03 162.5 1155.79 162.096C1156.56 161.682 1157.13 161.114 1157.51 160.39C1157.89 159.657 1158.09 158.816 1158.09 157.866C1158.09 156.908 1157.89 156.071 1157.51 155.357C1157.13 154.633 1156.56 154.074 1155.79 153.679C1155.02 153.275 1154.04 153.073 1152.86 153.073H1148.74V176.956H1142.63ZM1177.75 177.379C1175.52 177.379 1173.6 176.928 1171.99 176.025C1170.4 175.114 1169.17 173.826 1168.3 172.162C1167.44 170.489 1167 168.511 1167 166.227C1167 163.999 1167.44 162.044 1168.3 160.362C1169.17 158.679 1170.38 157.368 1171.95 156.428C1173.53 155.488 1175.38 155.018 1177.51 155.018C1178.94 155.018 1180.27 155.249 1181.5 155.709C1182.74 156.16 1183.82 156.842 1184.74 157.754C1185.67 158.665 1186.39 159.812 1186.91 161.194C1187.43 162.566 1187.69 164.173 1187.69 166.015V167.665H1169.4V163.943H1182.03C1182.03 163.078 1181.85 162.312 1181.47 161.645C1181.09 160.977 1180.57 160.456 1179.9 160.08C1179.25 159.694 1178.48 159.502 1177.61 159.502C1176.69 159.502 1175.89 159.713 1175.18 160.136C1174.49 160.55 1173.94 161.109 1173.55 161.814C1173.15 162.51 1172.95 163.285 1172.94 164.14V167.679C1172.94 168.75 1173.14 169.676 1173.53 170.456C1173.94 171.237 1174.5 171.838 1175.24 172.261C1175.97 172.684 1176.84 172.895 1177.85 172.895C1178.51 172.895 1179.12 172.801 1179.68 172.614C1180.23 172.426 1180.71 172.144 1181.1 171.768C1181.5 171.392 1181.8 170.931 1182 170.386L1187.56 170.752C1187.28 172.087 1186.7 173.253 1185.83 174.249C1184.96 175.236 1183.84 176.007 1182.47 176.561C1181.11 177.106 1179.53 177.379 1177.75 177.379ZM1191.61 176.956V155.3H1197.33V159.121H1197.58C1198.03 157.852 1198.79 156.851 1199.84 156.118C1200.89 155.385 1202.15 155.018 1203.62 155.018C1205.1 155.018 1206.37 155.39 1207.41 156.132C1208.45 156.865 1209.15 157.862 1209.5 159.121H1209.72C1210.16 157.88 1210.96 156.889 1212.12 156.146C1213.28 155.394 1214.66 155.018 1216.25 155.018C1218.27 155.018 1219.91 155.662 1221.17 156.95C1222.44 158.228 1223.07 160.042 1223.07 162.392V176.956H1217.08V163.576C1217.08 162.373 1216.76 161.471 1216.12 160.869C1215.48 160.268 1214.69 159.967 1213.73 159.967C1212.64 159.967 1211.79 160.315 1211.17 161.01C1210.56 161.696 1210.26 162.603 1210.26 163.731V176.956H1204.44V163.449C1204.44 162.387 1204.13 161.541 1203.52 160.912C1202.92 160.282 1202.12 159.967 1201.14 159.967C1200.47 159.967 1199.87 160.136 1199.33 160.475C1198.81 160.804 1198.39 161.269 1198.08 161.87C1197.77 162.463 1197.61 163.158 1197.61 163.957V176.956H1191.61ZM1227.93 176.956V148.082H1233.94V158.938H1234.12C1234.38 158.355 1234.76 157.763 1235.26 157.161C1235.77 156.55 1236.43 156.043 1237.24 155.639C1238.05 155.225 1239.07 155.018 1240.28 155.018C1241.86 155.018 1243.32 155.432 1244.65 156.259C1245.99 157.077 1247.05 158.313 1247.85 159.967C1248.65 161.612 1249.05 163.675 1249.05 166.156C1249.05 168.572 1248.66 170.612 1247.88 172.275C1247.11 173.929 1246.06 175.184 1244.72 176.039C1243.4 176.885 1241.91 177.308 1240.27 177.308C1239.1 177.308 1238.11 177.116 1237.29 176.73C1236.48 176.345 1235.82 175.861 1235.3 175.278C1234.79 174.686 1234.39 174.089 1234.12 173.488H1233.85V176.956H1227.93ZM1233.81 166.128C1233.81 167.416 1233.99 168.539 1234.35 169.498C1234.7 170.456 1235.22 171.204 1235.9 171.739C1236.57 172.266 1237.4 172.529 1238.36 172.529C1239.34 172.529 1240.17 172.261 1240.85 171.725C1241.52 171.18 1242.03 170.428 1242.38 169.47C1242.74 168.501 1242.92 167.388 1242.92 166.128C1242.92 164.878 1242.74 163.778 1242.4 162.829C1242.05 161.88 1241.54 161.137 1240.86 160.601C1240.18 160.066 1239.35 159.798 1238.36 159.798C1237.39 159.798 1236.56 160.056 1235.88 160.573C1235.22 161.09 1234.7 161.823 1234.35 162.773C1233.99 163.722 1233.81 164.84 1233.81 166.128ZM1259.23 177.365C1257.85 177.365 1256.62 177.125 1255.54 176.646C1254.46 176.157 1253.6 175.438 1252.97 174.489C1252.35 173.53 1252.04 172.336 1252.04 170.908C1252.04 169.705 1252.26 168.694 1252.71 167.876C1253.15 167.059 1253.75 166.401 1254.51 165.903C1255.27 165.404 1256.14 165.028 1257.1 164.775C1258.08 164.521 1259.11 164.342 1260.18 164.239C1261.44 164.107 1262.45 163.985 1263.22 163.872C1263.99 163.75 1264.55 163.572 1264.9 163.337C1265.25 163.102 1265.42 162.754 1265.42 162.293V162.209C1265.42 161.316 1265.14 160.625 1264.58 160.136C1264.02 159.647 1263.23 159.403 1262.21 159.403C1261.13 159.403 1260.27 159.643 1259.63 160.122C1258.99 160.592 1258.57 161.184 1258.36 161.899L1252.8 161.447C1253.09 160.132 1253.64 158.994 1254.47 158.036C1255.3 157.067 1256.36 156.325 1257.67 155.808C1258.98 155.282 1260.51 155.018 1262.24 155.018C1263.44 155.018 1264.59 155.159 1265.69 155.441C1266.8 155.723 1267.78 156.16 1268.64 156.753C1269.5 157.345 1270.18 158.106 1270.68 159.037C1271.18 159.958 1271.43 161.062 1271.43 162.35V176.956H1265.73V173.953H1265.56C1265.22 174.63 1264.75 175.226 1264.17 175.743C1263.59 176.251 1262.89 176.65 1262.07 176.942C1261.25 177.224 1260.31 177.365 1259.23 177.365ZM1260.95 173.22C1261.84 173.22 1262.62 173.046 1263.29 172.698C1263.97 172.341 1264.5 171.862 1264.89 171.26C1265.27 170.659 1265.47 169.977 1265.47 169.216V166.918C1265.28 167.04 1265.02 167.153 1264.69 167.256C1264.37 167.35 1264.01 167.439 1263.6 167.524C1263.2 167.599 1262.8 167.67 1262.39 167.735C1261.99 167.792 1261.62 167.843 1261.29 167.89C1260.59 167.994 1259.97 168.158 1259.44 168.384C1258.92 168.61 1258.51 168.915 1258.22 169.3C1257.93 169.676 1257.78 170.146 1257.78 170.71C1257.78 171.528 1258.08 172.153 1258.67 172.585C1259.27 173.008 1260.03 173.22 1260.95 173.22ZM1282.09 164.436V176.956H1276.09V155.3H1281.81V159.121H1282.07C1282.55 157.862 1283.35 156.865 1284.48 156.132C1285.6 155.39 1286.97 155.018 1288.58 155.018C1290.08 155.018 1291.39 155.347 1292.51 156.005C1293.63 156.663 1294.5 157.603 1295.12 158.825C1295.74 160.038 1296.05 161.485 1296.05 163.167V176.956H1290.05V164.239C1290.06 162.914 1289.72 161.88 1289.03 161.137C1288.34 160.385 1287.4 160.009 1286.2 160.009C1285.39 160.009 1284.67 160.183 1284.05 160.531C1283.44 160.879 1282.96 161.386 1282.62 162.054C1282.28 162.712 1282.1 163.506 1282.09 164.436ZM1310.54 185.528C1308.6 185.528 1306.93 185.26 1305.54 184.724C1304.16 184.198 1303.06 183.479 1302.24 182.567C1301.42 181.655 1300.89 180.631 1300.64 179.494L1306.2 178.746C1306.37 179.179 1306.64 179.583 1307 179.959C1307.37 180.335 1307.85 180.636 1308.46 180.861C1309.07 181.096 1309.81 181.214 1310.68 181.214C1311.99 181.214 1313.07 180.894 1313.91 180.255C1314.77 179.625 1315.19 178.568 1315.19 177.083V173.121H1314.94C1314.68 173.723 1314.28 174.291 1313.76 174.827C1313.23 175.363 1312.55 175.8 1311.73 176.138C1310.9 176.477 1309.91 176.646 1308.77 176.646C1307.14 176.646 1305.66 176.27 1304.32 175.518C1303 174.757 1301.94 173.596 1301.15 172.035C1300.37 170.466 1299.98 168.483 1299.98 166.086C1299.98 163.633 1300.38 161.584 1301.18 159.939C1301.98 158.294 1303.04 157.063 1304.37 156.245C1305.7 155.427 1307.16 155.018 1308.75 155.018C1309.96 155.018 1310.98 155.225 1311.8 155.639C1312.61 156.043 1313.27 156.55 1313.77 157.161C1314.28 157.763 1314.67 158.355 1314.94 158.938H1315.17V155.3H1321.13V177.167C1321.13 179.01 1320.68 180.551 1319.78 181.792C1318.87 183.032 1317.62 183.963 1316.03 184.583C1314.44 185.213 1312.61 185.528 1310.54 185.528ZM1310.67 172.134C1311.64 172.134 1312.45 171.894 1313.12 171.415C1313.8 170.926 1314.32 170.231 1314.67 169.329C1315.04 168.417 1315.22 167.327 1315.22 166.058C1315.22 164.789 1315.04 163.689 1314.69 162.759C1314.33 161.819 1313.81 161.09 1313.14 160.573C1312.46 160.056 1311.64 159.798 1310.67 159.798C1309.68 159.798 1308.85 160.066 1308.17 160.601C1307.5 161.128 1306.98 161.861 1306.64 162.801C1306.29 163.741 1306.11 164.826 1306.11 166.058C1306.11 167.308 1306.29 168.389 1306.64 169.3C1306.99 170.203 1307.51 170.903 1308.17 171.401C1308.85 171.89 1309.68 172.134 1310.67 172.134ZM1339.8 167.735V155.3H1345.8V176.956H1340.04V173.022H1339.81C1339.32 174.291 1338.51 175.311 1337.37 176.082C1336.24 176.852 1334.87 177.238 1333.24 177.238C1331.79 177.238 1330.52 176.909 1329.42 176.251C1328.32 175.593 1327.46 174.658 1326.84 173.445C1326.23 172.233 1325.92 170.781 1325.91 169.089V155.3H1331.92V168.017C1331.92 169.296 1332.27 170.306 1332.94 171.049C1333.62 171.791 1334.53 172.162 1335.67 172.162C1336.39 172.162 1337.07 171.998 1337.7 171.669C1338.33 171.331 1338.83 170.832 1339.22 170.174C1339.61 169.517 1339.81 168.703 1339.8 167.735ZM1356.61 164.436V176.956H1350.61V155.3H1356.33V159.121H1356.58C1357.06 157.862 1357.87 156.865 1359 156.132C1360.12 155.39 1361.49 155.018 1363.1 155.018C1364.6 155.018 1365.91 155.347 1367.03 156.005C1368.15 156.663 1369.02 157.603 1369.64 158.825C1370.26 160.038 1370.57 161.485 1370.57 163.167V176.956H1364.56V164.239C1364.57 162.914 1364.24 161.88 1363.55 161.137C1362.86 160.385 1361.92 160.009 1360.72 160.009C1359.91 160.009 1359.19 160.183 1358.57 160.531C1357.96 160.879 1357.48 161.386 1357.13 162.054C1356.8 162.712 1356.62 163.506 1356.61 164.436ZM1381.48 177.365C1380.1 177.365 1378.87 177.125 1377.79 176.646C1376.7 176.157 1375.85 175.438 1375.22 174.489C1374.6 173.53 1374.29 172.336 1374.29 170.908C1374.29 169.705 1374.51 168.694 1374.95 167.876C1375.39 167.059 1375.99 166.401 1376.76 165.903C1377.52 165.404 1378.38 165.028 1379.35 164.775C1380.33 164.521 1381.35 164.342 1382.42 164.239C1383.68 164.107 1384.7 163.985 1385.47 163.872C1386.24 163.75 1386.8 163.572 1387.15 163.337C1387.49 163.102 1387.67 162.754 1387.67 162.293V162.209C1387.67 161.316 1387.39 160.625 1386.82 160.136C1386.27 159.647 1385.48 159.403 1384.45 159.403C1383.37 159.403 1382.51 159.643 1381.87 160.122C1381.23 160.592 1380.81 161.184 1380.6 161.899L1375.05 161.447C1375.33 160.132 1375.89 158.994 1376.71 158.036C1377.54 157.067 1378.61 156.325 1379.91 155.808C1381.23 155.282 1382.75 155.018 1384.48 155.018C1385.69 155.018 1386.84 155.159 1387.94 155.441C1389.05 155.723 1390.03 156.16 1390.88 156.753C1391.75 157.345 1392.43 158.106 1392.93 159.037C1393.43 159.958 1393.67 161.062 1393.67 162.35V176.956H1387.98V173.953H1387.81C1387.46 174.63 1387 175.226 1386.41 175.743C1385.83 176.251 1385.13 176.65 1384.31 176.942C1383.5 177.224 1382.55 177.365 1381.48 177.365ZM1383.2 173.22C1384.08 173.22 1384.86 173.046 1385.54 172.698C1386.22 172.341 1386.75 171.862 1387.13 171.26C1387.52 170.659 1387.71 169.977 1387.71 169.216V166.918C1387.52 167.04 1387.26 167.153 1386.94 167.256C1386.62 167.35 1386.25 167.439 1385.85 167.524C1385.45 167.599 1385.04 167.67 1384.64 167.735C1384.23 167.792 1383.87 167.843 1383.54 167.89C1382.83 167.994 1382.22 168.158 1381.69 168.384C1381.16 168.61 1380.76 168.915 1380.46 169.3C1380.17 169.676 1380.03 170.146 1380.03 170.71C1380.03 171.528 1380.32 172.153 1380.92 172.585C1381.52 173.008 1382.28 173.22 1383.2 173.22ZM1404.34 164.436V176.956H1398.33V155.3H1404.06V159.121H1404.31C1404.79 157.862 1405.59 156.865 1406.72 156.132C1407.85 155.39 1409.22 155.018 1410.83 155.018C1412.33 155.018 1413.64 155.347 1414.76 156.005C1415.88 156.663 1416.75 157.603 1417.37 158.825C1417.99 160.038 1418.3 161.485 1418.3 163.167V176.956H1412.29V164.239C1412.3 162.914 1411.96 161.88 1411.28 161.137C1410.59 160.385 1409.65 160.009 1408.44 160.009C1407.63 160.009 1406.92 160.183 1406.3 160.531C1405.69 160.879 1405.21 161.386 1404.86 162.054C1404.52 162.712 1404.35 163.506 1404.34 164.436Z" fill="black"/>
<path d="M1538.89 176.956V148.082H1550.28C1552.47 148.082 1554.34 148.5 1555.88 149.337C1557.42 150.164 1558.59 151.315 1559.4 152.791C1560.22 154.257 1560.63 155.949 1560.63 157.866C1560.63 159.784 1560.22 161.476 1559.39 162.942C1558.56 164.408 1557.36 165.55 1555.79 166.368C1554.23 167.186 1552.34 167.594 1550.13 167.594H1542.86V162.702H1549.14C1550.31 162.702 1551.28 162.5 1552.04 162.096C1552.81 161.682 1553.39 161.114 1553.76 160.39C1554.15 159.657 1554.34 158.816 1554.34 157.866C1554.34 156.908 1554.15 156.071 1553.76 155.357C1553.39 154.633 1552.81 154.074 1552.04 153.679C1551.27 153.275 1550.29 153.073 1549.11 153.073H1544.99V176.956H1538.89ZM1574 177.379C1571.77 177.379 1569.86 176.928 1568.25 176.025C1566.65 175.114 1565.42 173.826 1564.56 172.162C1563.69 170.489 1563.26 168.511 1563.26 166.227C1563.26 163.999 1563.69 162.044 1564.56 160.362C1565.42 158.679 1566.64 157.368 1568.21 156.428C1569.79 155.488 1571.64 155.018 1573.76 155.018C1575.19 155.018 1576.52 155.249 1577.75 155.709C1578.99 156.16 1580.07 156.842 1580.99 157.754C1581.93 158.665 1582.65 159.812 1583.17 161.194C1583.68 162.566 1583.94 164.173 1583.94 166.015V167.665H1565.66V163.943H1578.29C1578.29 163.078 1578.1 162.312 1577.72 161.645C1577.35 160.977 1576.83 160.456 1576.16 160.08C1575.5 159.694 1574.73 159.502 1573.86 159.502C1572.95 159.502 1572.14 159.713 1571.44 160.136C1570.74 160.55 1570.2 161.109 1569.8 161.814C1569.41 162.51 1569.2 163.285 1569.19 164.14V167.679C1569.19 168.75 1569.39 169.676 1569.79 170.456C1570.19 171.237 1570.76 171.838 1571.49 172.261C1572.23 172.684 1573.09 172.895 1574.1 172.895C1574.77 172.895 1575.38 172.801 1575.93 172.614C1576.49 172.426 1576.96 172.144 1577.36 171.768C1577.75 171.392 1578.05 170.931 1578.26 170.386L1583.81 170.752C1583.53 172.087 1582.95 173.253 1582.08 174.249C1581.22 175.236 1580.1 176.007 1578.72 176.561C1577.36 177.106 1575.79 177.379 1574 177.379ZM1587.86 176.956V155.3H1593.58V159.121H1593.84C1594.29 157.852 1595.04 156.851 1596.09 156.118C1597.15 155.385 1598.41 155.018 1599.87 155.018C1601.36 155.018 1602.62 155.39 1603.67 156.132C1604.71 156.865 1605.4 157.862 1605.75 159.121H1605.98C1606.42 157.88 1607.22 156.889 1608.37 156.146C1609.54 155.394 1610.92 155.018 1612.5 155.018C1614.53 155.018 1616.17 155.662 1617.43 156.95C1618.69 158.228 1619.33 160.042 1619.33 162.392V176.956H1613.34V163.576C1613.34 162.373 1613.02 161.471 1612.38 160.869C1611.74 160.268 1610.94 159.967 1609.98 159.967C1608.89 159.967 1608.04 160.315 1607.43 161.01C1606.82 161.696 1606.51 162.603 1606.51 163.731V176.956H1600.69V163.449C1600.69 162.387 1600.38 161.541 1599.77 160.912C1599.17 160.282 1598.38 159.967 1597.39 159.967C1596.72 159.967 1596.12 160.136 1595.59 160.475C1595.06 160.804 1594.64 161.269 1594.33 161.87C1594.02 162.463 1593.87 163.158 1593.87 163.957V176.956H1587.86ZM1624.19 176.956V148.082H1630.19V158.938H1630.37C1630.64 158.355 1631.02 157.763 1631.52 157.161C1632.02 156.55 1632.68 156.043 1633.49 155.639C1634.31 155.225 1635.32 155.018 1636.54 155.018C1638.12 155.018 1639.57 155.432 1640.91 156.259C1642.24 157.077 1643.31 158.313 1644.11 159.967C1644.91 161.612 1645.31 163.675 1645.31 166.156C1645.31 168.572 1644.92 170.612 1644.14 172.275C1643.36 173.929 1642.31 175.184 1640.98 176.039C1639.65 176.885 1638.17 177.308 1636.52 177.308C1635.36 177.308 1634.36 177.116 1633.55 176.73C1632.74 176.345 1632.08 175.861 1631.56 175.278C1631.04 174.686 1630.65 174.089 1630.37 173.488H1630.11V176.956H1624.19ZM1630.06 166.128C1630.06 167.416 1630.24 168.539 1630.6 169.498C1630.96 170.456 1631.47 171.204 1632.15 171.739C1632.83 172.266 1633.65 172.529 1634.62 172.529C1635.6 172.529 1636.42 172.261 1637.1 171.725C1637.78 171.18 1638.29 170.428 1638.64 169.47C1638.99 168.501 1639.17 167.388 1639.17 166.128C1639.17 164.878 1639 163.778 1638.65 162.829C1638.3 161.88 1637.79 161.137 1637.11 160.601C1636.44 160.066 1635.61 159.798 1634.62 159.798C1633.64 159.798 1632.81 160.056 1632.14 160.573C1631.47 161.09 1630.96 161.823 1630.6 162.773C1630.24 163.722 1630.06 164.84 1630.06 166.128ZM1663.2 167.735V155.3H1669.21V176.956H1663.44V173.022H1663.21C1662.73 174.291 1661.91 175.311 1660.78 176.082C1659.65 176.852 1658.27 177.238 1656.64 177.238C1655.2 177.238 1653.92 176.909 1652.82 176.251C1651.72 175.593 1650.86 174.658 1650.24 173.445C1649.63 172.233 1649.32 170.781 1649.31 169.089V155.3H1655.32V168.017C1655.33 169.296 1655.67 170.306 1656.35 171.049C1657.02 171.791 1657.93 172.162 1659.07 172.162C1659.79 172.162 1660.47 171.998 1661.1 171.669C1661.73 171.331 1662.24 170.832 1662.62 170.174C1663.02 169.517 1663.21 168.703 1663.2 167.735ZM1679.45 170.724L1679.47 163.52H1680.34L1687.28 155.3H1694.17L1684.85 166.185H1683.43L1679.45 170.724ZM1674.01 176.956V148.082H1680.02V176.956H1674.01ZM1687.54 176.956L1681.17 167.524L1685.18 163.28L1694.58 176.956H1687.54ZM1703.29 177.365C1701.91 177.365 1700.68 177.125 1699.6 176.646C1698.52 176.157 1697.66 175.438 1697.03 174.489C1696.41 173.53 1696.1 172.336 1696.1 170.908C1696.1 169.705 1696.32 168.694 1696.77 167.876C1697.21 167.059 1697.81 166.401 1698.57 165.903C1699.33 165.404 1700.2 165.028 1701.16 164.775C1702.14 164.521 1703.17 164.342 1704.24 164.239C1705.5 164.107 1706.51 163.985 1707.28 163.872C1708.05 163.75 1708.61 163.572 1708.96 163.337C1709.31 163.102 1709.48 162.754 1709.48 162.293V162.209C1709.48 161.316 1709.2 160.625 1708.64 160.136C1708.08 159.647 1707.29 159.403 1706.27 159.403C1705.19 159.403 1704.33 159.643 1703.69 160.122C1703.05 160.592 1702.63 161.184 1702.42 161.899L1696.86 161.447C1697.15 160.132 1697.7 158.994 1698.53 158.036C1699.35 157.067 1700.42 156.325 1701.73 155.808C1703.04 155.282 1704.57 155.018 1706.3 155.018C1707.5 155.018 1708.65 155.159 1709.75 155.441C1710.86 155.723 1711.84 156.16 1712.7 156.753C1713.56 157.345 1714.24 158.106 1714.74 159.037C1715.24 159.958 1715.49 161.062 1715.49 162.35V176.956H1709.79V173.953H1709.62C1709.28 174.63 1708.81 175.226 1708.23 175.743C1707.64 176.251 1706.94 176.65 1706.13 176.942C1705.31 177.224 1704.36 177.365 1703.29 177.365ZM1705.01 173.22C1705.9 173.22 1706.68 173.046 1707.35 172.698C1708.03 172.341 1708.56 171.862 1708.95 171.26C1709.33 170.659 1709.52 169.977 1709.52 169.216V166.918C1709.34 167.04 1709.08 167.153 1708.75 167.256C1708.43 167.35 1708.07 167.439 1707.66 167.524C1707.26 167.599 1706.86 167.67 1706.45 167.735C1706.05 167.792 1705.68 167.843 1705.35 167.89C1704.65 167.994 1704.03 168.158 1703.5 168.384C1702.98 168.61 1702.57 168.915 1702.28 169.3C1701.99 169.676 1701.84 170.146 1701.84 170.71C1701.84 171.528 1702.14 172.153 1702.73 172.585C1703.33 173.008 1704.09 173.22 1705.01 173.22ZM1726.32 177.365C1724.94 177.365 1723.71 177.125 1722.63 176.646C1721.55 176.157 1720.69 175.438 1720.06 174.489C1719.44 173.53 1719.13 172.336 1719.13 170.908C1719.13 169.705 1719.35 168.694 1719.8 167.876C1720.24 167.059 1720.84 166.401 1721.6 165.903C1722.36 165.404 1723.23 165.028 1724.19 164.775C1725.17 164.521 1726.2 164.342 1727.27 164.239C1728.53 164.107 1729.54 163.985 1730.31 163.872C1731.08 163.75 1731.64 163.572 1731.99 163.337C1732.34 163.102 1732.51 162.754 1732.51 162.293V162.209C1732.51 161.316 1732.23 160.625 1731.67 160.136C1731.11 159.647 1730.32 159.403 1729.3 159.403C1728.22 159.403 1727.36 159.643 1726.72 160.122C1726.08 160.592 1725.66 161.184 1725.45 161.899L1719.89 161.447C1720.18 160.132 1720.73 158.994 1721.56 158.036C1722.38 157.067 1723.45 156.325 1724.76 155.808C1726.07 155.282 1727.6 155.018 1729.33 155.018C1730.53 155.018 1731.68 155.159 1732.78 155.441C1733.89 155.723 1734.87 156.16 1735.73 156.753C1736.59 157.345 1737.27 158.106 1737.77 159.037C1738.27 159.958 1738.52 161.062 1738.52 162.35V176.956H1732.82V173.953H1732.65C1732.31 174.63 1731.84 175.226 1731.26 175.743C1730.67 176.251 1729.97 176.65 1729.16 176.942C1728.34 177.224 1727.39 177.365 1726.32 177.365ZM1728.04 173.22C1728.93 173.22 1729.71 173.046 1730.38 172.698C1731.06 172.341 1731.59 171.862 1731.98 171.26C1732.36 170.659 1732.55 169.977 1732.55 169.216V166.918C1732.37 167.04 1732.11 167.153 1731.78 167.256C1731.46 167.35 1731.1 167.439 1730.69 167.524C1730.29 167.599 1729.89 167.67 1729.48 167.735C1729.08 167.792 1728.71 167.843 1728.38 167.89C1727.68 167.994 1727.06 168.158 1726.53 168.384C1726.01 168.61 1725.6 168.915 1725.31 169.3C1725.02 169.676 1724.87 170.146 1724.87 170.71C1724.87 171.528 1725.17 172.153 1725.76 172.585C1726.36 173.008 1727.12 173.22 1728.04 173.22ZM1749.18 164.436V176.956H1743.18V155.3H1748.9V159.121H1749.16C1749.64 157.862 1750.44 156.865 1751.57 156.132C1752.69 155.39 1754.06 155.018 1755.67 155.018C1757.17 155.018 1758.48 155.347 1759.6 156.005C1760.72 156.663 1761.59 157.603 1762.21 158.825C1762.83 160.038 1763.14 161.485 1763.14 163.167V176.956H1757.14V164.239C1757.14 162.914 1756.81 161.88 1756.12 161.137C1755.43 160.385 1754.49 160.009 1753.29 160.009C1752.48 160.009 1751.76 160.183 1751.14 160.531C1750.53 160.879 1750.05 161.386 1749.71 162.054C1749.37 162.712 1749.19 163.506 1749.18 164.436Z" fill="black"/>
</svg>
