<svg width="115" height="147" viewBox="0 0 115 147" fill="none" xmlns="http://www.w3.org/2000/svg">
<path fill-rule="evenodd" clip-rule="evenodd" d="M4.6681 22.878C12.3965 21.7005 30.9503 17.304 54.5054 0.900992C55.328 0.331696 56.3016 0.018418 57.3029 0.000787433C58.3043 -0.0168431 59.2883 0.261936 60.1306 0.801917C68.1903 5.94678 91.6736 20.2314 109.736 24.2207C110.841 24.4684 111.829 25.0787 112.544 25.9539C113.259 26.829 113.658 27.918 113.678 29.0463C114.23 56.5204 119.016 98.6588 98.4801 120.025C83.9286 135.168 69.4323 142.706 61.5272 146.008C59.6643 146.783 57.6451 147.111 55.6318 146.967C53.6184 146.823 51.6671 146.21 49.9346 145.177C36.3325 137.121 2.06251 113.389 0.732121 78.1618C-0.37194 48.5748 0.00349479 33.9656 0.373355 27.5717C0.441224 26.4172 0.904827 25.321 1.68665 24.4666C2.46847 23.6122 3.52102 23.0513 4.6681 22.878Z" fill="#ECF8F9"/>
<path fill-rule="evenodd" clip-rule="evenodd" d="M16.9092 34.6564C22.8393 33.7529 37.0758 30.3794 55.15 17.7932C55.7812 17.3563 56.5283 17.1159 57.2966 17.1024C58.0649 17.0889 58.82 17.3028 59.4663 17.7171C65.6506 21.6648 83.6697 32.6256 97.5292 35.6867C98.3767 35.8767 99.1355 36.3451 99.684 37.0166C100.232 37.688 100.539 38.5237 100.554 39.3895C100.977 60.4707 104.65 92.804 88.8924 109.199C77.7268 120.818 66.6036 126.602 60.5379 129.136C59.1085 129.73 57.5591 129.982 56.0143 129.871C54.4694 129.761 52.9721 129.29 51.6427 128.498C41.2057 122.317 14.9099 104.107 13.889 77.0765C13.0419 54.3739 13.33 43.1641 13.6138 38.2579C13.6658 37.3721 14.0216 36.531 14.6215 35.8754C15.2214 35.2197 16.029 34.7894 16.9092 34.6564Z" fill="#429488"/>
<path d="M81.0996 65.3037L81.1352 65.2684L81.1696 65.2317C82.3747 63.9453 83.0462 62.2491 83.0462 60.4858C83.0462 58.7225 82.3746 57.0264 81.1696 55.74L81.1487 55.7177L81.1273 55.6958C80.4962 55.0512 79.7428 54.5397 78.9117 54.1906C78.0805 53.8415 77.1879 53.6617 76.2863 53.6617C75.3848 53.6617 74.4922 53.8415 73.661 54.1906C72.8359 54.5372 72.0873 55.0439 71.459 55.682L50.5876 76.4862L42.7294 68.6534C41.4492 67.3773 39.7147 66.662 37.908 66.662C36.1014 66.662 34.3669 67.3773 33.0866 68.6534C31.8062 69.9297 31.085 71.6627 31.085 73.4719C31.085 75.2811 31.8062 77.0142 33.0866 78.2904L33.0866 78.2905L33.0956 78.2993L45.7918 90.8408C46.4046 91.4862 47.1424 91.9999 47.96 92.351C48.798 92.7109 49.7021 92.8923 50.6143 92.8835L50.6205 92.8834C51.5108 92.8729 52.3904 92.6866 53.2084 92.3353C54.0178 91.9877 54.7514 91.4853 55.3678 90.8559L81.0996 65.3037Z" fill="white" stroke="white" stroke-width="5.55992"/>
</svg>
