<svg width="245" height="245" viewBox="0 0 245 245" fill="none" xmlns="http://www.w3.org/2000/svg">
<circle cx="122.5" cy="122.5" r="122.5" fill="white"/>
<path d="M115.464 80.2499H136.589L159.756 57.0124C160.411 56.3524 161.19 55.8285 162.048 55.471C162.906 55.1135 163.826 54.9294 164.756 54.9294C165.685 54.9294 166.606 55.1135 167.464 55.471C168.322 55.8285 169.101 56.3524 169.755 57.0124L187.923 75.2503C189.234 76.5696 189.971 78.3543 189.971 80.2146C189.971 82.075 189.234 83.8597 187.923 85.179L171.797 101.375H115.464V115.458C115.464 117.326 114.722 119.117 113.402 120.437C112.081 121.758 110.29 122.5 108.422 122.5C106.555 122.5 104.764 121.758 103.443 120.437C102.123 119.117 101.381 117.326 101.381 115.458V94.3332C101.381 90.5981 102.865 87.0159 105.506 84.3748C108.147 81.7336 111.729 80.2499 115.464 80.2499ZM73.2141 115.458V143.625L57.0887 159.75C55.7772 161.07 55.041 162.854 55.041 164.715C55.041 166.575 55.7772 168.36 57.0887 169.679L75.2562 187.917C75.9108 188.577 76.6896 189.101 77.5477 189.458C78.4058 189.816 79.3262 190 80.2558 190C81.1853 190 82.1057 189.816 82.9638 189.458C83.8219 189.101 84.6007 188.577 85.2553 187.917L115.464 157.708H143.631C145.498 157.708 147.289 156.966 148.61 155.646C149.931 154.325 150.672 152.534 150.672 150.667V143.625H157.714C159.582 143.625 161.373 142.883 162.693 141.562C164.014 140.242 164.756 138.451 164.756 136.583V129.542H171.797C173.665 129.542 175.456 128.8 176.777 127.479C178.097 126.158 178.839 124.367 178.839 122.5V115.458H129.547V122.5C129.547 126.235 128.064 129.817 125.423 132.458C122.781 135.099 119.199 136.583 115.464 136.583H101.381C97.6456 136.583 94.0635 135.099 91.4223 132.458C88.7812 129.817 87.2974 126.235 87.2974 122.5V101.375L73.2141 115.458Z" fill="#FA8A06"/>
</svg>
