<svg width="245" height="245" viewBox="0 0 245 245" fill="none" xmlns="http://www.w3.org/2000/svg">
<circle cx="122.5" cy="122.5" r="122.5" fill="white"/>
<path fill-rule="evenodd" clip-rule="evenodd" d="M95.7795 85.7184V93.7059L86.2507 94.4822C82.9771 94.7456 79.8864 96.0991 77.4727 98.3262C75.059 100.553 73.4618 103.525 72.9363 106.767C72.7057 108.218 72.4863 109.67 72.2951 111.127C72.2496 111.479 72.3171 111.836 72.4879 112.148C72.6588 112.459 72.9241 112.708 73.2457 112.859L73.6788 113.062C104.217 127.518 140.785 127.518 171.318 113.062L171.751 112.859C172.071 112.707 172.335 112.458 172.505 112.147C172.675 111.835 172.742 111.478 172.696 111.127C172.505 109.67 172.293 108.217 172.06 106.767C171.535 103.525 169.937 100.553 167.524 98.3262C165.11 96.0991 162.019 94.7456 158.746 94.4822L149.217 93.7115V85.724C149.218 83.3663 148.372 81.0867 146.834 79.2998C145.296 77.5129 143.167 76.3374 140.836 75.9872L133.973 74.9578C126.366 73.8165 118.631 73.8165 111.023 74.9578L104.161 75.9872C101.83 76.3373 99.7025 77.512 98.1645 79.2977C96.6265 81.0834 95.7802 83.3617 95.7795 85.7184ZM132.719 83.2997C125.943 82.2834 119.053 82.2834 112.278 83.2997L105.415 84.329C105.082 84.3789 104.778 84.5465 104.558 84.8014C104.338 85.0564 104.217 85.3817 104.217 85.7184V93.1153C116.394 92.4177 128.602 92.4177 140.779 93.1153V85.7184C140.779 85.3817 140.658 85.0564 140.438 84.8014C140.218 84.5465 139.914 84.3789 139.581 84.329L132.719 83.2997Z" fill="#85B6FF"/>
<path d="M173.789 122.894C173.777 122.712 173.722 122.535 173.628 122.379C173.533 122.224 173.403 122.093 173.246 121.999C173.09 121.905 172.914 121.85 172.732 121.839C172.55 121.829 172.368 121.862 172.202 121.937C140.865 135.814 104.134 135.814 72.7973 121.937C72.6313 121.862 72.4495 121.829 72.2676 121.839C72.0857 121.85 71.9092 121.905 71.7531 121.999C71.5971 122.093 71.4662 122.224 71.3718 122.379C71.2774 122.535 71.2222 122.712 71.2111 122.894C70.6362 133.662 71.2151 144.462 72.9379 155.108C73.4622 158.351 75.059 161.324 77.4728 163.552C79.8866 165.78 82.9779 167.135 86.2523 167.399L96.7823 168.242C113.899 169.626 131.095 169.626 148.217 168.242L158.747 167.399C162.022 167.135 165.113 165.78 167.527 163.552C169.941 161.324 171.537 158.351 172.062 155.108C173.783 144.449 174.368 133.649 173.789 122.899" fill="#85B6FF"/>
</svg>
