<svg width="245" height="245" viewBox="0 0 245 245" fill="none" xmlns="http://www.w3.org/2000/svg">
<circle cx="122.5" cy="122.5" r="122.5" fill="white"/>
<path d="M104.451 151.167L128.834 164.467V180.333H88.0007C81.5257 180.333 76.334 175.142 76.334 168.667V75.3333C76.334 72.2391 77.5631 69.2716 79.7511 67.0837C81.939 64.8958 84.9065 63.6666 88.0007 63.6666H93.834V104.5L108.417 95.75L123.001 104.5V63.6666H158.001C161.095 63.6666 164.062 64.8958 166.25 67.0837C168.438 69.2716 169.667 72.2391 169.667 75.3333V125.15L160.917 120.367L104.451 151.167ZM193.001 151.167L160.917 133.667L128.834 151.167L160.917 168.667L193.001 151.167ZM140.501 163.358V175.025L160.917 186.167L181.334 175.025V163.358L160.917 174.5L140.501 163.358Z" fill="#009688"/>
</svg>
